SplineFontDB: 3.0
FontName: HennyPenny-Regular
FullName: Henny Penny
FamilyName: Henny Penny
Weight: Book
Copyright: Copyright (c) 2012, Brownfox (gayaneh.b@gmail.com), with Reserved Font Name "Henny Penny"
Version: 1.001
ItalicAngle: 0
UnderlinePosition: -103
UnderlineWidth: 102
Ascent: 1638
Descent: 410
InvalidEm: 0
sfntRevision: 0x00010042
LayerCount: 2
Layer: 0 1 "Back" 1
Layer: 1 1 "Fore" 0
XUID: [1021 591 -286901576 6038409]
FSType: 0
OS2Version: 3
OS2_WeightWidthSlopeOnly: 0
OS2_UseTypoMetrics: 1
CreationTime: 1327406700
ModificationTime: 1329501940
PfmFamily: 17
TTFWeight: 400
TTFWidth: 5
LineGap: 0
VLineGap: 0
Panose: 2 0 5 5 0 0 0 2 0 4
OS2TypoAscent: 2324
OS2TypoAOffset: 0
OS2TypoDescent: -1305
OS2TypoDOffset: 0
OS2TypoLinegap: 0
OS2WinAscent: 2324
OS2WinAOffset: 0
OS2WinDescent: 1305
OS2WinDOffset: 0
HheadAscent: 2324
HheadAOffset: 0
HheadDescent: -1305
HheadDOffset: 0
OS2SubXSize: 1331
OS2SubYSize: 1229
OS2SubXOff: 0
OS2SubYOff: 154
OS2SupXSize: 1331
OS2SupYSize: 1229
OS2SupXOff: 0
OS2SupYOff: 717
OS2StrikeYSize: 102
OS2StrikeYPos: 512
OS2CapHeight: 0
OS2XHeight: 0
OS2Vendor: '    '
OS2CodePages: 00000001.00000000
OS2UnicodeRanges: 800000a7.40000043.00000000.00000000
Lookup: 1 0 0 "'aalt' Access All Alternates lookup 0" { "'aalt' Access All Alternates lookup 0 subtable"  } ['aalt' ('    ' <'dflt' > 'latn' <'dflt' > ) ]
Lookup: 4 0 0 "'frac' Diagonal Fractions lookup 1" { "'frac' Diagonal Fractions lookup 1 subtable"  } ['frac' ('    ' <'dflt' > 'latn' <'dflt' > ) ]
Lookup: 4 0 1 "'liga' Standard Ligatures lookup 2" { "'liga' Standard Ligatures lookup 2 subtable"  } ['liga' ('    ' <'dflt' > 'latn' <'dflt' > ) ]
Lookup: 258 0 0 "'kern' Horizontal Kerning lookup 0" { "'kern' Horizontal Kerning lookup 0 per glyph data 0"  "'kern' Horizontal Kerning lookup 0 per glyph data 1"  "'kern' Horizontal Kerning lookup 0 kerning class 2"  } ['kern' ('    ' <'dflt' > 'latn' <'dflt' > ) ]
DEI: 91125

StartChar: .notdef
Encoding: 65536 -1 0
Width: 553
Flags: W
LayerCount: 2
Back
Fore
SplineSet
77 1264 m 1,0,-1
 476 1264 l 1,1,-1
 476 0 l 1,2,-1
 77 0 l 1,3,-1
 77 1264 l 1,0,-1
468 8 m 1,4,-1
 468 1256 l 1,5,-1
 85 1256 l 1,6,-1
 85 8 l 1,7,-1
 468 8 l 1,4,-1
EndSplineSet
EndChar

StartChar: exclam
Encoding: 33 33 4
Width: 510
GlyphClass: 2
Flags: W
LayerCount: 2
Back
Fore
SplineSet
244 -74 m 0,0,1
 219 -74 219 -74 195.5 -64.5 c 128,-1,2
 172 -55 172 -55 153.5 -38 c 128,-1,3
 135 -21 135 -21 124 4 c 128,-1,4
 113 29 113 29 113 61 c 0,5,6
 113 99 113 99 125 124.5 c 128,-1,7
 137 150 137 150 155.5 166 c 128,-1,8
 174 182 174 182 196.5 188.5 c 128,-1,9
 219 195 219 195 240 195 c 0,10,11
 264 195 264 195 287 186 c 128,-1,12
 310 177 310 177 329 160.5 c 128,-1,13
 348 144 348 144 359.5 119 c 128,-1,14
 371 94 371 94 371 63 c 0,15,16
 371 30 371 30 361 4.5 c 128,-1,17
 351 -21 351 -21 333.5 -38.5 c 128,-1,18
 316 -56 316 -56 293 -65 c 128,-1,19
 270 -74 270 -74 244 -74 c 0,0,1
244 408 m 0,20,21
 235 409 235 409 231.5 425 c 128,-1,22
 228 441 228 441 226.5 469.5 c 128,-1,23
 225 498 225 498 225.5 538 c 128,-1,24
 226 578 226 578 225 627 c 0,25,26
 224 705 224 705 221 780.5 c 128,-1,27
 218 856 218 856 212 931.5 c 128,-1,28
 206 1007 206 1007 197.5 1084 c 128,-1,29
 189 1161 189 1161 178 1243 c 0,30,31
 166 1334 166 1334 153.5 1411.5 c 128,-1,32
 141 1489 141 1489 130.5 1554.5 c 128,-1,33
 120 1620 120 1620 113 1673 c 128,-1,34
 106 1726 106 1726 106 1767 c 0,35,36
 106 1805 106 1805 113.5 1836.5 c 128,-1,37
 121 1868 121 1868 137.5 1891 c 128,-1,38
 154 1914 154 1914 180 1926.5 c 128,-1,39
 206 1939 206 1939 242 1939 c 0,40,41
 291 1939 291 1939 322 1919 c 128,-1,42
 353 1899 353 1899 370.5 1863.5 c 128,-1,43
 388 1828 388 1828 394.5 1778.5 c 128,-1,44
 401 1729 401 1729 401 1671 c 0,45,46
 401 1599 401 1599 396.5 1508.5 c 128,-1,47
 392 1418 392 1418 384.5 1320 c 128,-1,48
 377 1222 377 1222 367.5 1122 c 128,-1,49
 358 1022 358 1022 347.5 931 c 128,-1,50
 337 840 337 840 327 763.5 c 128,-1,51
 317 687 317 687 309 635 c 0,52,53
 291 520 291 520 276.5 463 c 128,-1,54
 262 406 262 406 244 408 c 0,20,21
EndSplineSet
EndChar

StartChar: quotedbl
Encoding: 34 34 5
Width: 600
GlyphClass: 2
Flags: W
LayerCount: 2
Back
Fore
SplineSet
172 1679 m 0,0,1
 204 1679 204 1679 224 1657 c 128,-1,2
 244 1635 244 1635 244 1579 c 0,3,4
 244 1556 244 1556 244 1501.5 c 128,-1,5
 244 1447 244 1447 242.5 1379 c 128,-1,6
 241 1311 241 1311 239 1237.5 c 128,-1,7
 237 1164 237 1164 232.5 1103.5 c 128,-1,8
 228 1043 228 1043 221.5 1004 c 128,-1,9
 215 965 215 965 205 965 c 0,10,11
 199 965 199 965 191.5 987.5 c 128,-1,12
 184 1010 184 1010 175.5 1048 c 128,-1,13
 167 1086 167 1086 158.5 1135.5 c 128,-1,14
 150 1185 150 1185 142 1238.5 c 128,-1,15
 134 1292 134 1292 126.5 1345.5 c 128,-1,16
 119 1399 119 1399 113.5 1445 c 128,-1,17
 108 1491 108 1491 105 1526.5 c 128,-1,18
 102 1562 102 1562 102 1579 c 0,19,20
 102 1679 102 1679 172 1679 c 0,0,1
426 1712 m 0,21,22
 447 1712 447 1712 460.5 1702.5 c 128,-1,23
 474 1693 474 1693 481.5 1678 c 128,-1,24
 489 1663 489 1663 491.5 1643.5 c 128,-1,25
 494 1624 494 1624 494 1604 c 0,26,27
 494 1575 494 1575 492 1533.5 c 128,-1,28
 490 1492 490 1492 487 1449 c 128,-1,29
 484 1406 484 1406 480.5 1368 c 128,-1,30
 477 1330 477 1330 475 1307 c 0,31,32
 473 1282 473 1282 469.5 1248.5 c 128,-1,33
 466 1215 466 1215 461.5 1180 c 128,-1,34
 457 1145 457 1145 451.5 1111 c 128,-1,35
 446 1077 446 1077 440 1050.5 c 128,-1,36
 434 1024 434 1024 426.5 1007.5 c 128,-1,37
 419 991 419 991 412 991 c 0,38,39
 401 991 401 991 392.5 1025.5 c 128,-1,40
 384 1060 384 1060 377 1115 c 128,-1,41
 370 1170 370 1170 365 1238 c 128,-1,42
 360 1306 360 1306 356.5 1372.5 c 128,-1,43
 353 1439 353 1439 351.5 1496.5 c 128,-1,44
 350 1554 350 1554 350 1589 c 0,45,46
 350 1651 350 1651 367 1681.5 c 128,-1,47
 384 1712 384 1712 426 1712 c 0,21,22
EndSplineSet
EndChar

StartChar: numbersign
Encoding: 35 35 6
Width: 2111
GlyphClass: 2
Flags: W
LayerCount: 2
Back
Fore
SplineSet
1180 1653 m 0,0,1
 1192 1653 1192 1653 1196 1644 c 128,-1,2
 1200 1635 1200 1635 1200 1624 c 0,3,4
 1200 1608 1200 1608 1187.5 1569 c 128,-1,5
 1175 1530 1175 1530 1156 1479 c 128,-1,6
 1137 1428 1137 1428 1113.5 1369.5 c 128,-1,7
 1090 1311 1090 1311 1067.5 1256.5 c 128,-1,8
 1045 1202 1045 1202 1026.5 1156.5 c 128,-1,9
 1008 1111 1008 1111 999 1085 c 0,10,11
 993 1068 993 1068 990 1057 c 128,-1,12
 987 1046 987 1046 987 1036 c 0,13,14
 987 1020 987 1020 1003 1011 c 128,-1,15
 1019 1002 1019 1002 1041.5 998 c 128,-1,16
 1064 994 1064 994 1089 993.5 c 128,-1,17
 1114 993 1114 993 1133 993 c 0,18,19
 1178 993 1178 993 1201 1009 c 128,-1,20
 1224 1025 1224 1025 1241 1053 c 0,21,22
 1256 1077 1256 1077 1275 1115.5 c 128,-1,23
 1294 1154 1294 1154 1314 1196 c 128,-1,24
 1334 1238 1334 1238 1352 1278.5 c 128,-1,25
 1370 1319 1370 1319 1382 1348 c 0,26,27
 1388 1360 1388 1360 1394 1373 c 128,-1,28
 1400 1386 1400 1386 1407.5 1396.5 c 128,-1,29
 1415 1407 1415 1407 1423.5 1414 c 128,-1,30
 1432 1421 1432 1421 1442 1421 c 0,31,32
 1450 1421 1450 1421 1455 1413.5 c 128,-1,33
 1460 1406 1460 1406 1460 1395 c 0,34,35
 1460 1374 1460 1374 1449 1340 c 128,-1,36
 1438 1306 1438 1306 1421 1266 c 128,-1,37
 1404 1226 1404 1226 1384.5 1184.5 c 128,-1,38
 1365 1143 1365 1143 1348 1106 c 128,-1,39
 1331 1069 1331 1069 1320 1041 c 128,-1,40
 1309 1013 1309 1013 1309 1001 c 0,41,42
 1309 984 1309 984 1321.5 979.5 c 128,-1,43
 1334 975 1334 975 1348 973 c 0,44,45
 1370 970 1370 970 1413 969 c 128,-1,46
 1456 968 1456 968 1510.5 966.5 c 128,-1,47
 1565 965 1565 965 1626.5 964 c 128,-1,48
 1688 963 1688 963 1748.5 961.5 c 128,-1,49
 1809 960 1809 960 1863.5 957 c 128,-1,50
 1918 954 1918 954 1958 950 c 0,51,52
 1984 947 1984 947 1995.5 940.5 c 128,-1,53
 2007 934 2007 934 2007 920 c 0,54,55
 2007 891 2007 891 1954 891 c 0,56,57
 1930 891 1930 891 1888 894.5 c 128,-1,58
 1846 898 1846 898 1799.5 903 c 128,-1,59
 1753 908 1753 908 1709.5 912.5 c 128,-1,60
 1666 917 1666 917 1640 920 c 0,61,62
 1623 921 1623 921 1595.5 923.5 c 128,-1,63
 1568 926 1568 926 1535 927.5 c 128,-1,64
 1502 929 1502 929 1466 930.5 c 128,-1,65
 1430 932 1430 932 1397 932 c 0,66,67
 1363 932 1363 932 1335.5 930.5 c 128,-1,68
 1308 929 1308 929 1292 924 c 0,69,70
 1271 917 1271 917 1259.5 903.5 c 128,-1,71
 1248 890 1248 890 1237 870 c 0,72,73
 1234 866 1234 866 1223 842 c 128,-1,74
 1212 818 1212 818 1196 784.5 c 128,-1,75
 1180 751 1180 751 1161.5 712 c 128,-1,76
 1143 673 1143 673 1126.5 637.5 c 128,-1,77
 1110 602 1110 602 1097.5 574.5 c 128,-1,78
 1085 547 1085 547 1081 537 c 0,79,80
 1075 520 1075 520 1075 512 c 0,81,82
 1075 506 1075 506 1080 501 c 128,-1,83
 1085 496 1085 496 1096 496 c 0,84,85
 1132 496 1132 496 1181 502 c 128,-1,86
 1230 508 1230 508 1284.5 516.5 c 128,-1,87
 1339 525 1339 525 1395 535.5 c 128,-1,88
 1451 546 1451 546 1501 554.5 c 128,-1,89
 1551 563 1551 563 1590.5 569 c 128,-1,90
 1630 575 1630 575 1653 575 c 256,91,92
 1676 575 1676 575 1685 568.5 c 128,-1,93
 1694 562 1694 562 1694 551 c 0,94,95
 1694 537 1694 537 1681 527.5 c 128,-1,96
 1668 518 1668 518 1630 510 c 0,97,98
 1596 504 1596 504 1518.5 494.5 c 128,-1,99
 1441 485 1441 485 1335 471 c 0,100,101
 1249 460 1249 460 1187 450 c 128,-1,102
 1125 440 1125 440 1075 428 c 0,103,104
 1046 420 1046 420 1028 401 c 128,-1,105
 1010 382 1010 382 993 344 c 0,106,107
 990 338 990 338 975 302.5 c 128,-1,108
 960 267 960 267 937 212.5 c 128,-1,109
 914 158 914 158 885.5 89.5 c 128,-1,110
 857 21 857 21 826.5 -51.5 c 128,-1,111
 796 -124 796 -124 766.5 -194.5 c 128,-1,112
 737 -265 737 -265 713 -323.5 c 128,-1,113
 689 -382 689 -382 671.5 -423 c 128,-1,114
 654 -464 654 -464 649 -477 c 0,115,116
 638 -504 638 -504 626.5 -531 c 128,-1,117
 615 -558 615 -558 602 -579 c 128,-1,118
 589 -600 589 -600 574.5 -613.5 c 128,-1,119
 560 -627 560 -627 545 -627 c 0,120,121
 531 -627 531 -627 522.5 -617 c 128,-1,122
 514 -607 514 -607 514 -592 c 0,123,124
 514 -571 514 -571 521 -545 c 128,-1,125
 528 -519 528 -519 538 -493.5 c 128,-1,126
 548 -468 548 -468 557 -446.5 c 128,-1,127
 566 -425 566 -425 571 -414 c 0,128,129
 591 -364 591 -364 617.5 -301.5 c 128,-1,130
 644 -239 644 -239 673 -172.5 c 128,-1,131
 702 -106 702 -106 730.5 -40.5 c 128,-1,132
 759 25 759 25 783.5 80 c 128,-1,133
 808 135 808 135 825.5 175 c 128,-1,134
 843 215 843 215 850 231 c 0,135,136
 858 251 858 251 867.5 274 c 128,-1,137
 877 297 877 297 885 318.5 c 128,-1,138
 893 340 893 340 898 357 c 128,-1,139
 903 374 903 374 903 383 c 0,140,141
 903 399 903 399 879 399 c 0,142,143
 864 399 864 399 842 396.5 c 128,-1,144
 820 394 820 394 798 390.5 c 128,-1,145
 776 387 776 387 756.5 382 c 128,-1,146
 737 377 737 377 727 373 c 0,147,148
 712 365 712 365 702.5 354 c 128,-1,149
 693 343 693 343 684 322 c 0,150,151
 683 319 683 319 668.5 285 c 128,-1,152
 654 251 654 251 632 200.5 c 128,-1,153
 610 150 610 150 584 91 c 128,-1,154
 558 32 558 32 534.5 -21 c 128,-1,155
 511 -74 511 -74 493 -113 c 128,-1,156
 475 -152 475 -152 469 -162 c 0,157,158
 459 -180 459 -180 449 -199.5 c 128,-1,159
 439 -219 439 -219 427.5 -235.5 c 128,-1,160
 416 -252 416 -252 403 -263 c 128,-1,161
 390 -274 390 -274 373 -274 c 0,162,163
 359 -274 359 -274 348.5 -263 c 128,-1,164
 338 -252 338 -252 338 -229 c 0,165,166
 338 -199 338 -199 355 -148.5 c 128,-1,167
 372 -98 372 -98 397 -39 c 128,-1,168
 422 20 422 20 451.5 82 c 128,-1,169
 481 144 481 144 506 197 c 128,-1,170
 531 250 531 250 548 287.5 c 128,-1,171
 565 325 565 325 565 336 c 0,172,173
 565 354 565 354 539 354 c 0,174,175
 506 354 506 354 457.5 348 c 128,-1,176
 409 342 409 342 357.5 335.5 c 128,-1,177
 306 329 306 329 258 323 c 128,-1,178
 210 317 210 317 178 317 c 0,179,180
 158 317 158 317 145.5 320.5 c 128,-1,181
 133 324 133 324 126.5 329.5 c 128,-1,182
 120 335 120 335 117.5 342 c 128,-1,183
 115 349 115 349 115 356 c 0,184,185
 115 375 115 375 128.5 384.5 c 128,-1,186
 142 394 142 394 170 399 c 0,187,188
 179 401 179 401 210.5 404 c 128,-1,189
 242 407 242 407 284 411.5 c 128,-1,190
 326 416 326 416 374.5 420.5 c 128,-1,191
 423 425 423 425 466.5 430.5 c 128,-1,192
 510 436 510 436 543.5 441 c 128,-1,193
 577 446 577 446 590 451 c 0,194,195
 616 460 616 460 630.5 474 c 128,-1,196
 645 488 645 488 653 502 c 0,197,198
 658 511 658 511 672 538 c 128,-1,199
 686 565 686 565 704 602 c 128,-1,200
 722 639 722 639 741.5 682.5 c 128,-1,201
 761 726 761 726 777.5 767.5 c 128,-1,202
 794 809 794 809 804.5 845 c 128,-1,203
 815 881 815 881 815 903 c 0,204,205
 815 928 815 928 797 943 c 128,-1,206
 779 958 779 958 729 963 c 0,207,208
 655 969 655 969 590.5 972.5 c 128,-1,209
 526 976 526 976 461 978.5 c 128,-1,210
 396 981 396 981 325.5 983.5 c 128,-1,211
 255 986 255 986 170 991 c 0,212,213
 142 993 142 993 122 997.5 c 128,-1,214
 102 1002 102 1002 102 1022 c 0,215,216
 102 1037 102 1037 119 1042 c 128,-1,217
 136 1047 136 1047 162 1047 c 0,218,219
 173 1047 173 1047 213.5 1045.5 c 128,-1,220
 254 1044 254 1044 311.5 1041 c 128,-1,221
 369 1038 369 1038 437 1035.5 c 128,-1,222
 505 1033 505 1033 572.5 1030 c 128,-1,223
 640 1027 640 1027 700 1025.5 c 128,-1,224
 760 1024 760 1024 801 1024 c 0,225,226
 841 1024 841 1024 870 1031 c 128,-1,227
 899 1038 899 1038 918 1067 c 0,228,229
 925 1080 925 1080 942.5 1119.5 c 128,-1,230
 960 1159 960 1159 981.5 1211.5 c 128,-1,231
 1003 1264 1003 1264 1026.5 1323 c 128,-1,232
 1050 1382 1050 1382 1070.5 1434.5 c 128,-1,233
 1091 1487 1091 1487 1105.5 1525.5 c 128,-1,234
 1120 1564 1120 1564 1124 1575 c 0,235,236
 1140 1615 1140 1615 1152 1634 c 128,-1,237
 1164 1653 1164 1653 1180 1653 c 0,0,1
999 944 m 0,238,239
 987 942 987 942 975 939 c 128,-1,240
 963 936 963 936 950.5 928 c 128,-1,241
 938 920 938 920 925 905.5 c 128,-1,242
 912 891 912 891 899 866 c 0,243,244
 893 856 893 856 883.5 833.5 c 128,-1,245
 874 811 874 811 862 781.5 c 128,-1,246
 850 752 850 752 836.5 717.5 c 128,-1,247
 823 683 823 683 810 649 c 0,248,249
 779 568 779 568 743 471 c 1,250,251
 788 471 788 471 828 474 c 0,252,253
 862 476 862 476 895 480 c 128,-1,254
 928 484 928 484 944 492 c 0,255,256
 965 502 965 502 979.5 519.5 c 128,-1,257
 994 537 994 537 1006.5 561 c 128,-1,258
 1019 585 1019 585 1031.5 614.5 c 128,-1,259
 1044 644 1044 644 1059 678 c 0,260,261
 1078 721 1078 721 1096.5 767 c 128,-1,262
 1115 813 1115 813 1129 850.5 c 128,-1,263
 1143 888 1143 888 1151.5 912 c 128,-1,264
 1160 936 1160 936 1159 936 c 0,265,266
 1128 939 1128 939 1082.5 941.5 c 128,-1,267
 1037 944 1037 944 999 944 c 0,238,239
EndSplineSet
EndChar

StartChar: dollar
Encoding: 36 36 7
Width: 1638
GlyphClass: 2
Flags: W
LayerCount: 2
Back
Fore
SplineSet
1049 1849 m 0,0,1
 1057 1849 1057 1849 1063 1841.5 c 128,-1,2
 1069 1834 1069 1834 1069 1812 c 0,3,4
 1069 1788 1069 1788 1060 1731.5 c 128,-1,5
 1051 1675 1051 1675 1038 1606 c 1,6,7
 1082 1598 1082 1598 1118 1590.5 c 128,-1,8
 1154 1583 1154 1583 1188 1583 c 0,9,10
 1215 1583 1215 1583 1239 1595 c 128,-1,11
 1263 1607 1263 1607 1283.5 1625 c 128,-1,12
 1304 1643 1304 1643 1322 1664 c 128,-1,13
 1340 1685 1340 1685 1354.5 1703 c 128,-1,14
 1369 1721 1369 1721 1380.5 1733 c 128,-1,15
 1392 1745 1392 1745 1401 1745 c 0,16,17
 1409 1745 1409 1745 1412 1740 c 128,-1,18
 1415 1735 1415 1735 1415 1729 c 0,19,20
 1415 1716 1415 1716 1406 1697 c 128,-1,21
 1397 1678 1397 1678 1382.5 1647.5 c 128,-1,22
 1368 1617 1368 1617 1351 1573 c 128,-1,23
 1334 1529 1334 1529 1319 1466 c 0,24,25
 1304 1402 1304 1402 1294.5 1336 c 128,-1,26
 1285 1270 1285 1270 1276.5 1216 c 128,-1,27
 1268 1162 1268 1162 1259.5 1128 c 128,-1,28
 1251 1094 1251 1094 1237 1094 c 0,29,30
 1228 1094 1228 1094 1225.5 1114.5 c 128,-1,31
 1223 1135 1223 1135 1221 1171 c 128,-1,32
 1219 1207 1219 1207 1214 1256.5 c 128,-1,33
 1209 1306 1209 1306 1194 1364 c 0,34,35
 1187 1392 1187 1392 1173.5 1420.5 c 128,-1,36
 1160 1449 1160 1449 1139 1475 c 128,-1,37
 1118 1501 1118 1501 1091 1522 c 128,-1,38
 1064 1543 1064 1543 1030 1556 c 1,39,40
 1018 1493 1018 1493 1007 1431.5 c 128,-1,41
 996 1370 996 1370 987 1321 c 2,42,-1
 930 1014 l 1,43,44
 991 942 991 942 1058 867 c 128,-1,45
 1125 792 1125 792 1180 710.5 c 128,-1,46
 1235 629 1235 629 1271 539 c 128,-1,47
 1307 449 1307 449 1307 346 c 0,48,49
 1307 206 1307 206 1264 107.5 c 128,-1,50
 1221 9 1221 9 1149 -53 c 128,-1,51
 1077 -115 1077 -115 982.5 -143.5 c 128,-1,52
 888 -172 888 -172 786 -172 c 0,53,54
 727 -172 727 -172 678 -160 c 1,55,-1
 662 -225 l 2,56,57
 636 -334 636 -334 617 -383 c 128,-1,58
 598 -432 598 -432 580 -432 c 0,59,60
 561 -432 561 -432 561 -403 c 0,61,62
 561 -391 561 -391 567 -361 c 128,-1,63
 573 -331 573 -331 581.5 -293.5 c 128,-1,64
 590 -256 590 -256 600 -215.5 c 128,-1,65
 610 -175 610 -175 618 -141 c 1,66,67
 569 -121 569 -121 531 -94.5 c 128,-1,68
 493 -68 493 -68 462.5 -44 c 128,-1,69
 432 -20 432 -20 406.5 -3 c 128,-1,70
 381 14 381 14 356 14 c 0,71,72
 330 14 330 14 305.5 -7.5 c 128,-1,73
 281 -29 281 -29 259.5 -54.5 c 128,-1,74
 238 -80 238 -80 220.5 -101.5 c 128,-1,75
 203 -123 203 -123 193 -123 c 0,76,77
 184 -123 184 -123 184 -113 c 0,78,79
 184 -101 184 -101 198 -72 c 128,-1,80
 212 -43 212 -43 232 0.5 c 128,-1,81
 252 44 252 44 275.5 100 c 128,-1,82
 299 156 299 156 317 221 c 0,83,84
 339 297 339 297 349 359.5 c 128,-1,85
 359 422 359 422 365 467 c 128,-1,86
 371 512 371 512 377 536.5 c 128,-1,87
 383 561 383 561 395 561 c 0,88,89
 412 561 412 561 412 516 c 0,90,91
 412 485 412 485 412.5 449.5 c 128,-1,92
 413 414 413 414 414.5 377 c 128,-1,93
 416 340 416 340 420 303 c 128,-1,94
 424 266 424 266 432 233 c 0,95,96
 458 121 458 121 510.5 45 c 128,-1,97
 563 -31 563 -31 637 -70 c 1,98,99
 665 51 665 51 688 153.5 c 128,-1,100
 711 256 711 256 730.5 348.5 c 128,-1,101
 750 441 750 441 768 528 c 128,-1,102
 786 615 786 615 805 705 c 1,103,104
 748 764 748 764 692.5 824.5 c 128,-1,105
 637 885 637 885 592.5 949.5 c 128,-1,106
 548 1014 548 1014 521 1084.5 c 128,-1,107
 494 1155 494 1155 494 1233 c 0,108,109
 494 1342 494 1342 533 1416 c 128,-1,110
 572 1490 572 1490 633 1535 c 128,-1,111
 694 1580 694 1580 769.5 1599 c 128,-1,112
 845 1618 845 1618 918 1618 c 0,113,114
 933 1618 933 1618 948 1617 c 128,-1,115
 963 1616 963 1616 979 1614 c 1,116,117
 988 1671 988 1671 997 1716.5 c 128,-1,118
 1006 1762 1006 1762 1012 1790 c 0,119,120
 1018 1822 1018 1822 1027 1835.5 c 128,-1,121
 1036 1849 1036 1849 1049 1849 c 0,0,1
1083 197 m 0,122,123
 1083 264 1083 264 1065 324 c 128,-1,124
 1047 384 1047 384 1016 439 c 128,-1,125
 985 494 985 494 944 545.5 c 128,-1,126
 903 597 903 597 858 647 c 1,127,-1
 694 -92 l 1,128,129
 719 -98 719 -98 745 -102 c 128,-1,130
 771 -106 771 -106 799 -106 c 0,131,132
 865 -106 865 -106 917.5 -84.5 c 128,-1,133
 970 -63 970 -63 1007 -23 c 128,-1,134
 1044 17 1044 17 1063.5 72.5 c 128,-1,135
 1083 128 1083 128 1083 197 c 0,122,123
743 1378 m 0,136,137
 743 1338 743 1338 753.5 1299.5 c 128,-1,138
 764 1261 764 1261 782 1223.5 c 128,-1,139
 800 1186 800 1186 825 1148.5 c 128,-1,140
 850 1111 850 1111 879 1073 c 1,141,-1
 973 1571 l 1,142,143
 965 1573 965 1573 955 1574 c 128,-1,144
 945 1575 945 1575 936 1575 c 0,145,146
 893 1575 893 1575 857.5 1562 c 128,-1,147
 822 1549 822 1549 796.5 1524 c 128,-1,148
 771 1499 771 1499 757 1462.5 c 128,-1,149
 743 1426 743 1426 743 1378 c 0,136,137
EndSplineSet
EndChar

StartChar: percent
Encoding: 37 37 8
Width: 1616
GlyphClass: 3
Flags: W
LayerCount: 2
Back
Fore
SplineSet
459 1888 m 0,0,1
 539 1888 539 1888 603.5 1864 c 128,-1,2
 668 1840 668 1840 713 1794.5 c 128,-1,3
 758 1749 758 1749 782.5 1684 c 128,-1,4
 807 1619 807 1619 807 1538 c 0,5,6
 807 1433 807 1433 772.5 1363 c 128,-1,7
 738 1293 738 1293 685 1251 c 128,-1,8
 632 1209 632 1209 569 1191.5 c 128,-1,9
 506 1174 506 1174 449 1174 c 0,10,11
 388 1174 388 1174 327.5 1194.5 c 128,-1,12
 267 1215 267 1215 219 1258.5 c 128,-1,13
 171 1302 171 1302 141 1369.5 c 128,-1,14
 111 1437 111 1437 111 1532 c 0,15,16
 111 1623 111 1623 138.5 1690.5 c 128,-1,17
 166 1758 166 1758 213.5 1801.5 c 128,-1,18
 261 1845 261 1845 324 1866.5 c 128,-1,19
 387 1888 387 1888 459 1888 c 0,0,1
446 1839 m 0,20,21
 409 1839 409 1839 382 1823 c 128,-1,22
 355 1807 355 1807 337.5 1778.5 c 128,-1,23
 320 1750 320 1750 311.5 1710.5 c 128,-1,24
 303 1671 303 1671 303 1624 c 0,25,26
 303 1537 303 1537 316.5 1463 c 128,-1,27
 330 1389 330 1389 355.5 1335 c 128,-1,28
 381 1281 381 1281 417.5 1251 c 128,-1,29
 454 1221 454 1221 500 1221 c 0,30,31
 540 1221 540 1221 567 1244 c 128,-1,32
 594 1267 594 1267 610 1304.5 c 128,-1,33
 626 1342 626 1342 632.5 1389.5 c 128,-1,34
 639 1437 639 1437 639 1485 c 0,35,36
 639 1539 639 1539 631 1601.5 c 128,-1,37
 623 1664 623 1664 601.5 1716.5 c 128,-1,38
 580 1769 580 1769 542.5 1804 c 128,-1,39
 505 1839 505 1839 446 1839 c 0,20,21
1186 846 m 0,40,41
 1268 846 1268 846 1337 818 c 128,-1,42
 1406 790 1406 790 1456.5 741 c 128,-1,43
 1507 692 1507 692 1535 624.5 c 128,-1,44
 1563 557 1563 557 1563 479 c 0,45,46
 1563 379 1563 379 1529.5 303.5 c 128,-1,47
 1496 228 1496 228 1438.5 177.5 c 128,-1,48
 1381 127 1381 127 1305 101.5 c 128,-1,49
 1229 76 1229 76 1145 76 c 0,50,51
 1070 76 1070 76 1004.5 97.5 c 128,-1,52
 939 119 939 119 890.5 163 c 128,-1,53
 842 207 842 207 814 274 c 128,-1,54
 786 341 786 341 786 432 c 0,55,56
 786 537 786 537 820.5 615 c 128,-1,57
 855 693 855 693 911.5 744.5 c 128,-1,58
 968 796 968 796 1039.5 821 c 128,-1,59
 1111 846 1111 846 1186 846 c 0,40,41
1180 795 m 0,60,61
 1136 795 1136 795 1097.5 773.5 c 128,-1,62
 1059 752 1059 752 1030 707 c 128,-1,63
 1001 662 1001 662 984 593 c 128,-1,64
 967 524 967 524 967 430 c 0,65,66
 967 359 967 359 982.5 303.5 c 128,-1,67
 998 248 998 248 1025 210 c 128,-1,68
 1052 172 1052 172 1088.5 152.5 c 128,-1,69
 1125 133 1125 133 1167 133 c 0,70,71
 1219 133 1219 133 1256.5 158 c 128,-1,72
 1294 183 1294 183 1319 228.5 c 128,-1,73
 1344 274 1344 274 1356 339 c 128,-1,74
 1368 404 1368 404 1368 485 c 0,75,76
 1368 570 1368 570 1354 629 c 128,-1,77
 1340 688 1340 688 1315 725 c 128,-1,78
 1290 762 1290 762 1255.5 778.5 c 128,-1,79
 1221 795 1221 795 1180 795 c 0,60,61
1398 1903 m 0,80,81
 1415 1903 1415 1903 1415 1882 c 0,82,83
 1415 1869 1415 1869 1400.5 1839.5 c 128,-1,84
 1386 1810 1386 1810 1362.5 1770 c 128,-1,85
 1339 1730 1339 1730 1309.5 1684 c 128,-1,86
 1280 1638 1280 1638 1249.5 1593 c 128,-1,87
 1219 1548 1219 1548 1190.5 1507.5 c 128,-1,88
 1162 1467 1162 1467 1142 1438 c 0,89,90
 1107 1388 1107 1388 1057 1318 c 128,-1,91
 1007 1248 1007 1248 948 1166 c 128,-1,92
 889 1084 889 1084 824 995 c 128,-1,93
 759 906 759 906 694.5 817 c 128,-1,94
 630 728 630 728 568.5 644 c 128,-1,95
 507 560 507 560 455 489.5 c 128,-1,96
 403 419 403 419 364 365 c 128,-1,97
 325 311 325 311 305 283 c 0,98,99
 266 227 266 227 228.5 176.5 c 128,-1,100
 191 126 191 126 163 84 c 0,101,102
 131 38 131 38 108 10 c 128,-1,103
 85 -18 85 -18 65 -18 c 0,104,105
 56 -18 56 -18 49.5 -13 c 128,-1,106
 43 -8 43 -8 43 6 c 0,107,108
 43 31 43 31 73.5 83 c 128,-1,109
 104 135 104 135 155 207 c 0,110,111
 212 287 212 287 278.5 379.5 c 128,-1,112
 345 472 345 472 417 578 c 0,113,114
 473 659 473 659 542 755.5 c 128,-1,115
 611 852 611 852 686 955.5 c 128,-1,116
 761 1059 761 1059 838.5 1165.5 c 128,-1,117
 916 1272 916 1272 990 1373 c 128,-1,118
 1064 1474 1064 1474 1131 1566 c 128,-1,119
 1198 1658 1198 1658 1251 1733 c 0,120,121
 1278 1770 1278 1770 1300 1801.5 c 128,-1,122
 1322 1833 1322 1833 1340 1855.5 c 128,-1,123
 1358 1878 1358 1878 1372.5 1890.5 c 128,-1,124
 1387 1903 1387 1903 1398 1903 c 0,80,81
EndSplineSet
Ligature2: "'frac' Diagonal Fractions lookup 1 subtable" zero fraction zero
Ligature2: "'frac' Diagonal Fractions lookup 1 subtable" zero slash zero
EndChar

StartChar: ampersand
Encoding: 38 38 9
Width: 1585
GlyphClass: 2
Flags: W
LayerCount: 2
Back
Fore
SplineSet
668 1786 m 0,0,1
 732 1786 732 1786 778 1768 c 128,-1,2
 824 1750 824 1750 854 1719 c 128,-1,3
 884 1688 884 1688 898.5 1648 c 128,-1,4
 913 1608 913 1608 913 1565 c 0,5,6
 913 1480 913 1480 878 1403 c 128,-1,7
 843 1326 843 1326 788 1252 c 128,-1,8
 733 1178 733 1178 666.5 1105 c 128,-1,9
 600 1032 600 1032 537 954 c 1,10,11
 577 870 577 870 621 793.5 c 128,-1,12
 665 717 665 717 705.5 655 c 128,-1,13
 746 593 746 593 779.5 547 c 128,-1,14
 813 501 813 501 831 477 c 0,15,16
 846 457 846 457 869 430 c 128,-1,17
 892 403 892 403 921 371.5 c 128,-1,18
 950 340 950 340 984.5 306.5 c 128,-1,19
 1019 273 1019 273 1055 240 c 1,20,21
 1098 289 1098 289 1130 344.5 c 128,-1,22
 1162 400 1162 400 1183 456 c 128,-1,23
 1204 512 1204 512 1214.5 566.5 c 128,-1,24
 1225 621 1225 621 1225 668 c 0,25,26
 1225 766 1225 766 1196 807 c 128,-1,27
 1167 848 1167 848 1122 848 c 0,28,29
 1090 848 1090 848 1046 838.5 c 128,-1,30
 1002 829 1002 829 956.5 818 c 128,-1,31
 911 807 911 807 870 797.5 c 128,-1,32
 829 788 829 788 803 788 c 0,33,34
 787 788 787 788 777.5 793 c 128,-1,35
 768 798 768 798 768 809 c 0,36,37
 768 822 768 822 786.5 828.5 c 128,-1,38
 805 835 805 835 842 844.5 c 128,-1,39
 879 854 879 854 934.5 872 c 128,-1,40
 990 890 990 890 1065 926 c 0,41,42
 1127 956 1127 956 1170 989.5 c 128,-1,43
 1213 1023 1213 1023 1242 1051.5 c 128,-1,44
 1271 1080 1271 1080 1289 1099 c 128,-1,45
 1307 1118 1307 1118 1319 1118 c 0,46,47
 1330 1118 1330 1118 1338.5 1104 c 128,-1,48
 1347 1090 1347 1090 1353 1066.5 c 128,-1,49
 1359 1043 1359 1043 1362.5 1011.5 c 128,-1,50
 1366 980 1366 980 1366 946 c 0,51,52
 1366 842 1366 842 1350 738 c 128,-1,53
 1334 634 1334 634 1302 536.5 c 128,-1,54
 1270 439 1270 439 1221.5 351.5 c 128,-1,55
 1173 264 1173 264 1108 193 c 1,56,57
 1142 164 1142 164 1175.5 139.5 c 128,-1,58
 1209 115 1209 115 1241 97 c 128,-1,59
 1273 79 1273 79 1302.5 69 c 128,-1,60
 1332 59 1332 59 1358 59 c 0,61,62
 1380 59 1380 59 1399.5 72.5 c 128,-1,63
 1419 86 1419 86 1436 107 c 128,-1,64
 1453 128 1453 128 1467.5 151.5 c 128,-1,65
 1482 175 1482 175 1494 196 c 128,-1,66
 1506 217 1506 217 1516 230.5 c 128,-1,67
 1526 244 1526 244 1534 244 c 0,68,69
 1544 244 1544 244 1544 227 c 0,70,71
 1544 212 1544 212 1530.5 174 c 128,-1,72
 1517 136 1517 136 1495.5 88.5 c 128,-1,73
 1474 41 1474 41 1446 -10.5 c 128,-1,74
 1418 -62 1418 -62 1389.5 -105 c 128,-1,75
 1361 -148 1361 -148 1334.5 -175.5 c 128,-1,76
 1308 -203 1308 -203 1288 -203 c 0,77,78
 1270 -203 1270 -203 1237 -189.5 c 128,-1,79
 1204 -176 1204 -176 1158 -146 c 128,-1,80
 1112 -116 1112 -116 1054.5 -67 c 128,-1,81
 997 -18 997 -18 930 53 c 1,82,83
 859 15 859 15 776.5 -7 c 128,-1,84
 694 -29 694 -29 598 -29 c 0,85,86
 481 -29 481 -29 383.5 2 c 128,-1,87
 286 33 286 33 216 94 c 128,-1,88
 146 155 146 155 107 246 c 128,-1,89
 68 337 68 337 68 457 c 0,90,91
 68 538 68 538 89 611 c 128,-1,92
 110 684 110 684 146 751 c 128,-1,93
 182 818 182 818 230.5 880 c 128,-1,94
 279 942 279 942 334 999 c 1,95,96
 279 1176 279 1176 279 1356 c 0,97,98
 279 1459 279 1459 308.5 1539.5 c 128,-1,99
 338 1620 338 1620 390 1674.5 c 128,-1,100
 442 1729 442 1729 513.5 1757.5 c 128,-1,101
 585 1786 585 1786 668 1786 c 0,0,1
727 291 m 0,102,103
 531 548 531 548 418 788 c 1,104,105
 378 717 378 717 354 641.5 c 128,-1,106
 330 566 330 566 330 481 c 0,107,108
 330 391 330 391 353.5 312.5 c 128,-1,109
 377 234 377 234 422.5 176.5 c 128,-1,110
 468 119 468 119 534 86 c 128,-1,111
 600 53 600 53 684 53 c 0,112,113
 740 53 740 53 790 66 c 128,-1,114
 840 79 840 79 885 100 c 1,115,116
 850 142 850 142 808.5 188.5 c 128,-1,117
 767 235 767 235 727 291 c 0,102,103
406 1446 m 0,118,119
 406 1367 406 1367 421.5 1288 c 128,-1,120
 437 1209 437 1209 465 1128 c 1,121,122
 529 1189 529 1189 587 1249.5 c 128,-1,123
 645 1310 645 1310 688 1369.5 c 128,-1,124
 731 1429 731 1429 756.5 1488.5 c 128,-1,125
 782 1548 782 1548 782 1608 c 0,126,127
 782 1671 782 1671 747 1711 c 128,-1,128
 712 1751 712 1751 643 1751 c 0,129,130
 599 1751 599 1751 556.5 1734.5 c 128,-1,131
 514 1718 514 1718 480.5 1682 c 128,-1,132
 447 1646 447 1646 426.5 1588 c 128,-1,133
 406 1530 406 1530 406 1446 c 0,118,119
EndSplineSet
EndChar

StartChar: quotesingle
Encoding: 39 39 10
Width: 358
GlyphClass: 2
Flags: W
LayerCount: 2
Back
Fore
SplineSet
178 1597 m 0,0,1
 216 1597 216 1597 235 1567.5 c 128,-1,2
 254 1538 254 1538 254 1475 c 0,3,4
 254 1450 254 1450 253 1401.5 c 128,-1,5
 252 1353 252 1353 249.5 1294.5 c 128,-1,6
 247 1236 247 1236 244 1174.5 c 128,-1,7
 241 1113 241 1113 236.5 1062.5 c 128,-1,8
 232 1012 232 1012 226.5 980 c 128,-1,9
 221 948 221 948 215 948 c 0,10,11
 208 948 208 948 197 979.5 c 128,-1,12
 186 1011 186 1011 174 1060.5 c 128,-1,13
 162 1110 162 1110 150 1171 c 128,-1,14
 138 1232 138 1232 128 1291.5 c 128,-1,15
 118 1351 118 1351 112 1402 c 128,-1,16
 106 1453 106 1453 106 1483 c 0,17,18
 106 1542 106 1542 123.5 1569.5 c 128,-1,19
 141 1597 141 1597 178 1597 c 0,0,1
EndSplineSet
EndChar

StartChar: parenleft
Encoding: 40 40 11
Width: 883
GlyphClass: 2
Flags: W
LayerCount: 2
Back
Fore
SplineSet
504 2038 m 0,0,1
 514 2038 514 2038 514 2025 c 0,2,3
 514 2016 514 2016 499 1987.5 c 128,-1,4
 484 1959 484 1959 461 1914 c 128,-1,5
 438 1869 438 1869 411 1809 c 128,-1,6
 384 1749 384 1749 360 1677 c 0,7,8
 339 1612 339 1612 317 1525 c 128,-1,9
 295 1438 295 1438 277.5 1328 c 128,-1,10
 260 1218 260 1218 249 1085 c 128,-1,11
 238 952 238 952 238 795 c 0,12,13
 238 631 238 631 261 482.5 c 128,-1,14
 284 334 284 334 320.5 204 c 128,-1,15
 357 74 357 74 401 -35 c 128,-1,16
 445 -144 445 -144 487 -229 c 0,17,18
 565 -388 565 -388 636.5 -493.5 c 128,-1,19
 708 -599 708 -599 762.5 -666 c 128,-1,20
 817 -733 817 -733 850 -769 c 128,-1,21
 883 -805 883 -805 883 -825 c 0,22,23
 883 -835 883 -835 875.5 -838.5 c 128,-1,24
 868 -842 868 -842 862 -842 c 0,25,26
 842 -842 842 -842 800 -819.5 c 128,-1,27
 758 -797 758 -797 702 -752.5 c 128,-1,28
 646 -708 646 -708 580 -641 c 128,-1,29
 514 -574 514 -574 446 -485 c 0,30,31
 412 -440 412 -440 367 -376 c 128,-1,32
 322 -312 322 -312 275 -230 c 128,-1,33
 228 -148 228 -148 183 -49 c 128,-1,34
 138 50 138 50 102.5 167 c 128,-1,35
 67 284 67 284 45 417.5 c 128,-1,36
 23 551 23 551 23 702 c 0,37,38
 23 907 23 907 54.5 1085.5 c 128,-1,39
 86 1264 86 1264 134.5 1412.5 c 128,-1,40
 183 1561 183 1561 241.5 1677.5 c 128,-1,41
 300 1794 300 1794 353.5 1874 c 128,-1,42
 407 1954 407 1954 448 1996 c 128,-1,43
 489 2038 489 2038 504 2038 c 0,0,1
EndSplineSet
EndChar

StartChar: parenright
Encoding: 41 41 12
Width: 909
GlyphClass: 2
Flags: W
LayerCount: 2
Back
Fore
SplineSet
150 1532 m 0,0,1
 187 1532 187 1532 256.5 1509 c 128,-1,2
 326 1486 326 1486 408 1437.5 c 128,-1,3
 490 1389 490 1389 575.5 1313 c 128,-1,4
 661 1237 661 1237 730.5 1131 c 128,-1,5
 800 1025 800 1025 844.5 886.5 c 128,-1,6
 889 748 889 748 889 575 c 0,7,8
 889 440 889 440 861 324 c 128,-1,9
 833 208 833 208 785.5 110.5 c 128,-1,10
 738 13 738 13 675.5 -67.5 c 128,-1,11
 613 -148 613 -148 544.5 -211.5 c 128,-1,12
 476 -275 476 -275 405 -321.5 c 128,-1,13
 334 -368 334 -368 270.5 -398.5 c 128,-1,14
 207 -429 207 -429 154 -444 c 128,-1,15
 101 -459 101 -459 68 -459 c 0,16,17
 20 -459 20 -459 20 -438 c 0,18,19
 20 -425 20 -425 34.5 -414.5 c 128,-1,20
 49 -404 49 -404 75 -391.5 c 128,-1,21
 101 -379 101 -379 136.5 -362.5 c 128,-1,22
 172 -346 172 -346 214.5 -320 c 128,-1,23
 257 -294 257 -294 304 -257.5 c 128,-1,24
 351 -221 351 -221 401 -168 c 0,25,26
 481 -83 481 -83 531 8 c 128,-1,27
 581 99 581 99 609.5 190.5 c 128,-1,28
 638 282 638 282 648.5 370 c 128,-1,29
 659 458 659 458 659 537 c 0,30,31
 659 585 659 585 652.5 651.5 c 128,-1,32
 646 718 646 718 630 791.5 c 128,-1,33
 614 865 614 865 587.5 941 c 128,-1,34
 561 1017 561 1017 522 1085 c 0,35,36
 476 1165 476 1165 428.5 1224.5 c 128,-1,37
 381 1284 381 1284 336.5 1326.5 c 128,-1,38
 292 1369 292 1369 253.5 1398 c 128,-1,39
 215 1427 215 1427 186 1447.5 c 128,-1,40
 157 1468 157 1468 140 1482.5 c 128,-1,41
 123 1497 123 1497 123 1511 c 0,42,43
 123 1532 123 1532 150 1532 c 0,0,1
EndSplineSet
EndChar

StartChar: asterisk
Encoding: 42 42 13
Width: 1004
GlyphClass: 2
Flags: W
LayerCount: 2
Back
Fore
SplineSet
481 1878 m 0,0,1
 519 1878 519 1878 541 1851.5 c 128,-1,2
 563 1825 563 1825 569 1780 c 0,3,4
 573 1753 573 1753 576.5 1716.5 c 128,-1,5
 580 1680 580 1680 582.5 1640.5 c 128,-1,6
 585 1601 585 1601 587.5 1562.5 c 128,-1,7
 590 1524 590 1524 593 1493.5 c 128,-1,8
 596 1463 596 1463 599 1444 c 128,-1,9
 602 1425 602 1425 606 1425 c 256,10,11
 610 1425 610 1425 621 1446 c 128,-1,12
 632 1467 632 1467 648 1498 c 128,-1,13
 664 1529 664 1529 684.5 1565.5 c 128,-1,14
 705 1602 705 1602 729.5 1633 c 128,-1,15
 754 1664 754 1664 781.5 1685 c 128,-1,16
 809 1706 809 1706 838 1706 c 0,17,18
 869 1706 869 1706 882 1689.5 c 128,-1,19
 895 1673 895 1673 895 1647 c 0,20,21
 895 1618 895 1618 874.5 1588 c 128,-1,22
 854 1558 854 1558 823 1530 c 128,-1,23
 792 1502 792 1502 756.5 1476.5 c 128,-1,24
 721 1451 721 1451 690 1430.5 c 128,-1,25
 659 1410 659 1410 638.5 1395.5 c 128,-1,26
 618 1381 618 1381 618 1374 c 0,27,28
 618 1364 618 1364 637.5 1348 c 128,-1,29
 657 1332 657 1332 686.5 1311 c 128,-1,30
 716 1290 716 1290 750.5 1265 c 128,-1,31
 785 1240 785 1240 814.5 1212.5 c 128,-1,32
 844 1185 844 1185 863.5 1154.5 c 128,-1,33
 883 1124 883 1124 883 1092 c 0,34,35
 883 1058 883 1058 864.5 1035 c 128,-1,36
 846 1012 846 1012 811 1012 c 0,37,38
 779 1012 779 1012 753.5 1029 c 128,-1,39
 728 1046 728 1046 707 1075 c 0,40,41
 680 1112 680 1112 658 1154 c 128,-1,42
 636 1196 636 1196 619 1231 c 128,-1,43
 602 1266 602 1266 590.5 1289.5 c 128,-1,44
 579 1313 579 1313 573 1313 c 256,45,46
 567 1313 567 1313 551 1295.5 c 128,-1,47
 535 1278 535 1278 513.5 1252 c 128,-1,48
 492 1226 492 1226 465.5 1195 c 128,-1,49
 439 1164 439 1164 412 1138 c 128,-1,50
 385 1112 385 1112 358.5 1094.5 c 128,-1,51
 332 1077 332 1077 311 1077 c 256,52,53
 290 1077 290 1077 274 1089.5 c 128,-1,54
 258 1102 258 1102 258 1128 c 0,55,56
 258 1153 258 1153 277.5 1178.5 c 128,-1,57
 297 1204 297 1204 326.5 1228 c 128,-1,58
 356 1252 356 1252 390 1273.5 c 128,-1,59
 424 1295 424 1295 453.5 1312 c 128,-1,60
 483 1329 483 1329 502.5 1341.5 c 128,-1,61
 522 1354 522 1354 522 1360 c 256,62,63
 522 1366 522 1366 504 1366 c 0,64,65
 487 1366 487 1366 457 1365 c 128,-1,66
 427 1364 427 1364 389 1364 c 0,67,68
 349 1364 349 1364 302.5 1364.5 c 128,-1,69
 256 1365 256 1365 211 1370 c 0,70,71
 163 1375 163 1375 129.5 1393.5 c 128,-1,72
 96 1412 96 1412 96 1452 c 0,73,74
 96 1473 96 1473 103 1487 c 128,-1,75
 110 1501 110 1501 121.5 1509.5 c 128,-1,76
 133 1518 133 1518 147 1521 c 128,-1,77
 161 1524 161 1524 176 1524 c 0,78,79
 204 1524 204 1524 242 1514.5 c 128,-1,80
 280 1505 280 1505 320 1491 c 128,-1,81
 360 1477 360 1477 399 1461.5 c 128,-1,82
 438 1446 438 1446 468.5 1432.5 c 128,-1,83
 499 1419 499 1419 518 1411 c 128,-1,84
 537 1403 537 1403 537 1405 c 0,85,86
 537 1412 537 1412 527.5 1436 c 128,-1,87
 518 1460 518 1460 503.5 1494 c 128,-1,88
 489 1528 489 1528 472.5 1568 c 128,-1,89
 456 1608 456 1608 441.5 1648.5 c 128,-1,90
 427 1689 427 1689 417.5 1725.5 c 128,-1,91
 408 1762 408 1762 408 1788 c 0,92,93
 408 1813 408 1813 414.5 1830.5 c 128,-1,94
 421 1848 421 1848 431.5 1858.5 c 128,-1,95
 442 1869 442 1869 455 1873.5 c 128,-1,96
 468 1878 468 1878 481 1878 c 0,0,1
EndSplineSet
EndChar

StartChar: plus
Encoding: 43 43 14
Width: 903
GlyphClass: 2
Flags: W
LayerCount: 2
Back
Fore
SplineSet
502 1200 m 0,0,1
 516 1200 516 1200 524 1188.5 c 128,-1,2
 532 1177 532 1177 532 1143 c 0,3,4
 532 1131 532 1131 531 1099.5 c 128,-1,5
 530 1068 530 1068 529 1026 c 128,-1,6
 528 984 528 984 527 936.5 c 128,-1,7
 526 889 526 889 526 844 c 0,8,9
 526 809 526 809 526.5 779 c 128,-1,10
 527 749 527 749 530 727 c 0,11,12
 533 702 533 702 555 702 c 0,13,14
 580 702 580 702 607 705.5 c 128,-1,15
 634 709 634 709 660 713.5 c 128,-1,16
 686 718 686 718 711 721.5 c 128,-1,17
 736 725 736 725 756 725 c 0,18,19
 782 725 782 725 791.5 717 c 128,-1,20
 801 709 801 709 801 696 c 0,21,22
 801 667 801 667 754 657 c 0,23,24
 734 653 734 653 708.5 649.5 c 128,-1,25
 683 646 683 646 657.5 643 c 128,-1,26
 632 640 632 640 608.5 637 c 128,-1,27
 585 634 585 634 569 631 c 0,28,29
 557 628 557 628 549 621.5 c 128,-1,30
 541 615 541 615 541 590 c 0,31,32
 541 574 541 574 544 542 c 128,-1,33
 547 510 547 510 551.5 470 c 128,-1,34
 556 430 556 430 561.5 386.5 c 128,-1,35
 567 343 567 343 571.5 303.5 c 128,-1,36
 576 264 576 264 579 232.5 c 128,-1,37
 582 201 582 201 582 186 c 0,38,39
 582 155 582 155 572 144 c 128,-1,40
 562 133 562 133 551 133 c 0,41,42
 537 133 537 133 527 144.5 c 128,-1,43
 517 156 517 156 512 184 c 0,44,45
 510 198 510 198 506.5 225.5 c 128,-1,46
 503 253 503 253 499 288 c 128,-1,47
 495 323 495 323 490.5 362.5 c 128,-1,48
 486 402 486 402 481 440 c 128,-1,49
 476 478 476 478 471.5 512 c 128,-1,50
 467 546 467 546 463 571 c 0,51,52
 458 600 458 600 447 609 c 128,-1,53
 436 618 436 618 418 618 c 0,54,55
 398 618 398 618 361.5 616.5 c 128,-1,56
 325 615 325 615 284.5 613.5 c 128,-1,57
 244 612 244 612 206.5 611 c 128,-1,58
 169 610 169 610 147 610 c 0,59,60
 123 610 123 610 111.5 622 c 128,-1,61
 100 634 100 634 100 651 c 0,62,63
 100 670 100 670 114.5 680 c 128,-1,64
 129 690 129 690 154 692 c 0,65,66
 185 694 185 694 220 695 c 128,-1,67
 255 696 255 696 287.5 696 c 128,-1,68
 320 696 320 696 348.5 697 c 128,-1,69
 377 698 377 698 395 700 c 0,70,71
 432 705 432 705 446 720 c 128,-1,72
 460 735 460 735 463 772 c 0,73,74
 468 819 468 819 469.5 864 c 128,-1,75
 471 909 471 909 471 952 c 0,76,77
 471 1009 471 1009 469 1058 c 128,-1,78
 467 1107 467 1107 467 1139 c 0,79,80
 467 1200 467 1200 502 1200 c 0,0,1
EndSplineSet
EndChar

StartChar: comma
Encoding: 44 44 15
Width: 516
GlyphClass: 2
Flags: W
LayerCount: 2
Back
Fore
SplineSet
248 330 m 0,0,1
 293 330 293 330 324.5 314 c 128,-1,2
 356 298 356 298 376 271 c 128,-1,3
 396 244 396 244 405 209.5 c 128,-1,4
 414 175 414 175 414 139 c 0,5,6
 414 82 414 82 399 24.5 c 128,-1,7
 384 -33 384 -33 360 -87 c 128,-1,8
 336 -141 336 -141 306.5 -187.5 c 128,-1,9
 277 -234 277 -234 248.5 -269 c 128,-1,10
 220 -304 220 -304 196 -324 c 128,-1,11
 172 -344 172 -344 158 -344 c 0,12,13
 141 -344 141 -344 141 -328 c 0,14,15
 141 -319 141 -319 147.5 -308.5 c 128,-1,16
 154 -298 154 -298 165 -283.5 c 128,-1,17
 176 -269 176 -269 189.5 -250 c 128,-1,18
 203 -231 203 -231 217 -207 c 0,19,20
 233 -179 233 -179 245.5 -149 c 128,-1,21
 258 -119 258 -119 258 -88 c 0,22,23
 258 -62 258 -62 246.5 -41 c 128,-1,24
 235 -20 235 -20 217.5 -1 c 128,-1,25
 200 18 200 18 180 36.5 c 128,-1,26
 160 55 160 55 142.5 76.5 c 128,-1,27
 125 98 125 98 113.5 124 c 128,-1,28
 102 150 102 150 102 184 c 0,29,30
 102 217 102 217 112.5 244 c 128,-1,31
 123 271 123 271 142.5 290 c 128,-1,32
 162 309 162 309 189 319.5 c 128,-1,33
 216 330 216 330 248 330 c 0,0,1
EndSplineSet
EndChar

StartChar: period
Encoding: 46 46 17
Width: 489
GlyphClass: 2
Flags: W
LayerCount: 2
Back
Fore
SplineSet
248 260 m 0,0,1
 286 260 286 260 312.5 246.5 c 128,-1,2
 339 233 339 233 355.5 211.5 c 128,-1,3
 372 190 372 190 379.5 163.5 c 128,-1,4
 387 137 387 137 387 111 c 0,5,6
 387 65 387 65 376 31 c 128,-1,7
 365 -3 365 -3 346 -25 c 128,-1,8
 327 -47 327 -47 301 -57.5 c 128,-1,9
 275 -68 275 -68 246 -68 c 0,10,11
 215 -68 215 -68 189 -57 c 128,-1,12
 163 -46 163 -46 143.5 -25 c 128,-1,13
 124 -4 124 -4 113 25.5 c 128,-1,14
 102 55 102 55 102 92 c 0,15,16
 102 131 102 131 113 162 c 128,-1,17
 124 193 124 193 143.5 214.5 c 128,-1,18
 163 236 163 236 189.5 248 c 128,-1,19
 216 260 216 260 248 260 c 0,0,1
EndSplineSet
EndChar

StartChar: slash
Encoding: 47 47 18
Width: 1415
GlyphClass: 2
Flags: W
LayerCount: 2
Back
Fore
SplineSet
1378 1903 m 0,0,1
 1395 1903 1395 1903 1395 1882 c 0,2,3
 1395 1869 1395 1869 1380.5 1839.5 c 128,-1,4
 1366 1810 1366 1810 1342.5 1770 c 128,-1,5
 1319 1730 1319 1730 1289.5 1684 c 128,-1,6
 1260 1638 1260 1638 1229.5 1593 c 128,-1,7
 1199 1548 1199 1548 1170.5 1507.5 c 128,-1,8
 1142 1467 1142 1467 1122 1438 c 0,9,10
 1087 1388 1087 1388 1037 1318 c 128,-1,11
 987 1248 987 1248 928 1166 c 128,-1,12
 869 1084 869 1084 804 995 c 128,-1,13
 739 906 739 906 674.5 817 c 128,-1,14
 610 728 610 728 548.5 644 c 128,-1,15
 487 560 487 560 435 489.5 c 128,-1,16
 383 419 383 419 344 365 c 128,-1,17
 305 311 305 311 285 283 c 0,18,19
 246 227 246 227 208.5 176.5 c 128,-1,20
 171 126 171 126 143 84 c 0,21,22
 111 38 111 38 88 10 c 128,-1,23
 65 -18 65 -18 45 -18 c 0,24,25
 36 -18 36 -18 29.5 -13 c 128,-1,26
 23 -8 23 -8 23 6 c 0,27,28
 23 31 23 31 53.5 83 c 128,-1,29
 84 135 84 135 135 207 c 0,30,31
 192 287 192 287 258.5 379.5 c 128,-1,32
 325 472 325 472 397 578 c 0,33,34
 453 659 453 659 522 755.5 c 128,-1,35
 591 852 591 852 666 955.5 c 128,-1,36
 741 1059 741 1059 818.5 1165.5 c 128,-1,37
 896 1272 896 1272 970 1373 c 128,-1,38
 1044 1474 1044 1474 1111 1566 c 128,-1,39
 1178 1658 1178 1658 1231 1733 c 0,40,41
 1258 1770 1258 1770 1280 1801.5 c 128,-1,42
 1302 1833 1302 1833 1320 1855.5 c 128,-1,43
 1338 1878 1338 1878 1352.5 1890.5 c 128,-1,44
 1367 1903 1367 1903 1378 1903 c 0,0,1
EndSplineSet
EndChar

StartChar: zero
Encoding: 48 48 19
Width: 1481
GlyphClass: 2
Flags: W
LayerCount: 2
Back
Fore
SplineSet
428 1542 m 0,0,1
 465 1558 465 1558 505.5 1570 c 128,-1,2
 546 1582 546 1582 586.5 1589.5 c 128,-1,3
 627 1597 627 1597 665.5 1600.5 c 128,-1,4
 704 1604 704 1604 737 1604 c 0,5,6
 853 1604 853 1604 952 1575 c 128,-1,7
 1051 1546 1051 1546 1131 1494.5 c 128,-1,8
 1211 1443 1211 1443 1272.5 1372.5 c 128,-1,9
 1334 1302 1334 1302 1375.5 1218 c 128,-1,10
 1417 1134 1417 1134 1438.5 1040 c 128,-1,11
 1460 946 1460 946 1460 848 c 0,12,13
 1460 695 1460 695 1411.5 563.5 c 128,-1,14
 1363 432 1363 432 1272.5 335.5 c 128,-1,15
 1182 239 1182 239 1052.5 184 c 128,-1,16
 923 129 923 129 762 129 c 0,17,18
 673 129 673 129 583.5 148.5 c 128,-1,19
 494 168 494 168 412 209 c 128,-1,20
 330 250 330 250 259 312 c 128,-1,21
 188 374 188 374 135.5 459.5 c 128,-1,22
 83 545 83 545 53 653.5 c 128,-1,23
 23 762 23 762 23 895 c 0,24,25
 23 997 23 997 49.5 1094.5 c 128,-1,26
 76 1192 76 1192 127.5 1277 c 128,-1,27
 179 1362 179 1362 254.5 1430.5 c 128,-1,28
 330 1499 330 1499 428 1542 c 0,0,1
702 1542 m 0,29,30
 588 1542 588 1542 503.5 1493 c 128,-1,31
 419 1444 419 1444 363 1361.5 c 128,-1,32
 307 1279 307 1279 279.5 1170.5 c 128,-1,33
 252 1062 252 1062 252 942 c 0,34,35
 252 776 252 776 289 639.5 c 128,-1,36
 326 503 326 503 396.5 405 c 128,-1,37
 467 307 467 307 569 253 c 128,-1,38
 671 199 671 199 801 199 c 0,39,40
 914 199 914 199 993 247 c 128,-1,41
 1072 295 1072 295 1122 377 c 128,-1,42
 1172 459 1172 459 1194.5 567 c 128,-1,43
 1217 675 1217 675 1217 795 c 0,44,45
 1217 1159 1217 1159 1089 1350.5 c 128,-1,46
 961 1542 961 1542 702 1542 c 0,29,30
EndSplineSet
EndChar

StartChar: one
Encoding: 49 49 20
Width: 1036
GlyphClass: 2
Flags: W
LayerCount: 2
Back
Fore
SplineSet
18 1098 m 0,0,1
 0 1098 0 1098 0 1114 c 0,2,3
 0 1128 0 1128 23 1142.5 c 128,-1,4
 46 1157 46 1157 86 1184 c 128,-1,5
 126 1211 126 1211 180.5 1255 c 128,-1,6
 235 1299 235 1299 299 1372 c 0,7,8
 359 1440 359 1440 394.5 1507.5 c 128,-1,9
 430 1575 430 1575 450.5 1628.5 c 128,-1,10
 471 1682 471 1682 482 1715.5 c 128,-1,11
 493 1749 493 1749 504 1749 c 0,12,13
 512 1749 512 1749 519 1734.5 c 128,-1,14
 526 1720 526 1720 531 1698.5 c 128,-1,15
 536 1677 536 1677 540.5 1652 c 128,-1,16
 545 1627 545 1627 549 1606 c 0,17,18
 553 1586 553 1586 562 1529.5 c 128,-1,19
 571 1473 571 1473 583.5 1393 c 128,-1,20
 596 1313 596 1313 611.5 1215.5 c 128,-1,21
 627 1118 627 1118 643.5 1015.5 c 128,-1,22
 660 913 660 913 677.5 810.5 c 128,-1,23
 695 708 695 708 711 619 c 128,-1,24
 727 530 727 530 741 459.5 c 128,-1,25
 755 389 755 389 766 350 c 0,26,27
 778 305 778 305 791 272 c 128,-1,28
 804 239 804 239 821.5 213.5 c 128,-1,29
 839 188 839 188 862 170 c 128,-1,30
 885 152 885 152 918 137 c 0,31,32
 937 128 937 128 957.5 121.5 c 128,-1,33
 978 115 978 115 995 109.5 c 128,-1,34
 1012 104 1012 104 1023 99 c 128,-1,35
 1034 94 1034 94 1034 88 c 0,36,37
 1034 83 1034 83 1027.5 79.5 c 128,-1,38
 1021 76 1021 76 1004 76 c 0,39,40
 981 76 981 76 943 79 c 128,-1,41
 905 82 905 82 854 82 c 0,42,43
 772 81 772 81 697.5 66 c 128,-1,44
 623 51 623 51 556 29 c 128,-1,45
 489 7 489 7 431 -19 c 128,-1,46
 373 -45 373 -45 326 -67.5 c 128,-1,47
 279 -90 279 -90 243 -104.5 c 128,-1,48
 207 -119 207 -119 184 -119 c 0,49,50
 176 -119 176 -119 170 -115.5 c 128,-1,51
 164 -112 164 -112 164 -102 c 0,52,53
 164 -89 164 -89 186 -73 c 128,-1,54
 208 -57 208 -57 243 -38 c 128,-1,55
 278 -19 278 -19 320 3 c 128,-1,56
 362 25 362 25 403 51 c 0,57,58
 431 69 431 69 451 89 c 128,-1,59
 471 109 471 109 484 134.5 c 128,-1,60
 497 160 497 160 503.5 192.5 c 128,-1,61
 510 225 510 225 510 266 c 0,62,63
 510 297 510 297 507 360.5 c 128,-1,64
 504 424 504 424 497.5 506.5 c 128,-1,65
 491 589 491 589 482.5 682 c 128,-1,66
 474 775 474 775 462.5 864 c 128,-1,67
 451 953 451 953 437.5 1030.5 c 128,-1,68
 424 1108 424 1108 408 1159 c 0,69,70
 403 1174 403 1174 396.5 1189 c 128,-1,71
 390 1204 390 1204 379.5 1216.5 c 128,-1,72
 369 1229 369 1229 354.5 1237 c 128,-1,73
 340 1245 340 1245 319 1245 c 0,74,75
 296 1245 296 1245 268.5 1234 c 128,-1,76
 241 1223 241 1223 211.5 1207 c 128,-1,77
 182 1191 182 1191 152.5 1171.5 c 128,-1,78
 123 1152 123 1152 97 1136 c 128,-1,79
 71 1120 71 1120 50.5 1109 c 128,-1,80
 30 1098 30 1098 18 1098 c 0,0,1
EndSplineSet
EndChar

StartChar: two
Encoding: 50 50 21
Width: 1094
GlyphClass: 2
Flags: W
LayerCount: 2
Back
Fore
SplineSet
504 1665 m 0,0,1
 612 1665 612 1665 693 1632.5 c 128,-1,2
 774 1600 774 1600 828.5 1545 c 128,-1,3
 883 1490 883 1490 910.5 1416.5 c 128,-1,4
 938 1343 938 1343 938 1262 c 0,5,6
 938 1182 938 1182 912.5 1103.5 c 128,-1,7
 887 1025 887 1025 845 951.5 c 128,-1,8
 803 878 803 878 749 811 c 128,-1,9
 695 744 695 744 638 685 c 128,-1,10
 581 626 581 626 525 577.5 c 128,-1,11
 469 529 469 529 423 493 c 128,-1,12
 377 457 377 457 346 435 c 128,-1,13
 315 413 315 413 307 408 c 0,14,15
 282 391 282 391 262 376.5 c 128,-1,16
 242 362 242 362 242 354 c 0,17,18
 242 345 242 345 276 324 c 128,-1,19
 310 303 310 303 364.5 276.5 c 128,-1,20
 419 250 419 250 486.5 221.5 c 128,-1,21
 554 193 554 193 620.5 169.5 c 128,-1,22
 687 146 687 146 746 130.5 c 128,-1,23
 805 115 805 115 842 115 c 256,24,25
 879 115 879 115 908 130 c 128,-1,26
 937 145 937 145 960.5 167 c 128,-1,27
 984 189 984 189 1002 215 c 128,-1,28
 1020 241 1020 241 1034.5 263 c 128,-1,29
 1049 285 1049 285 1060 300 c 128,-1,30
 1071 315 1071 315 1081 315 c 0,31,32
 1089 315 1089 315 1091.5 310.5 c 128,-1,33
 1094 306 1094 306 1094 301 c 0,34,35
 1094 286 1094 286 1082 260 c 128,-1,36
 1070 234 1070 234 1051 202 c 128,-1,37
 1032 170 1032 170 1009 133.5 c 128,-1,38
 986 97 986 97 965 61 c 0,39,40
 939 20 939 20 918.5 -21 c 128,-1,41
 898 -62 898 -62 879.5 -94.5 c 128,-1,42
 861 -127 861 -127 844.5 -147.5 c 128,-1,43
 828 -168 828 -168 811 -168 c 0,44,45
 792 -168 792 -168 754.5 -144 c 128,-1,46
 717 -120 717 -120 665 -82.5 c 128,-1,47
 613 -45 613 -45 549 0.5 c 128,-1,48
 485 46 485 46 412 90 c 0,49,50
 333 138 333 138 265.5 172.5 c 128,-1,51
 198 207 198 207 148.5 231.5 c 128,-1,52
 99 256 99 256 71 272 c 128,-1,53
 43 288 43 288 43 297 c 0,54,55
 43 303 43 303 55 310.5 c 128,-1,56
 67 318 67 318 89 330.5 c 128,-1,57
 111 343 111 343 141 361.5 c 128,-1,58
 171 380 171 380 207 408 c 0,59,60
 340 511 340 511 429.5 612.5 c 128,-1,61
 519 714 519 714 573 811.5 c 128,-1,62
 627 909 627 909 649.5 1001.5 c 128,-1,63
 672 1094 672 1094 672 1180 c 0,64,65
 672 1252 672 1252 653.5 1311 c 128,-1,66
 635 1370 635 1370 599 1412.5 c 128,-1,67
 563 1455 563 1455 510 1478 c 128,-1,68
 457 1501 457 1501 389 1501 c 0,69,70
 326 1501 326 1501 275 1477 c 128,-1,71
 224 1453 224 1453 185.5 1411 c 128,-1,72
 147 1369 147 1369 121 1312.5 c 128,-1,73
 95 1256 95 1256 82 1192 c 0,74,75
 72 1144 72 1144 67 1105 c 128,-1,76
 62 1066 62 1066 58.5 1038 c 128,-1,77
 55 1010 55 1010 50.5 994.5 c 128,-1,78
 46 979 46 979 37 979 c 0,79,80
 12 979 12 979 12 1077 c 0,81,82
 12 1198 12 1198 43.5 1305 c 128,-1,83
 75 1412 75 1412 136.5 1492 c 128,-1,84
 198 1572 198 1572 290 1618.5 c 128,-1,85
 382 1665 382 1665 504 1665 c 0,0,1
EndSplineSet
EndChar

StartChar: three
Encoding: 51 51 22
Width: 1047
GlyphClass: 2
Flags: W
LayerCount: 2
Back
Fore
SplineSet
129 1548 m 0,0,1
 151 1548 151 1548 180.5 1542 c 128,-1,2
 210 1536 210 1536 249.5 1527 c 128,-1,3
 289 1518 289 1518 339.5 1508 c 128,-1,4
 390 1498 390 1498 455 1491 c 0,5,6
 518 1483 518 1483 583 1480 c 128,-1,7
 648 1477 648 1477 702.5 1475 c 128,-1,8
 757 1473 757 1473 795.5 1470 c 128,-1,9
 834 1467 834 1467 844 1460 c 0,10,11
 852 1455 852 1455 854 1449.5 c 128,-1,12
 856 1444 856 1444 856 1436 c 0,13,14
 856 1421 856 1421 840.5 1392.5 c 128,-1,15
 825 1364 825 1364 800 1327 c 128,-1,16
 775 1290 775 1290 743 1247.5 c 128,-1,17
 711 1205 711 1205 678 1162.5 c 128,-1,18
 645 1120 645 1120 613 1080 c 128,-1,19
 581 1040 581 1040 556 1008 c 128,-1,20
 531 976 531 976 515.5 954.5 c 128,-1,21
 500 933 500 933 500 928 c 0,22,23
 500 924 500 924 527 918 c 128,-1,24
 554 912 554 912 599 897.5 c 128,-1,25
 644 883 644 883 701.5 857 c 128,-1,26
 759 831 759 831 821 786 c 0,27,28
 876 747 876 747 918 703 c 128,-1,29
 960 659 960 659 988.5 607 c 128,-1,30
 1017 555 1017 555 1032 493.5 c 128,-1,31
 1047 432 1047 432 1047 358 c 0,32,33
 1047 305 1047 305 1035 248 c 128,-1,34
 1023 191 1023 191 997.5 136 c 128,-1,35
 972 81 972 81 933 32.5 c 128,-1,36
 894 -16 894 -16 840 -53 c 128,-1,37
 786 -90 786 -90 716.5 -111.5 c 128,-1,38
 647 -133 647 -133 561 -133 c 0,39,40
 442 -133 442 -133 354 -99.5 c 128,-1,41
 266 -66 266 -66 203.5 -11 c 128,-1,42
 141 44 141 44 101.5 113 c 128,-1,43
 62 182 62 182 39.5 253.5 c 128,-1,44
 17 325 17 325 8.5 391.5 c 128,-1,45
 0 458 0 458 0 508 c 0,46,47
 0 550 0 550 4.5 573 c 128,-1,48
 9 596 9 596 18 596 c 0,49,50
 24 596 24 596 28 584.5 c 128,-1,51
 32 573 32 573 36.5 550.5 c 128,-1,52
 41 528 41 528 47.5 496 c 128,-1,53
 54 464 54 464 66 424 c 0,54,55
 118 245 118 245 232.5 151 c 128,-1,56
 347 57 347 57 504 57 c 0,57,58
 565 57 565 57 619.5 77.5 c 128,-1,59
 674 98 674 98 715 139 c 128,-1,60
 756 180 756 180 779.5 242 c 128,-1,61
 803 304 803 304 803 387 c 0,62,63
 803 472 803 472 773 540 c 128,-1,64
 743 608 743 608 697.5 660.5 c 128,-1,65
 652 713 652 713 599 751.5 c 128,-1,66
 546 790 546 790 500.5 816.5 c 128,-1,67
 455 843 455 843 425 858 c 128,-1,68
 395 873 395 873 395 879 c 256,69,70
 395 885 395 885 407 900.5 c 128,-1,71
 419 916 419 916 438.5 940 c 128,-1,72
 458 964 458 964 484 996 c 128,-1,73
 510 1028 510 1028 539 1067 c 0,74,75
 551 1084 551 1084 567.5 1107 c 128,-1,76
 584 1130 584 1130 602 1155.5 c 128,-1,77
 620 1181 620 1181 637 1206.5 c 128,-1,78
 654 1232 654 1232 667.5 1254 c 128,-1,79
 681 1276 681 1276 689.5 1292 c 128,-1,80
 698 1308 698 1308 698 1315 c 0,81,82
 698 1321 698 1321 675 1326 c 128,-1,83
 652 1331 652 1331 616.5 1335 c 128,-1,84
 581 1339 581 1339 537.5 1341 c 128,-1,85
 494 1343 494 1343 453 1343 c 0,86,87
 383 1343 383 1343 325.5 1328 c 128,-1,88
 268 1313 268 1313 227 1268 c 0,89,90
 197 1236 197 1236 179 1196.5 c 128,-1,91
 161 1157 161 1157 149 1122.5 c 128,-1,92
 137 1088 137 1088 129.5 1065 c 128,-1,93
 122 1042 122 1042 113 1042 c 0,94,95
 103 1042 103 1042 100.5 1055.5 c 128,-1,96
 98 1069 98 1069 98 1092 c 0,97,98
 98 1121 98 1121 100 1172 c 128,-1,99
 102 1223 102 1223 102 1282 c 0,100,101
 102 1303 102 1303 100.5 1330.5 c 128,-1,102
 99 1358 99 1358 97.5 1386 c 128,-1,103
 96 1414 96 1414 95 1440 c 128,-1,104
 94 1466 94 1466 94 1485 c 0,105,106
 94 1517 94 1517 101.5 1532.5 c 128,-1,107
 109 1548 109 1548 129 1548 c 0,0,1
EndSplineSet
EndChar

StartChar: four
Encoding: 52 52 23
Width: 1460
GlyphClass: 2
Flags: W
LayerCount: 2
Back
Fore
SplineSet
891 1747 m 0,0,1
 907 1747 907 1747 907 1722 c 0,2,3
 907 1713 907 1713 902.5 1697.5 c 128,-1,4
 898 1682 898 1682 891 1662.5 c 128,-1,5
 884 1643 884 1643 877 1621.5 c 128,-1,6
 870 1600 870 1600 864 1579 c 0,7,8
 856 1550 856 1550 852 1517 c 128,-1,9
 848 1484 848 1484 848 1450 c 0,10,11
 848 1399 848 1399 855 1343.5 c 128,-1,12
 862 1288 862 1288 872 1235.5 c 128,-1,13
 882 1183 882 1183 892.5 1136 c 128,-1,14
 903 1089 903 1089 911 1055 c 0,15,16
 945 895 945 895 976.5 770.5 c 128,-1,17
 1008 646 1008 646 1036 543 c 1,18,19
 1051 535 1051 535 1073.5 527.5 c 128,-1,20
 1096 520 1096 520 1121.5 514.5 c 128,-1,21
 1147 509 1147 509 1172.5 505.5 c 128,-1,22
 1198 502 1198 502 1219 502 c 0,23,24
 1246 502 1246 502 1269 521 c 128,-1,25
 1292 540 1292 540 1311 562.5 c 128,-1,26
 1330 585 1330 585 1344.5 604 c 128,-1,27
 1359 623 1359 623 1370 623 c 0,28,29
 1378 623 1378 623 1378 612 c 0,30,31
 1378 602 1378 602 1371 585 c 128,-1,32
 1364 568 1364 568 1353.5 547 c 128,-1,33
 1343 526 1343 526 1330 501.5 c 128,-1,34
 1317 477 1317 477 1305 453 c 0,35,36
 1286 415 1286 415 1273 384.5 c 128,-1,37
 1260 354 1260 354 1250 333 c 128,-1,38
 1240 312 1240 312 1232 300.5 c 128,-1,39
 1224 289 1224 289 1217 289 c 0,40,41
 1203 289 1203 289 1184.5 295 c 128,-1,42
 1166 301 1166 301 1145.5 309.5 c 128,-1,43
 1125 318 1125 318 1105 327.5 c 128,-1,44
 1085 337 1085 337 1067 344 c 1,45,46
 1068 326 1068 326 1071.5 305 c 128,-1,47
 1075 284 1075 284 1079.5 263.5 c 128,-1,48
 1084 243 1084 243 1088.5 225 c 128,-1,49
 1093 207 1093 207 1096 197 c 0,50,51
 1103 166 1103 166 1111 136.5 c 128,-1,52
 1119 107 1119 107 1130 77 c 128,-1,53
 1141 47 1141 47 1156 15 c 128,-1,54
 1171 -17 1171 -17 1192 -51 c 0,55,56
 1210 -80 1210 -80 1232.5 -100.5 c 128,-1,57
 1255 -121 1255 -121 1279 -136 c 128,-1,58
 1303 -151 1303 -151 1325.5 -161 c 128,-1,59
 1348 -171 1348 -171 1366 -178 c 0,60,61
 1381 -184 1381 -184 1396 -190 c 128,-1,62
 1411 -196 1411 -196 1423 -201.5 c 128,-1,63
 1435 -207 1435 -207 1442.5 -213.5 c 128,-1,64
 1450 -220 1450 -220 1450 -227 c 0,65,66
 1450 -232 1450 -232 1445.5 -236 c 128,-1,67
 1441 -240 1441 -240 1432 -240 c 0,68,69
 1411 -240 1411 -240 1370.5 -225.5 c 128,-1,70
 1330 -211 1330 -211 1275.5 -190.5 c 128,-1,71
 1221 -170 1221 -170 1155.5 -149 c 128,-1,72
 1090 -128 1090 -128 1020 -115 c 0,73,74
 961 -104 961 -104 899 -102 c 128,-1,75
 837 -100 837 -100 785.5 -100 c 128,-1,76
 734 -100 734 -100 701 -98 c 128,-1,77
 668 -96 668 -96 668 -84 c 0,78,79
 668 -76 668 -76 681.5 -70.5 c 128,-1,80
 695 -65 695 -65 715.5 -60.5 c 128,-1,81
 736 -56 736 -56 760.5 -52 c 128,-1,82
 785 -48 785 -48 807 -43 c 0,83,84
 881 -28 881 -28 881 41 c 0,85,86
 881 59 881 59 877.5 89 c 128,-1,87
 874 119 874 119 868 154.5 c 128,-1,88
 862 190 862 190 855 229 c 128,-1,89
 848 268 848 268 841 304 c 128,-1,90
 834 340 834 340 827.5 370.5 c 128,-1,91
 821 401 821 401 817 420 c 1,92,93
 778 437 778 437 733.5 457.5 c 128,-1,94
 689 478 689 478 644 499 c 128,-1,95
 599 520 599 520 556 540 c 128,-1,96
 513 560 513 560 477 575 c 0,97,98
 380 617 380 617 295 648.5 c 128,-1,99
 210 680 210 680 146.5 704.5 c 128,-1,100
 83 729 83 729 46.5 747 c 128,-1,101
 10 765 10 765 10 780 c 0,102,103
 10 793 10 793 33.5 819 c 128,-1,104
 57 845 57 845 97.5 883.5 c 128,-1,105
 138 922 138 922 192.5 973.5 c 128,-1,106
 247 1025 247 1025 309 1090 c 0,107,108
 376 1159 376 1159 424.5 1209.5 c 128,-1,109
 473 1260 473 1260 508.5 1298.5 c 128,-1,110
 544 1337 544 1337 570 1366 c 128,-1,111
 596 1395 596 1395 619 1422.5 c 128,-1,112
 642 1450 642 1450 665 1478.5 c 128,-1,113
 688 1507 688 1507 717 1544 c 0,114,115
 765 1604 765 1604 794 1643 c 128,-1,116
 823 1682 823 1682 841 1705.5 c 128,-1,117
 859 1729 859 1729 869.5 1738 c 128,-1,118
 880 1747 880 1747 891 1747 c 0,0,1
641 1350 m 256,119,120
 634 1350 634 1350 617.5 1336.5 c 128,-1,121
 601 1323 601 1323 578 1301.5 c 128,-1,122
 555 1280 555 1280 528.5 1252.5 c 128,-1,123
 502 1225 502 1225 475.5 1196.5 c 128,-1,124
 449 1168 449 1168 425 1140.5 c 128,-1,125
 401 1113 401 1113 383 1092 c 0,126,127
 376 1083 376 1083 360 1064 c 128,-1,128
 344 1045 344 1045 324 1021 c 128,-1,129
 304 997 304 997 283 970.5 c 128,-1,130
 262 944 262 944 244.5 920 c 128,-1,131
 227 896 227 896 216 877 c 128,-1,132
 205 858 205 858 205 850 c 0,133,134
 205 838 205 838 229 821 c 128,-1,135
 253 804 253 804 289.5 784.5 c 128,-1,136
 326 765 326 765 370 745.5 c 128,-1,137
 414 726 414 726 453 711 c 0,138,139
 485 698 485 698 533 678.5 c 128,-1,140
 581 659 581 659 630 639.5 c 128,-1,141
 679 620 679 620 722 604 c 128,-1,142
 765 588 765 588 788 582 c 1,143,144
 783 613 783 613 776 657.5 c 128,-1,145
 769 702 769 702 761 755.5 c 128,-1,146
 753 809 753 809 743.5 869 c 128,-1,147
 734 929 734 929 723 991 c 0,148,149
 717 1024 717 1024 710.5 1063 c 128,-1,150
 704 1102 704 1102 697.5 1142 c 128,-1,151
 691 1182 691 1182 683.5 1219.5 c 128,-1,152
 676 1257 676 1257 669 1286 c 128,-1,153
 662 1315 662 1315 655 1332.5 c 128,-1,154
 648 1350 648 1350 641 1350 c 256,119,120
EndSplineSet
EndChar

StartChar: five
Encoding: 53 53 24
Width: 1552
GlyphClass: 2
Flags: W
LayerCount: 2
Back
Fore
SplineSet
852 1696 m 256,0,1
 867 1696 867 1696 898.5 1681.5 c 128,-1,2
 930 1667 930 1667 971 1644.5 c 128,-1,3
 1012 1622 1012 1622 1058.5 1596.5 c 128,-1,4
 1105 1571 1105 1571 1149.5 1548.5 c 128,-1,5
 1194 1526 1194 1526 1232.5 1511.5 c 128,-1,6
 1271 1497 1271 1497 1296 1497 c 0,7,8
 1347 1497 1347 1497 1382.5 1534 c 128,-1,9
 1418 1571 1418 1571 1456 1634 c 0,10,11
 1490 1688 1490 1688 1506 1709.5 c 128,-1,12
 1522 1731 1522 1731 1536 1731 c 0,13,14
 1542 1731 1542 1731 1547 1726.5 c 128,-1,15
 1552 1722 1552 1722 1552 1710 c 0,16,17
 1552 1693 1552 1693 1543.5 1661 c 128,-1,18
 1535 1629 1535 1629 1521 1588.5 c 128,-1,19
 1507 1548 1507 1548 1488 1501.5 c 128,-1,20
 1469 1455 1469 1455 1448.5 1409 c 128,-1,21
 1428 1363 1428 1363 1407 1321 c 128,-1,22
 1386 1279 1386 1279 1367.5 1247 c 128,-1,23
 1349 1215 1349 1215 1333.5 1196 c 128,-1,24
 1318 1177 1318 1177 1309 1178 c 0,25,26
 1290 1179 1290 1179 1250 1203 c 128,-1,27
 1210 1227 1210 1227 1159.5 1262 c 128,-1,28
 1109 1297 1109 1297 1054 1338 c 128,-1,29
 999 1379 999 1379 950 1414 c 128,-1,30
 901 1449 901 1449 864 1472.5 c 128,-1,31
 827 1496 827 1496 813 1497 c 0,32,33
 803 1498 803 1498 780.5 1467 c 128,-1,34
 758 1436 758 1436 729.5 1389.5 c 128,-1,35
 701 1343 701 1343 670.5 1288 c 128,-1,36
 640 1233 640 1233 615 1185.5 c 128,-1,37
 590 1138 590 1138 573.5 1105 c 128,-1,38
 557 1072 557 1072 557 1069 c 0,39,40
 557 1064 557 1064 579.5 1061.5 c 128,-1,41
 602 1059 602 1059 640 1055 c 128,-1,42
 678 1051 678 1051 729.5 1044 c 128,-1,43
 781 1037 781 1037 840 1022 c 0,44,45
 930 999 930 999 1006.5 954 c 128,-1,46
 1083 909 1083 909 1138 845 c 128,-1,47
 1193 781 1193 781 1224 700.5 c 128,-1,48
 1255 620 1255 620 1255 526 c 0,49,50
 1255 359 1255 359 1202.5 224 c 128,-1,51
 1150 89 1150 89 1059 -7 c 128,-1,52
 968 -103 968 -103 845 -155 c 128,-1,53
 722 -207 722 -207 580 -207 c 0,54,55
 448 -207 448 -207 342.5 -166.5 c 128,-1,56
 237 -126 237 -126 163 -53.5 c 128,-1,57
 89 19 89 19 49.5 121 c 128,-1,58
 10 223 10 223 10 346 c 0,59,60
 10 438 10 438 26 511.5 c 128,-1,61
 42 585 42 585 65.5 636.5 c 128,-1,62
 89 688 89 688 114.5 715.5 c 128,-1,63
 140 743 140 743 158 743 c 0,64,65
 166 743 166 743 168 739.5 c 128,-1,66
 170 736 170 736 170 731 c 0,67,68
 170 723 170 723 163 708 c 128,-1,69
 156 693 156 693 145.5 671.5 c 128,-1,70
 135 650 135 650 124 623.5 c 128,-1,71
 113 597 113 597 104 567 c 0,72,73
 93 527 93 527 86.5 477 c 128,-1,74
 80 427 80 427 80 358 c 0,75,76
 80 251 80 251 117.5 169 c 128,-1,77
 155 87 155 87 219 31.5 c 128,-1,78
 283 -24 283 -24 366 -52 c 128,-1,79
 449 -80 449 -80 541 -80 c 0,80,81
 635 -80 635 -80 717.5 -45 c 128,-1,82
 800 -10 800 -10 860.5 60 c 128,-1,83
 921 130 921 130 956 236 c 128,-1,84
 991 342 991 342 991 483 c 0,85,86
 991 547 991 547 976.5 600 c 128,-1,87
 962 653 962 653 936.5 696 c 128,-1,88
 911 739 911 739 877 772.5 c 128,-1,89
 843 806 843 806 803 831 c 0,90,91
 747 867 747 867 685 889.5 c 128,-1,92
 623 912 623 912 571.5 926 c 128,-1,93
 520 940 520 940 486.5 947.5 c 128,-1,94
 453 955 453 955 453 961 c 0,95,96
 453 979 453 979 496.5 1064.5 c 128,-1,97
 540 1150 540 1150 629 1317 c 0,98,99
 680 1414 680 1414 716 1485 c 128,-1,100
 752 1556 752 1556 777.5 1603 c 128,-1,101
 803 1650 803 1650 820 1673 c 128,-1,102
 837 1696 837 1696 852 1696 c 256,0,1
EndSplineSet
EndChar

StartChar: six
Encoding: 54 54 25
Width: 1225
GlyphClass: 2
Flags: W
LayerCount: 2
Back
Fore
SplineSet
702 1610 m 0,0,1
 781 1610 781 1610 844.5 1594.5 c 128,-1,2
 908 1579 908 1579 958.5 1553.5 c 128,-1,3
 1009 1528 1009 1528 1046.5 1496 c 128,-1,4
 1084 1464 1084 1464 1111 1431.5 c 128,-1,5
 1138 1399 1138 1399 1154.5 1369.5 c 128,-1,6
 1171 1340 1171 1340 1180 1319 c 0,7,8
 1189 1297 1189 1297 1192.5 1277 c 128,-1,9
 1196 1257 1196 1257 1196 1243 c 256,10,11
 1196 1229 1196 1229 1190.5 1224 c 128,-1,12
 1185 1219 1185 1219 1176 1219 c 0,13,14
 1162 1219 1162 1219 1149.5 1236 c 128,-1,15
 1137 1253 1137 1253 1112 1294 c 0,16,17
 1094 1325 1094 1325 1063 1364.5 c 128,-1,18
 1032 1404 1032 1404 985 1439.5 c 128,-1,19
 938 1475 938 1475 874.5 1499.5 c 128,-1,20
 811 1524 811 1524 729 1524 c 0,21,22
 635 1524 635 1524 568 1488.5 c 128,-1,23
 501 1453 501 1453 454.5 1398.5 c 128,-1,24
 408 1344 408 1344 380 1278 c 128,-1,25
 352 1212 352 1212 337.5 1152 c 128,-1,26
 323 1092 323 1092 318 1045 c 128,-1,27
 313 998 313 998 313 981 c 1,28,29
 335 1002 335 1002 370 1029.5 c 128,-1,30
 405 1057 405 1057 451 1082.5 c 128,-1,31
 497 1108 497 1108 553.5 1125.5 c 128,-1,32
 610 1143 610 1143 676 1143 c 0,33,34
 812 1143 812 1143 912 1098.5 c 128,-1,35
 1012 1054 1012 1054 1076.5 979 c 128,-1,36
 1141 904 1141 904 1172.5 805 c 128,-1,37
 1204 706 1204 706 1204 598 c 0,38,39
 1204 462 1204 462 1159.5 354 c 128,-1,40
 1115 246 1115 246 1042 171 c 128,-1,41
 969 96 969 96 875.5 56 c 128,-1,42
 782 16 782 16 684 16 c 0,43,44
 614 16 614 16 538 33.5 c 128,-1,45
 462 51 462 51 389.5 89 c 128,-1,46
 317 127 317 127 251.5 187 c 128,-1,47
 186 247 186 247 136.5 333 c 128,-1,48
 87 419 87 419 58 532 c 128,-1,49
 29 645 29 645 29 788 c 0,50,51
 29 977 29 977 79 1129 c 128,-1,52
 129 1281 129 1281 218.5 1388 c 128,-1,53
 308 1495 308 1495 431.5 1552.5 c 128,-1,54
 555 1610 555 1610 702 1610 c 0,0,1
635 1081 m 0,55,56
 573 1081 573 1081 513 1055 c 128,-1,57
 453 1029 453 1029 405.5 970.5 c 128,-1,58
 358 912 358 912 328.5 818.5 c 128,-1,59
 299 725 299 725 299 590 c 0,60,61
 299 464 299 464 329 367 c 128,-1,62
 359 270 359 270 412 204 c 128,-1,63
 465 138 465 138 536.5 104 c 128,-1,64
 608 70 608 70 692 70 c 0,65,66
 767 70 767 70 827 105.5 c 128,-1,67
 887 141 887 141 929 204.5 c 128,-1,68
 971 268 971 268 993.5 357 c 128,-1,69
 1016 446 1016 446 1016 553 c 0,70,71
 1016 614 1016 614 1010 677 c 128,-1,72
 1004 740 1004 740 988 798.5 c 128,-1,73
 972 857 972 857 945 908.5 c 128,-1,74
 918 960 918 960 875.5 998.5 c 128,-1,75
 833 1037 833 1037 774 1059 c 128,-1,76
 715 1081 715 1081 635 1081 c 0,55,56
EndSplineSet
EndChar

StartChar: seven
Encoding: 55 55 26
Width: 1040
GlyphClass: 2
Flags: W
LayerCount: 2
Back
Fore
SplineSet
27 1497 m 0,0,1
 54 1497 54 1497 93.5 1492 c 128,-1,2
 133 1487 133 1487 187.5 1480.5 c 128,-1,3
 242 1474 242 1474 314 1469 c 128,-1,4
 386 1464 386 1464 479 1464 c 0,5,6
 614 1464 614 1464 713 1477.5 c 128,-1,7
 812 1491 812 1491 878.5 1507 c 128,-1,8
 945 1523 945 1523 982.5 1536.5 c 128,-1,9
 1020 1550 1020 1550 1032 1550 c 0,10,11
 1040 1550 1040 1550 1040 1542 c 0,12,13
 1040 1528 1040 1528 1007.5 1477.5 c 128,-1,14
 975 1427 975 1427 922 1335 c 128,-1,15
 869 1243 869 1243 801.5 1107.5 c 128,-1,16
 734 972 734 972 664 788 c 0,17,18
 618 669 618 669 590 563 c 128,-1,19
 562 457 562 457 546 367 c 128,-1,20
 530 277 530 277 524 205 c 128,-1,21
 518 133 518 133 516 81 c 128,-1,22
 514 29 514 29 513 -0.5 c 128,-1,23
 512 -30 512 -30 508 -35 c 0,24,25
 503 -40 503 -40 489 -41.5 c 128,-1,26
 475 -43 475 -43 454.5 -44.5 c 128,-1,27
 434 -46 434 -46 407.5 -48 c 128,-1,28
 381 -50 381 -50 350 -57 c 0,29,30
 298 -70 298 -70 264.5 -83 c 128,-1,31
 231 -96 231 -96 217 -96 c 0,32,33
 207 -96 207 -96 207 -82 c 0,34,35
 207 -64 207 -64 217 -25.5 c 128,-1,36
 227 13 227 13 243.5 62.5 c 128,-1,37
 260 112 260 112 281 168.5 c 128,-1,38
 302 225 302 225 324 279 c 0,39,40
 368 390 368 390 417.5 496.5 c 128,-1,41
 467 603 467 603 515.5 699 c 128,-1,42
 564 795 564 795 609 877 c 128,-1,43
 654 959 654 959 688 1022 c 128,-1,44
 722 1085 722 1085 742 1125.5 c 128,-1,45
 762 1166 762 1166 762 1178 c 256,46,47
 762 1190 762 1190 736.5 1204.5 c 128,-1,48
 711 1219 711 1219 669.5 1234.5 c 128,-1,49
 628 1250 628 1250 575 1265 c 128,-1,50
 522 1280 522 1280 466.5 1291.5 c 128,-1,51
 411 1303 411 1303 358.5 1310 c 128,-1,52
 306 1317 306 1317 266 1317 c 0,53,54
 215 1317 215 1317 186 1290 c 128,-1,55
 157 1263 157 1263 140.5 1219.5 c 128,-1,56
 124 1176 124 1176 115 1122 c 128,-1,57
 106 1068 106 1068 96 1014 c 0,58,59
 88 974 88 974 83.5 947 c 128,-1,60
 79 920 79 920 68 920 c 0,61,62
 61 920 61 920 58 931 c 128,-1,63
 55 942 55 942 55 973 c 0,64,65
 55 1003 55 1003 54 1042 c 128,-1,66
 53 1081 53 1081 50 1124 c 128,-1,67
 47 1167 47 1167 42.5 1212 c 128,-1,68
 38 1257 38 1257 31 1300 c 0,69,70
 20 1370 20 1370 10 1411 c 128,-1,71
 0 1452 0 1452 0 1470 c 0,72,73
 0 1475 0 1475 4 1486 c 128,-1,74
 8 1497 8 1497 27 1497 c 0,0,1
EndSplineSet
PairPos2: "'kern' Horizontal Kerning lookup 0 per glyph data 1" eight dx=0 dy=0 dh=-72 dv=0 dx=0 dy=0 dh=0 dv=0
PairPos2: "'kern' Horizontal Kerning lookup 0 per glyph data 1" six dx=0 dy=0 dh=-113 dv=0 dx=0 dy=0 dh=0 dv=0
PairPos2: "'kern' Horizontal Kerning lookup 0 per glyph data 1" five dx=0 dy=0 dh=-338 dv=0 dx=0 dy=0 dh=0 dv=0
PairPos2: "'kern' Horizontal Kerning lookup 0 per glyph data 1" four dx=0 dy=0 dh=-297 dv=0 dx=0 dy=0 dh=0 dv=0
PairPos2: "'kern' Horizontal Kerning lookup 0 per glyph data 1" three dx=0 dy=0 dh=-61 dv=0 dx=0 dy=0 dh=0 dv=0
PairPos2: "'kern' Horizontal Kerning lookup 0 per glyph data 1" two dx=0 dy=0 dh=-61 dv=0 dx=0 dy=0 dh=0 dv=0
PairPos2: "'kern' Horizontal Kerning lookup 0 per glyph data 1" one dx=0 dy=0 dh=-164 dv=0 dx=0 dy=0 dh=0 dv=0
PairPos2: "'kern' Horizontal Kerning lookup 0 per glyph data 1" period dx=0 dy=0 dh=-328 dv=0 dx=0 dy=0 dh=0 dv=0
PairPos2: "'kern' Horizontal Kerning lookup 0 per glyph data 1" comma dx=0 dy=0 dh=-328 dv=0 dx=0 dy=0 dh=0 dv=0
EndChar

StartChar: eight
Encoding: 56 56 27
Width: 975
GlyphClass: 2
Flags: W
LayerCount: 2
Back
Fore
SplineSet
496 1606 m 0,0,1
 585 1606 585 1606 649 1581.5 c 128,-1,2
 713 1557 713 1557 754.5 1516.5 c 128,-1,3
 796 1476 796 1476 816 1423 c 128,-1,4
 836 1370 836 1370 836 1313 c 0,5,6
 836 1269 836 1269 826.5 1230 c 128,-1,7
 817 1191 817 1191 801 1157 c 128,-1,8
 785 1123 785 1123 765.5 1095 c 128,-1,9
 746 1067 746 1067 725 1044 c 0,10,11
 676 990 676 990 614 952 c 1,12,13
 712 891 712 891 789 809 c 0,14,15
 822 774 822 774 853.5 731.5 c 128,-1,16
 885 689 885 689 910 639 c 128,-1,17
 935 589 935 589 950 531.5 c 128,-1,18
 965 474 965 474 965 410 c 0,19,20
 965 305 965 305 931 215 c 128,-1,21
 897 125 897 125 834 59 c 128,-1,22
 771 -7 771 -7 682.5 -44.5 c 128,-1,23
 594 -82 594 -82 485 -82 c 0,24,25
 399 -82 399 -82 314.5 -60 c 128,-1,26
 230 -38 230 -38 162.5 13 c 128,-1,27
 95 64 95 64 53.5 147 c 128,-1,28
 12 230 12 230 12 352 c 0,29,30
 12 412 12 412 25 463.5 c 128,-1,31
 38 515 38 515 59.5 558.5 c 128,-1,32
 81 602 81 602 108.5 637.5 c 128,-1,33
 136 673 136 673 165 702 c 0,34,35
 233 768 233 768 319 813 c 1,36,37
 254 859 254 859 203 920 c 0,38,39
 181 946 181 946 160.5 977.5 c 128,-1,40
 140 1009 140 1009 124 1046 c 128,-1,41
 108 1083 108 1083 98 1125 c 128,-1,42
 88 1167 88 1167 88 1214 c 0,43,44
 88 1312 88 1312 122.5 1385.5 c 128,-1,45
 157 1459 157 1459 214 1508 c 128,-1,46
 271 1557 271 1557 344.5 1581.5 c 128,-1,47
 418 1606 418 1606 496 1606 c 0,0,1
580 1001 m 256,48,49
 596 1001 596 1001 628 1023.5 c 128,-1,50
 660 1046 660 1046 692 1087 c 128,-1,51
 724 1128 724 1128 748 1185.5 c 128,-1,52
 772 1243 772 1243 772 1313 c 0,53,54
 772 1363 772 1363 758.5 1405.5 c 128,-1,55
 745 1448 745 1448 718.5 1479.5 c 128,-1,56
 692 1511 692 1511 653 1528.5 c 128,-1,57
 614 1546 614 1546 563 1546 c 0,58,59
 520 1546 520 1546 483.5 1532 c 128,-1,60
 447 1518 447 1518 420 1490 c 128,-1,61
 393 1462 393 1462 377.5 1418.5 c 128,-1,62
 362 1375 362 1375 362 1317 c 0,63,64
 362 1242 362 1242 390 1183.5 c 128,-1,65
 418 1125 418 1125 455 1084.5 c 128,-1,66
 492 1044 492 1044 528 1022.5 c 128,-1,67
 564 1001 564 1001 580 1001 c 256,48,49
406 735 m 0,68,69
 373 735 373 735 327 708 c 128,-1,70
 281 681 281 681 239 629 c 128,-1,71
 197 577 197 577 168 502.5 c 128,-1,72
 139 428 139 428 139 334 c 0,73,74
 139 253 139 253 162.5 184.5 c 128,-1,75
 186 116 186 116 231.5 67 c 128,-1,76
 277 18 277 18 342.5 -9.5 c 128,-1,77
 408 -37 408 -37 492 -37 c 0,78,79
 566 -37 566 -37 623 -14.5 c 128,-1,80
 680 8 680 8 718.5 50.5 c 128,-1,81
 757 93 757 93 777 153.5 c 128,-1,82
 797 214 797 214 797 289 c 0,83,84
 797 349 797 349 780.5 405 c 128,-1,85
 764 461 764 461 735.5 510.5 c 128,-1,86
 707 560 707 560 668.5 601.5 c 128,-1,87
 630 643 630 643 586.5 672.5 c 128,-1,88
 543 702 543 702 496.5 718.5 c 128,-1,89
 450 735 450 735 406 735 c 0,68,69
EndSplineSet
EndChar

StartChar: nine
Encoding: 57 57 28
Width: 1231
GlyphClass: 2
Flags: W
LayerCount: 2
Back
Fore
SplineSet
561 1534 m 0,0,1
 699 1534 699 1534 818 1487.5 c 128,-1,2
 937 1441 937 1441 1024 1351.5 c 128,-1,3
 1111 1262 1111 1262 1160.5 1131 c 128,-1,4
 1210 1000 1210 1000 1210 831 c 0,5,6
 1210 614 1210 614 1150.5 452.5 c 128,-1,7
 1091 291 1091 291 992 184 c 128,-1,8
 893 77 893 77 765.5 24 c 128,-1,9
 638 -29 638 -29 502 -29 c 0,10,11
 397 -29 397 -29 317.5 -5.5 c 128,-1,12
 238 18 238 18 185.5 50 c 128,-1,13
 133 82 133 82 106.5 115 c 128,-1,14
 80 148 80 148 80 166 c 0,15,16
 80 177 80 177 85.5 183.5 c 128,-1,17
 91 190 91 190 102 190 c 0,18,19
 114 190 114 190 131 181 c 128,-1,20
 148 172 148 172 170.5 159 c 128,-1,21
 193 146 193 146 222 130 c 128,-1,22
 251 114 251 114 286.5 101 c 128,-1,23
 322 88 322 88 365.5 79 c 128,-1,24
 409 70 409 70 461 70 c 0,25,26
 550 70 550 70 616.5 96.5 c 128,-1,27
 683 123 683 123 730.5 165.5 c 128,-1,28
 778 208 778 208 808.5 261 c 128,-1,29
 839 314 839 314 856.5 367 c 128,-1,30
 874 420 874 420 880.5 467.5 c 128,-1,31
 887 515 887 515 887 547 c 0,32,33
 887 559 887 559 885.5 569.5 c 128,-1,34
 884 580 884 580 879 580 c 0,35,36
 873 580 873 580 849 568 c 128,-1,37
 825 556 825 556 785 542 c 128,-1,38
 745 528 745 528 689.5 516 c 128,-1,39
 634 504 634 504 565 504 c 0,40,41
 427 504 427 504 324.5 543.5 c 128,-1,42
 222 583 222 583 154.5 653.5 c 128,-1,43
 87 724 87 724 53.5 821 c 128,-1,44
 20 918 20 918 20 1032 c 0,45,46
 20 1150 20 1150 61 1243.5 c 128,-1,47
 102 1337 102 1337 174 1401.5 c 128,-1,48
 246 1466 246 1466 345 1500 c 128,-1,49
 444 1534 444 1534 561 1534 c 0,0,1
539 1485 m 0,50,51
 396 1485 396 1485 316 1377 c 128,-1,52
 236 1269 236 1269 236 1053 c 0,53,54
 236 931 236 931 267.5 840.5 c 128,-1,55
 299 750 299 750 353 690 c 128,-1,56
 407 630 407 630 478.5 600.5 c 128,-1,57
 550 571 550 571 631 571 c 0,58,59
 708 571 708 571 761.5 595 c 128,-1,60
 815 619 815 619 848 665 c 128,-1,61
 881 711 881 711 896 777.5 c 128,-1,62
 911 844 911 844 911 930 c 0,63,64
 911 994 911 994 902 1059.5 c 128,-1,65
 893 1125 893 1125 873.5 1186.5 c 128,-1,66
 854 1248 854 1248 824.5 1302.5 c 128,-1,67
 795 1357 795 1357 753.5 1397.5 c 128,-1,68
 712 1438 712 1438 658.5 1461.5 c 128,-1,69
 605 1485 605 1485 539 1485 c 0,50,51
EndSplineSet
EndChar

StartChar: colon
Encoding: 58 58 29
Width: 504
GlyphClass: 2
Flags: W
LayerCount: 2
Back
Fore
SplineSet
252 975 m 0,0,1
 280 975 280 975 305 966.5 c 128,-1,2
 330 958 330 958 349 940.5 c 128,-1,3
 368 923 368 923 379.5 896.5 c 128,-1,4
 391 870 391 870 391 834 c 0,5,6
 391 753 391 753 350 709.5 c 128,-1,7
 309 666 309 666 246 666 c 0,8,9
 217 666 217 666 191 674.5 c 128,-1,10
 165 683 165 683 145.5 701.5 c 128,-1,11
 126 720 126 720 114 749.5 c 128,-1,12
 102 779 102 779 102 821 c 0,13,14
 102 889 102 889 141.5 932 c 128,-1,15
 181 975 181 975 252 975 c 0,0,1
268 238 m 0,16,17
 307 238 307 238 333 224.5 c 128,-1,18
 359 211 359 211 374 190 c 128,-1,19
 389 169 389 169 395 143 c 128,-1,20
 401 117 401 117 401 92 c 0,21,22
 401 56 401 56 390.5 27 c 128,-1,23
 380 -2 380 -2 361 -23 c 128,-1,24
 342 -44 342 -44 316.5 -55 c 128,-1,25
 291 -66 291 -66 260 -66 c 0,26,27
 198 -66 198 -66 163.5 -24.5 c 128,-1,28
 129 17 129 17 129 80 c 0,29,30
 129 114 129 114 138.5 143 c 128,-1,31
 148 172 148 172 165.5 193 c 128,-1,32
 183 214 183 214 209 226 c 128,-1,33
 235 238 235 238 268 238 c 0,16,17
EndSplineSet
EndChar

StartChar: semicolon
Encoding: 59 59 30
Width: 545
GlyphClass: 2
Flags: W
LayerCount: 2
Back
Fore
SplineSet
293 920 m 0,0,1
 334 920 334 920 362 907 c 128,-1,2
 390 894 390 894 407.5 873.5 c 128,-1,3
 425 853 425 853 432.5 827 c 128,-1,4
 440 801 440 801 440 776 c 0,5,6
 440 748 440 748 432.5 718 c 128,-1,7
 425 688 425 688 407.5 662.5 c 128,-1,8
 390 637 390 637 362 620.5 c 128,-1,9
 334 604 334 604 293 604 c 0,10,11
 219 604 219 604 179 647 c 128,-1,12
 139 690 139 690 139 762 c 0,13,14
 139 787 139 787 146.5 815 c 128,-1,15
 154 843 154 843 171.5 866 c 128,-1,16
 189 889 189 889 218.5 904.5 c 128,-1,17
 248 920 248 920 293 920 c 0,0,1
260 184 m 0,18,19
 301 184 301 184 331.5 171.5 c 128,-1,20
 362 159 362 159 382.5 137.5 c 128,-1,21
 403 116 403 116 413.5 87 c 128,-1,22
 424 58 424 58 424 25 c 0,23,24
 424 -26 424 -26 405 -78 c 128,-1,25
 386 -130 386 -130 356 -178 c 128,-1,26
 326 -226 326 -226 290 -268 c 128,-1,27
 254 -310 254 -310 219.5 -341 c 128,-1,28
 185 -372 185 -372 157 -390 c 128,-1,29
 129 -408 129 -408 115 -408 c 0,30,31
 102 -408 102 -408 102 -395 c 0,32,33
 102 -386 102 -386 111 -375 c 0,34,35
 120 -362 120 -362 141.5 -340.5 c 128,-1,36
 163 -319 163 -319 184.5 -292 c 128,-1,37
 206 -265 206 -265 223 -234.5 c 128,-1,38
 240 -204 240 -204 240 -172 c 0,39,40
 240 -141 240 -141 220.5 -120.5 c 128,-1,41
 201 -100 201 -100 177.5 -79.5 c 128,-1,42
 154 -59 154 -59 134.5 -31.5 c 128,-1,43
 115 -4 115 -4 115 41 c 0,44,45
 115 69 115 69 125.5 95 c 128,-1,46
 136 121 136 121 154.5 141 c 128,-1,47
 173 161 173 161 200 172.5 c 128,-1,48
 227 184 227 184 260 184 c 0,18,19
EndSplineSet
EndChar

StartChar: less
Encoding: 60 60 31
Width: 1071
GlyphClass: 2
Flags: W
LayerCount: 2
Back
Fore
SplineSet
909 1104 m 256,0,1
 930 1104 930 1104 930 1085 c 0,2,3
 930 1071 930 1071 909.5 1048 c 128,-1,4
 889 1025 889 1025 857.5 998 c 128,-1,5
 826 971 826 971 787 943 c 128,-1,6
 748 915 748 915 710.5 889.5 c 128,-1,7
 673 864 673 864 642.5 843.5 c 128,-1,8
 612 823 612 823 596 813 c 0,9,10
 510 758 510 758 450.5 721.5 c 128,-1,11
 391 685 391 685 353.5 662 c 128,-1,12
 316 639 316 639 299.5 626.5 c 128,-1,13
 283 614 283 614 283 606 c 0,14,15
 283 596 283 596 310 576.5 c 128,-1,16
 337 557 337 557 382.5 531 c 128,-1,17
 428 505 428 505 487.5 474 c 128,-1,18
 547 443 547 443 612 410 c 0,19,20
 636 397 636 397 672 378.5 c 128,-1,21
 708 360 708 360 747.5 338.5 c 128,-1,22
 787 317 787 317 826.5 294 c 128,-1,23
 866 271 866 271 898 250 c 128,-1,24
 930 229 930 229 949.5 211 c 128,-1,25
 969 193 969 193 969 182 c 256,26,27
 969 171 969 171 962.5 164.5 c 128,-1,28
 956 158 956 158 940 158 c 0,29,30
 916 158 916 158 874.5 173 c 128,-1,31
 833 188 833 188 781 213 c 128,-1,32
 729 238 729 238 669 270 c 128,-1,33
 609 302 609 302 548 336 c 128,-1,34
 487 370 487 370 427 403 c 128,-1,35
 367 436 367 436 315 463 c 0,36,37
 276 483 276 483 238 502 c 128,-1,38
 200 521 200 521 169.5 537.5 c 128,-1,39
 139 554 139 554 120.5 566.5 c 128,-1,40
 102 579 102 579 102 586 c 0,41,42
 102 595 102 595 117.5 607.5 c 128,-1,43
 133 620 133 620 174 645 c 0,44,45
 195 657 195 657 237 682 c 128,-1,46
 279 707 279 707 330 737.5 c 128,-1,47
 381 768 381 768 435.5 800.5 c 128,-1,48
 490 833 490 833 535 862 c 0,49,50
 623 917 623 917 685 962 c 128,-1,51
 747 1007 747 1007 789.5 1038.5 c 128,-1,52
 832 1070 832 1070 860 1087 c 128,-1,53
 888 1104 888 1104 909 1104 c 256,0,1
EndSplineSet
EndChar

StartChar: equal
Encoding: 61 61 32
Width: 1343
GlyphClass: 2
Flags: W
LayerCount: 2
Back
Fore
SplineSet
1178 795 m 0,0,1
 1185 795 1185 795 1196 794 c 128,-1,2
 1207 793 1207 793 1217 790 c 128,-1,3
 1227 787 1227 787 1234 780.5 c 128,-1,4
 1241 774 1241 774 1241 762 c 256,5,6
 1241 750 1241 750 1234 742 c 128,-1,7
 1227 734 1227 734 1215.5 729.5 c 128,-1,8
 1204 725 1204 725 1190.5 723.5 c 128,-1,9
 1177 722 1177 722 1165 721 c 0,10,11
 1127 719 1127 719 1086.5 716.5 c 128,-1,12
 1046 714 1046 714 999 711 c 128,-1,13
 952 708 952 708 897 704 c 128,-1,14
 842 700 842 700 776 694 c 0,15,16
 743 691 743 691 690 686 c 128,-1,17
 637 681 637 681 575 674.5 c 128,-1,18
 513 668 513 668 447.5 661 c 128,-1,19
 382 654 382 654 323.5 648 c 128,-1,20
 265 642 265 642 219 638.5 c 128,-1,21
 173 635 173 635 150 635 c 0,22,23
 128 635 128 635 115 641.5 c 128,-1,24
 102 648 102 648 102 662 c 0,25,26
 102 670 102 670 107.5 677.5 c 128,-1,27
 113 685 113 685 128 691.5 c 128,-1,28
 143 698 143 698 169.5 703.5 c 128,-1,29
 196 709 196 709 238 715 c 0,30,31
 305 724 305 724 388.5 733 c 128,-1,32
 472 742 472 742 563 751 c 128,-1,33
 654 760 654 760 745.5 768 c 128,-1,34
 837 776 837 776 919.5 782 c 128,-1,35
 1002 788 1002 788 1069 791.5 c 128,-1,36
 1136 795 1136 795 1178 795 c 0,0,1
1034 461 m 0,37,38
 1076 456 1076 456 1090 447.5 c 128,-1,39
 1104 439 1104 439 1104 428 c 0,40,41
 1104 418 1104 418 1097 412 c 128,-1,42
 1090 406 1090 406 1078.5 402.5 c 128,-1,43
 1067 399 1067 399 1053 398 c 128,-1,44
 1039 397 1039 397 1024 397 c 0,45,46
 1019 397 1019 397 995.5 397.5 c 128,-1,47
 972 398 972 398 937 398 c 128,-1,48
 902 398 902 398 859.5 399 c 128,-1,49
 817 400 817 400 773.5 400 c 128,-1,50
 730 400 730 400 690 400.5 c 128,-1,51
 650 401 650 401 621 401 c 0,52,53
 551 401 551 401 483 400.5 c 128,-1,54
 415 400 415 400 357 399 c 128,-1,55
 299 398 299 398 254.5 397.5 c 128,-1,56
 210 397 210 397 186 397 c 0,57,58
 141 397 141 397 121.5 409 c 128,-1,59
 102 421 102 421 102 442 c 0,60,61
 102 451 102 451 106.5 459.5 c 128,-1,62
 111 468 111 468 122 474.5 c 128,-1,63
 133 481 133 481 152.5 485 c 128,-1,64
 172 489 172 489 201 489 c 0,65,66
 250 489 250 489 322.5 488 c 128,-1,67
 395 487 395 487 478 484.5 c 128,-1,68
 561 482 561 482 647.5 479.5 c 128,-1,69
 734 477 734 477 810 473.5 c 128,-1,70
 886 470 886 470 945.5 467 c 128,-1,71
 1005 464 1005 464 1034 461 c 0,37,38
EndSplineSet
EndChar

StartChar: greater
Encoding: 62 62 33
Width: 1092
GlyphClass: 2
Flags: W
LayerCount: 2
Back
Fore
SplineSet
117 1133 m 0,0,1
 127 1133 127 1133 145.5 1125.5 c 128,-1,2
 164 1118 164 1118 186.5 1106.5 c 128,-1,3
 209 1095 209 1095 233.5 1081.5 c 128,-1,4
 258 1068 258 1068 279 1055.5 c 128,-1,5
 300 1043 300 1043 316 1033 c 128,-1,6
 332 1023 332 1023 338 1020 c 0,7,8
 362 1006 362 1006 395 986 c 128,-1,9
 428 966 428 966 464.5 944 c 128,-1,10
 501 922 501 922 539 898.5 c 128,-1,11
 577 875 577 875 612 854 c 128,-1,12
 647 833 647 833 677 815 c 128,-1,13
 707 797 707 797 727 786 c 0,14,15
 793 748 793 748 838 721.5 c 128,-1,16
 883 695 883 695 911 676 c 128,-1,17
 939 657 939 657 951 644 c 128,-1,18
 963 631 963 631 963 621 c 0,19,20
 963 605 963 605 944 582.5 c 128,-1,21
 925 560 925 560 896.5 535 c 128,-1,22
 868 510 868 510 834 485 c 128,-1,23
 800 460 800 460 770 438 c 0,24,25
 761 432 761 432 737.5 415.5 c 128,-1,26
 714 399 714 399 683 377.5 c 128,-1,27
 652 356 652 356 615.5 331.5 c 128,-1,28
 579 307 579 307 544 283 c 128,-1,29
 509 259 509 259 478 238 c 128,-1,30
 447 217 447 217 426 203 c 0,31,32
 369 166 369 166 327 140.5 c 128,-1,33
 285 115 285 115 266 115 c 0,34,35
 246 115 246 115 246 135 c 0,36,37
 246 146 246 146 254.5 157.5 c 128,-1,38
 263 169 263 169 289 190 c 0,39,40
 299 199 299 199 324.5 218 c 128,-1,41
 350 237 350 237 383.5 260.5 c 128,-1,42
 417 284 417 284 454 311 c 128,-1,43
 491 338 491 338 525.5 361.5 c 128,-1,44
 560 385 560 385 587 404 c 128,-1,45
 614 423 614 423 627 432 c 0,46,47
 671 463 671 463 708.5 491.5 c 128,-1,48
 746 520 746 520 773 544 c 128,-1,49
 800 568 800 568 815.5 585 c 128,-1,50
 831 602 831 602 831 610 c 0,51,52
 831 616 831 616 821 625 c 128,-1,53
 811 634 811 634 795.5 645 c 128,-1,54
 780 656 780 656 762 667 c 128,-1,55
 744 678 744 678 729 688 c 0,56,57
 710 700 710 700 677.5 720.5 c 128,-1,58
 645 741 645 741 605.5 766 c 128,-1,59
 566 791 566 791 523 818 c 128,-1,60
 480 845 480 845 441.5 869.5 c 128,-1,61
 403 894 403 894 371.5 914.5 c 128,-1,62
 340 935 340 935 324 946 c 0,63,64
 299 963 299 963 261.5 987.5 c 128,-1,65
 224 1012 224 1012 188.5 1037.5 c 128,-1,66
 153 1063 153 1063 127.5 1085.5 c 128,-1,67
 102 1108 102 1108 102 1120 c 0,68,69
 102 1126 102 1126 106.5 1129.5 c 128,-1,70
 111 1133 111 1133 117 1133 c 0,0,1
EndSplineSet
EndChar

StartChar: question
Encoding: 63 63 34
Width: 1157
GlyphClass: 2
Flags: W
LayerCount: 2
Back
Fore
SplineSet
399 43 m 0,0,1
 463 43 463 43 493.5 4 c 128,-1,2
 524 -35 524 -35 524 -92 c 0,3,4
 524 -127 524 -127 512.5 -150 c 128,-1,5
 501 -173 501 -173 484.5 -186 c 128,-1,6
 468 -199 468 -199 450 -204 c 128,-1,7
 432 -209 432 -209 418 -209 c 0,8,9
 389 -209 389 -209 365.5 -197.5 c 128,-1,10
 342 -186 342 -186 325 -166.5 c 128,-1,11
 308 -147 308 -147 298.5 -122 c 128,-1,12
 289 -97 289 -97 289 -70 c 0,13,14
 289 -23 289 -23 316.5 10 c 128,-1,15
 344 43 344 43 399 43 c 0,0,1
584 1700 m 0,16,17
 688 1700 688 1700 781 1673.5 c 128,-1,18
 874 1647 874 1647 943.5 1592.5 c 128,-1,19
 1013 1538 1013 1538 1053.5 1454.5 c 128,-1,20
 1094 1371 1094 1371 1094 1257 c 0,21,22
 1094 1177 1094 1177 1075 1112.5 c 128,-1,23
 1056 1048 1056 1048 1021 993.5 c 128,-1,24
 986 939 986 939 935.5 892.5 c 128,-1,25
 885 846 885 846 821 803 c 0,26,27
 754 758 754 758 689.5 719.5 c 128,-1,28
 625 681 625 681 567 645.5 c 128,-1,29
 509 610 509 610 460.5 575.5 c 128,-1,30
 412 541 412 541 376.5 503.5 c 128,-1,31
 341 466 341 466 321 423.5 c 128,-1,32
 301 381 301 381 301 330 c 0,33,34
 301 298 301 298 309 275.5 c 128,-1,35
 317 253 317 253 329.5 238 c 128,-1,36
 342 223 342 223 358.5 216 c 128,-1,37
 375 209 375 209 393 209 c 0,38,39
 414 209 414 209 428 217.5 c 128,-1,40
 442 226 442 226 451 238.5 c 128,-1,41
 460 251 460 251 464 265 c 128,-1,42
 468 279 468 279 469 291 c 0,43,44
 471 308 471 308 473 317 c 128,-1,45
 475 326 475 326 483 326 c 256,46,47
 491 326 491 326 495.5 314.5 c 128,-1,48
 500 303 500 303 500 285 c 0,49,50
 500 261 500 261 493 239 c 128,-1,51
 486 217 486 217 472 200.5 c 128,-1,52
 458 184 458 184 435 174 c 128,-1,53
 412 164 412 164 381 164 c 0,54,55
 352 164 352 164 324 173.5 c 128,-1,56
 296 183 296 183 274 204 c 128,-1,57
 252 225 252 225 238.5 258 c 128,-1,58
 225 291 225 291 225 338 c 0,59,60
 225 407 225 407 251 464.5 c 128,-1,61
 277 522 277 522 319.5 574 c 128,-1,62
 362 626 362 626 416 675 c 128,-1,63
 470 724 470 724 527 775 c 128,-1,64
 584 826 584 826 638 881.5 c 128,-1,65
 692 937 692 937 734.5 1002.5 c 128,-1,66
 777 1068 777 1068 803 1145.5 c 128,-1,67
 829 1223 829 1223 829 1319 c 0,68,69
 829 1381 829 1381 813 1442 c 128,-1,70
 797 1503 797 1503 761.5 1551 c 128,-1,71
 726 1599 726 1599 668.5 1629 c 128,-1,72
 611 1659 611 1659 528 1659 c 0,73,74
 464 1659 464 1659 415 1640.5 c 128,-1,75
 366 1622 366 1622 332.5 1590.5 c 128,-1,76
 299 1559 299 1559 281.5 1517.5 c 128,-1,77
 264 1476 264 1476 264 1430 c 256,78,79
 264 1384 264 1384 277 1347.5 c 128,-1,80
 290 1311 290 1311 310 1279.5 c 128,-1,81
 330 1248 330 1248 353 1220 c 128,-1,82
 376 1192 376 1192 396 1162 c 128,-1,83
 416 1132 416 1132 429 1098.5 c 128,-1,84
 442 1065 442 1065 442 1024 c 0,85,86
 442 994 442 994 432.5 964.5 c 128,-1,87
 423 935 423 935 402 911 c 128,-1,88
 381 887 381 887 348 872.5 c 128,-1,89
 315 858 315 858 268 858 c 0,90,91
 153 858 153 858 97 938.5 c 128,-1,92
 41 1019 41 1019 41 1165 c 0,93,94
 41 1217 41 1217 53 1276.5 c 128,-1,95
 65 1336 65 1336 92 1395.5 c 128,-1,96
 119 1455 119 1455 161 1510 c 128,-1,97
 203 1565 203 1565 263.5 1607 c 128,-1,98
 324 1649 324 1649 403.5 1674.5 c 128,-1,99
 483 1700 483 1700 584 1700 c 0,16,17
EndSplineSet
EndChar

StartChar: at
Encoding: 64 64 35
Width: 1841
GlyphClass: 2
Flags: W
LayerCount: 2
Back
Fore
SplineSet
788 -539 m 0,0,1
 909 -539 909 -539 974.5 -503 c 128,-1,2
 1040 -467 1040 -467 1040 -412 c 0,3,4
 1040 -392 1040 -392 1030 -377 c 128,-1,5
 1020 -362 1020 -362 1005.5 -349.5 c 128,-1,6
 991 -337 991 -337 973.5 -325 c 128,-1,7
 956 -313 956 -313 941.5 -298 c 128,-1,8
 927 -283 927 -283 917 -263 c 128,-1,9
 907 -243 907 -243 907 -215 c 0,10,11
 907 -193 907 -193 915.5 -170.5 c 128,-1,12
 924 -148 924 -148 941.5 -130 c 128,-1,13
 959 -112 959 -112 985 -101 c 128,-1,14
 1011 -90 1011 -90 1047 -90 c 0,15,16
 1081 -90 1081 -90 1110 -103 c 128,-1,17
 1139 -116 1139 -116 1161 -140 c 128,-1,18
 1183 -164 1183 -164 1195.5 -198.5 c 128,-1,19
 1208 -233 1208 -233 1208 -276 c 0,20,21
 1208 -305 1208 -305 1201 -340.5 c 128,-1,22
 1194 -376 1194 -376 1175.5 -412 c 128,-1,23
 1157 -448 1157 -448 1126.5 -482 c 128,-1,24
 1096 -516 1096 -516 1048.5 -542 c 128,-1,25
 1001 -568 1001 -568 935.5 -584 c 128,-1,26
 870 -600 870 -600 782 -600 c 0,27,28
 645 -599 645 -599 522 -533 c 128,-1,29
 399 -467 399 -467 305.5 -342 c 128,-1,30
 212 -217 212 -217 157 -36.5 c 128,-1,31
 102 144 102 144 102 375 c 0,32,33
 102 532 102 532 133 672 c 128,-1,34
 164 812 164 812 222 930 c 128,-1,35
 280 1048 280 1048 362.5 1142 c 128,-1,36
 445 1236 445 1236 547.5 1302 c 128,-1,37
 650 1368 650 1368 771 1403 c 128,-1,38
 892 1438 892 1438 1026 1438 c 0,39,40
 1216 1438 1216 1438 1354.5 1377.5 c 128,-1,41
 1493 1317 1493 1317 1582 1210 c 128,-1,42
 1671 1103 1671 1103 1714 955 c 128,-1,43
 1757 807 1757 807 1757 633 c 0,44,45
 1757 463 1757 463 1728 334.5 c 128,-1,46
 1699 206 1699 206 1650 119.5 c 128,-1,47
 1601 33 1601 33 1537.5 -11 c 128,-1,48
 1474 -55 1474 -55 1405 -55 c 0,49,50
 1341 -55 1341 -55 1293.5 -29 c 128,-1,51
 1246 -3 1246 -3 1213 38 c 128,-1,52
 1180 79 1180 79 1160.5 131 c 128,-1,53
 1141 183 1141 183 1133 236 c 1,54,55
 1130 219 1130 219 1123.5 186.5 c 128,-1,56
 1117 154 1117 154 1102 116 c 128,-1,57
 1087 78 1087 78 1063 38.5 c 128,-1,58
 1039 -1 1039 -1 1001 -33 c 128,-1,59
 963 -65 963 -65 910.5 -85.5 c 128,-1,60
 858 -106 858 -106 786 -106 c 0,61,62
 718 -106 718 -106 648 -81.5 c 128,-1,63
 578 -57 578 -57 520 -1.5 c 128,-1,64
 462 54 462 54 424.5 143 c 128,-1,65
 387 232 387 232 383 360 c 1,66,67
 385 470 385 470 407.5 555.5 c 128,-1,68
 430 641 430 641 466 705 c 128,-1,69
 502 769 502 769 548 813.5 c 128,-1,70
 594 858 594 858 644.5 885.5 c 128,-1,71
 695 913 695 913 746.5 925.5 c 128,-1,72
 798 938 798 938 844 938 c 0,73,74
 905 938 905 938 950 925 c 128,-1,75
 995 912 995 912 1027 894 c 128,-1,76
 1059 876 1059 876 1079.5 857.5 c 128,-1,77
 1100 839 1100 839 1112 827 c 1,78,79
 1112 865 1112 865 1111 891 c 128,-1,80
 1110 917 1110 917 1110 948 c 0,81,82
 1110 970 1110 970 1118.5 979.5 c 128,-1,83
 1127 989 1127 989 1141 992 c 128,-1,84
 1155 995 1155 995 1174.5 994 c 128,-1,85
 1194 993 1194 993 1217 995 c 0,86,87
 1249 997 1249 997 1274 1000.5 c 128,-1,88
 1299 1004 1299 1004 1313 1004 c 256,89,90
 1327 1004 1327 1004 1330 993 c 128,-1,91
 1333 982 1333 982 1333 961 c 0,92,93
 1333 939 1333 939 1330.5 896.5 c 128,-1,94
 1328 854 1328 854 1324.5 800 c 128,-1,95
 1321 746 1321 746 1316.5 686 c 128,-1,96
 1312 626 1312 626 1308.5 568.5 c 128,-1,97
 1305 511 1305 511 1302.5 462 c 128,-1,98
 1300 413 1300 413 1300 381 c 0,99,100
 1300 311 1300 311 1306 252 c 128,-1,101
 1312 193 1312 193 1328 149.5 c 128,-1,102
 1344 106 1344 106 1370.5 81.5 c 128,-1,103
 1397 57 1397 57 1438 57 c 0,104,105
 1482 57 1482 57 1526.5 92.5 c 128,-1,106
 1571 128 1571 128 1607 199.5 c 128,-1,107
 1643 271 1643 271 1665.5 377.5 c 128,-1,108
 1688 484 1688 484 1688 625 c 0,109,110
 1688 822 1688 822 1637 964 c 128,-1,111
 1586 1106 1586 1106 1496 1197.5 c 128,-1,112
 1406 1289 1406 1289 1284 1332.5 c 128,-1,113
 1162 1376 1162 1376 1020 1376 c 0,114,115
 901 1376 901 1376 792 1344 c 128,-1,116
 683 1312 683 1312 589 1252 c 128,-1,117
 495 1192 495 1192 418 1105 c 128,-1,118
 341 1018 341 1018 286.5 907 c 128,-1,119
 232 796 232 796 202 663 c 128,-1,120
 172 530 172 530 172 379 c 0,121,122
 172 201 172 201 203.5 63.5 c 128,-1,123
 235 -74 235 -74 286 -176 c 128,-1,124
 337 -278 337 -278 402.5 -347.5 c 128,-1,125
 468 -417 468 -417 536.5 -459.5 c 128,-1,126
 605 -502 605 -502 670.5 -520.5 c 128,-1,127
 736 -539 736 -539 788 -539 c 0,0,1
862 885 m 0,128,129
 805 885 805 885 757.5 858.5 c 128,-1,130
 710 832 710 832 676 781.5 c 128,-1,131
 642 731 642 731 623 658.5 c 128,-1,132
 604 586 604 586 604 494 c 0,133,134
 604 404 604 404 620.5 323.5 c 128,-1,135
 637 243 637 243 669.5 182.5 c 128,-1,136
 702 122 702 122 750.5 86.5 c 128,-1,137
 799 51 799 51 864 51 c 0,138,139
 930 51 930 51 977 88 c 128,-1,140
 1024 125 1024 125 1054 186.5 c 128,-1,141
 1084 248 1084 248 1098 328.5 c 128,-1,142
 1112 409 1112 409 1112 496 c 0,143,144
 1112 570 1112 570 1097.5 640 c 128,-1,145
 1083 710 1083 710 1053 764.5 c 128,-1,146
 1023 819 1023 819 975.5 852 c 128,-1,147
 928 885 928 885 862 885 c 0,128,129
EndSplineSet
EndChar

StartChar: A
Encoding: 65 65 36
Width: 1606
GlyphClass: 2
Flags: W
LayerCount: 2
Back
Fore
SplineSet
852 1679 m 0,0,1
 859 1679 859 1679 868 1662 c 128,-1,2
 877 1645 877 1645 885.5 1622.5 c 128,-1,3
 894 1600 894 1600 901.5 1577.5 c 128,-1,4
 909 1555 909 1555 913 1544 c 0,5,6
 935 1479 935 1479 962 1397 c 128,-1,7
 989 1315 989 1315 1019.5 1222 c 128,-1,8
 1050 1129 1050 1129 1083.5 1028.5 c 128,-1,9
 1117 928 1117 928 1150.5 827.5 c 128,-1,10
 1184 727 1184 727 1217 629 c 128,-1,11
 1250 531 1250 531 1280 442.5 c 128,-1,12
 1310 354 1310 354 1336.5 279.5 c 128,-1,13
 1363 205 1363 205 1384 150 c 0,14,15
 1408 85 1408 85 1431 46 c 128,-1,16
 1454 7 1454 7 1480 -16 c 128,-1,17
 1506 -39 1506 -39 1537.5 -50 c 128,-1,18
 1569 -61 1569 -61 1610 -70 c 0,19,20
 1640 -76 1640 -76 1640 -92 c 0,21,22
 1640 -103 1640 -103 1629 -107 c 128,-1,23
 1618 -111 1618 -111 1604 -111 c 0,24,25
 1582 -111 1582 -111 1548 -110 c 128,-1,26
 1514 -109 1514 -109 1470 -109 c 0,27,28
 1435 -109 1435 -109 1394.5 -110.5 c 128,-1,29
 1354 -112 1354 -112 1311 -115 c 0,30,31
 1244 -120 1244 -120 1187 -131.5 c 128,-1,32
 1130 -143 1130 -143 1084 -154.5 c 128,-1,33
 1038 -166 1038 -166 1003.5 -175 c 128,-1,34
 969 -184 969 -184 948 -184 c 0,35,36
 937 -184 937 -184 930.5 -178.5 c 128,-1,37
 924 -173 924 -173 924 -164 c 0,38,39
 924 -151 924 -151 931 -143 c 128,-1,40
 938 -135 938 -135 958 -129 c 0,41,42
 966 -127 966 -127 981 -123 c 128,-1,43
 996 -119 996 -119 1014 -114 c 128,-1,44
 1032 -109 1032 -109 1051.5 -102.5 c 128,-1,45
 1071 -96 1071 -96 1087 -88 c 0,46,47
 1107 -77 1107 -77 1123 -59 c 128,-1,48
 1139 -41 1139 -41 1139 -4 c 0,49,50
 1139 4 1139 4 1137.5 18 c 128,-1,51
 1136 32 1136 32 1133 43 c 0,52,53
 1115 113 1115 113 1096 185 c 128,-1,54
 1077 257 1077 257 1058 322 c 128,-1,55
 1039 387 1039 387 1022 442 c 128,-1,56
 1005 497 1005 497 991 532 c 0,57,58
 968 590 968 590 938 620.5 c 128,-1,59
 908 651 908 651 872 668 c 0,60,61
 862 672 862 672 839 681 c 128,-1,62
 816 690 816 690 784.5 700.5 c 128,-1,63
 753 711 753 711 717 723 c 128,-1,64
 681 735 681 735 646 746.5 c 128,-1,65
 611 758 611 758 580.5 767.5 c 128,-1,66
 550 777 550 777 530 784 c 1,67,68
 506 707 506 707 482.5 631.5 c 128,-1,69
 459 556 459 556 439.5 492.5 c 128,-1,70
 420 429 420 429 405.5 381 c 128,-1,71
 391 333 391 333 385 311 c 0,72,73
 377 285 377 285 374 264 c 128,-1,74
 371 243 371 243 371 227 c 0,75,76
 371 198 371 198 379.5 178.5 c 128,-1,77
 388 159 388 159 402 145.5 c 128,-1,78
 416 132 416 132 434.5 122.5 c 128,-1,79
 453 113 453 113 473 104 c 0,80,81
 490 96 490 96 503 86.5 c 128,-1,82
 516 77 516 77 516 63 c 0,83,84
 516 54 516 54 508.5 47.5 c 128,-1,85
 501 41 501 41 485 41 c 0,86,87
 468 41 468 41 442 49 c 128,-1,88
 416 57 416 57 384.5 69 c 128,-1,89
 353 81 353 81 318 94.5 c 128,-1,90
 283 108 283 108 248 119 c 0,91,92
 220 127 220 127 190 133.5 c 128,-1,93
 160 140 160 140 132 144 c 128,-1,94
 104 148 104 148 81.5 150.5 c 128,-1,95
 59 153 59 153 47 154 c 0,96,97
 22 156 22 156 11 161 c 128,-1,98
 0 166 0 166 0 180 c 0,99,100
 0 190 0 190 6.5 196.5 c 128,-1,101
 13 203 13 203 29 203 c 0,102,103
 35 203 35 203 50.5 202 c 128,-1,104
 66 201 66 201 86 201 c 0,105,106
 134 201 134 201 166 207 c 128,-1,107
 198 213 198 213 220 226 c 128,-1,108
 242 239 242 239 256.5 258.5 c 128,-1,109
 271 278 271 278 283 305 c 0,110,111
 295 331 295 331 312 374.5 c 128,-1,112
 329 418 329 418 348.5 469.5 c 128,-1,113
 368 521 368 521 388 576.5 c 128,-1,114
 408 632 408 632 425.5 681.5 c 128,-1,115
 443 731 443 731 456 769.5 c 128,-1,116
 469 808 469 808 475 827 c 0,117,118
 483 853 483 853 497.5 898.5 c 128,-1,119
 512 944 512 944 530 1000 c 128,-1,120
 548 1056 548 1056 566.5 1116.5 c 128,-1,121
 585 1177 585 1177 600.5 1232.5 c 128,-1,122
 616 1288 616 1288 625.5 1333.5 c 128,-1,123
 635 1379 635 1379 635 1405 c 0,124,125
 635 1425 635 1425 624 1438.5 c 128,-1,126
 613 1452 613 1452 588 1452 c 0,127,128
 566 1452 566 1452 538.5 1449 c 128,-1,129
 511 1446 511 1446 483 1443 c 128,-1,130
 455 1440 455 1440 428.5 1437 c 128,-1,131
 402 1434 402 1434 383 1434 c 0,132,133
 346 1434 346 1434 346 1460 c 0,134,135
 346 1484 346 1484 381 1487 c 0,136,137
 405 1488 405 1488 435.5 1492 c 128,-1,138
 466 1496 466 1496 500 1503 c 128,-1,139
 534 1510 534 1510 568.5 1520.5 c 128,-1,140
 603 1531 603 1531 635 1546 c 0,141,142
 686 1569 686 1569 722 1593 c 128,-1,143
 758 1617 758 1617 783.5 1636 c 128,-1,144
 809 1655 809 1655 825.5 1667 c 128,-1,145
 842 1679 842 1679 852 1679 c 0,0,1
547 838 m 1,146,147
 578 827 578 827 626.5 810.5 c 128,-1,148
 675 794 675 794 725 778.5 c 128,-1,149
 775 763 775 763 817.5 752 c 128,-1,150
 860 741 860 741 879 741 c 0,151,152
 891 741 891 741 900 749.5 c 128,-1,153
 909 758 909 758 909 776 c 0,154,155
 909 791 909 791 900 830.5 c 128,-1,156
 891 870 891 870 877.5 920.5 c 128,-1,157
 864 971 864 971 848 1026.5 c 128,-1,158
 832 1082 832 1082 818 1129 c 128,-1,159
 804 1176 804 1176 794.5 1207.5 c 128,-1,160
 785 1239 785 1239 784 1243 c 0,161,162
 780 1255 780 1255 773.5 1277.5 c 128,-1,163
 767 1300 767 1300 759.5 1322 c 128,-1,164
 752 1344 752 1344 744.5 1360 c 128,-1,165
 737 1376 737 1376 733 1376 c 256,166,167
 729 1376 729 1376 722.5 1365 c 128,-1,168
 716 1354 716 1354 709 1338.5 c 128,-1,169
 702 1323 702 1323 695 1305 c 128,-1,170
 688 1287 688 1287 684 1272 c 2,171,-1
 547 838 l 1,146,147
EndSplineSet
EndChar

StartChar: B
Encoding: 66 66 37
Width: 1403
GlyphClass: 2
Flags: W
LayerCount: 2
Back
Fore
SplineSet
836 1749 m 0,0,1
 899 1749 899 1749 964.5 1734 c 128,-1,2
 1030 1719 1030 1719 1083 1682 c 128,-1,3
 1136 1645 1136 1645 1170 1582 c 128,-1,4
 1204 1519 1204 1519 1204 1423 c 0,5,6
 1204 1348 1204 1348 1181.5 1288 c 128,-1,7
 1159 1228 1159 1228 1123 1181 c 128,-1,8
 1087 1134 1087 1134 1042 1098.5 c 128,-1,9
 997 1063 997 1063 952 1038 c 128,-1,10
 907 1013 907 1013 866.5 996.5 c 128,-1,11
 826 980 826 980 799 971 c 1,12,13
 840 971 840 971 898.5 961.5 c 128,-1,14
 957 952 957 952 1021.5 929 c 128,-1,15
 1086 906 1086 906 1149 867 c 128,-1,16
 1212 828 1212 828 1262.5 768 c 128,-1,17
 1313 708 1313 708 1344.5 625.5 c 128,-1,18
 1376 543 1376 543 1376 434 c 0,19,20
 1376 338 1376 338 1355 262 c 128,-1,21
 1334 186 1334 186 1298 127 c 128,-1,22
 1262 68 1262 68 1215 25 c 128,-1,23
 1168 -18 1168 -18 1116 -47 c 128,-1,24
 1064 -76 1064 -76 1010.5 -92 c 128,-1,25
 957 -108 957 -108 909 -113 c 0,26,27
 857 -119 857 -119 812 -121 c 128,-1,28
 767 -123 767 -123 729 -123 c 0,29,30
 667 -123 667 -123 616 -120 c 128,-1,31
 565 -117 565 -117 514 -117 c 0,32,33
 448 -117 448 -117 390 -130.5 c 128,-1,34
 332 -144 332 -144 283 -164 c 128,-1,35
 234 -184 234 -184 193.5 -208 c 128,-1,36
 153 -232 153 -232 120.5 -252 c 128,-1,37
 88 -272 88 -272 64.5 -285.5 c 128,-1,38
 41 -299 41 -299 25 -299 c 0,39,40
 2 -299 2 -299 2 -274 c 0,41,42
 2 -255 2 -255 22.5 -236 c 128,-1,43
 43 -217 43 -217 75 -196 c 128,-1,44
 107 -175 107 -175 145.5 -152 c 128,-1,45
 184 -129 184 -129 219 -102 c 0,46,47
 241 -85 241 -85 259.5 -65 c 128,-1,48
 278 -45 278 -45 292.5 -19.5 c 128,-1,49
 307 6 307 6 316.5 39.5 c 128,-1,50
 326 73 326 73 332 117 c 0,51,52
 340 179 340 179 343 271 c 128,-1,53
 346 363 346 363 346 477 c 0,54,55
 346 537 346 537 347 621 c 128,-1,56
 348 705 348 705 348 799 c 0,57,58
 348 896 348 896 346 997 c 128,-1,59
 344 1098 344 1098 337.5 1189.5 c 128,-1,60
 331 1281 331 1281 319.5 1356 c 128,-1,61
 308 1431 308 1431 289 1475 c 0,62,63
 272 1514 272 1514 248.5 1541.5 c 128,-1,64
 225 1569 225 1569 195.5 1587.5 c 128,-1,65
 166 1606 166 1606 132.5 1617 c 128,-1,66
 99 1628 99 1628 63 1634 c 0,67,68
 37 1639 37 1639 28.5 1645.5 c 128,-1,69
 20 1652 20 1652 20 1661 c 256,70,71
 20 1670 20 1670 27.5 1673.5 c 128,-1,72
 35 1677 35 1677 47 1677 c 0,73,74
 65 1677 65 1677 85 1674.5 c 128,-1,75
 105 1672 105 1672 131.5 1669 c 128,-1,76
 158 1666 158 1666 191 1663.5 c 128,-1,77
 224 1661 224 1661 268 1661 c 0,78,79
 359 1661 359 1661 429.5 1674.5 c 128,-1,80
 500 1688 500 1688 563.5 1704.5 c 128,-1,81
 627 1721 627 1721 691.5 1735 c 128,-1,82
 756 1749 756 1749 836 1749 c 0,0,1
494 1638 m 1,83,84
 497 1593 497 1593 500 1540 c 128,-1,85
 503 1487 503 1487 507 1430.5 c 128,-1,86
 511 1374 511 1374 514.5 1316.5 c 128,-1,87
 518 1259 518 1259 522 1206 c 0,88,89
 530 1081 530 1081 539 952 c 1,90,91
 655 960 655 960 747 1002 c 0,92,93
 786 1020 786 1020 823.5 1047 c 128,-1,94
 861 1074 861 1074 890.5 1113 c 128,-1,95
 920 1152 920 1152 938 1204.5 c 128,-1,96
 956 1257 956 1257 956 1325 c 0,97,98
 956 1423 956 1423 932 1488 c 128,-1,99
 908 1553 908 1553 868 1592 c 128,-1,100
 828 1631 828 1631 775 1647 c 128,-1,101
 722 1663 722 1663 664 1663 c 0,102,103
 616 1663 616 1663 572.5 1656 c 128,-1,104
 529 1649 529 1649 494 1638 c 1,83,84
543 879 m 1,105,106
 546 823 546 823 550.5 753 c 128,-1,107
 555 683 555 683 560 610 c 128,-1,108
 565 537 565 537 570.5 464.5 c 128,-1,109
 576 392 576 392 580.5 330 c 128,-1,110
 585 268 585 268 589 220.5 c 128,-1,111
 593 173 593 173 596 150 c 0,112,113
 601 100 601 100 614.5 58 c 128,-1,114
 628 16 628 16 652 -14 c 128,-1,115
 676 -44 676 -44 712 -61 c 128,-1,116
 748 -78 748 -78 799 -78 c 0,117,118
 869 -78 869 -78 928.5 -49.5 c 128,-1,119
 988 -21 988 -21 1031.5 39 c 128,-1,120
 1075 99 1075 99 1099.5 190.5 c 128,-1,121
 1124 282 1124 282 1124 408 c 0,122,123
 1124 530 1124 530 1093.5 623.5 c 128,-1,124
 1063 717 1063 717 1009 780.5 c 128,-1,125
 955 844 955 844 881.5 876.5 c 128,-1,126
 808 909 808 909 721 909 c 0,127,128
 667 909 667 909 618 900 c 128,-1,129
 569 891 569 891 543 879 c 1,105,106
EndSplineSet
PairPos2: "'kern' Horizontal Kerning lookup 0 per glyph data 1" j_j dx=0 dy=0 dh=-82 dv=0 dx=0 dy=0 dh=0 dv=0
PairPos2: "'kern' Horizontal Kerning lookup 0 per glyph data 1" OE dx=0 dy=0 dh=61 dv=0 dx=0 dy=0 dh=0 dv=0
PairPos2: "'kern' Horizontal Kerning lookup 0 per glyph data 1" Yacute dx=0 dy=0 dh=-184 dv=0 dx=0 dy=0 dh=0 dv=0
PairPos2: "'kern' Horizontal Kerning lookup 0 per glyph data 1" Udieresis dx=0 dy=0 dh=-31 dv=0 dx=0 dy=0 dh=0 dv=0
PairPos2: "'kern' Horizontal Kerning lookup 0 per glyph data 1" Ucircumflex dx=0 dy=0 dh=-31 dv=0 dx=0 dy=0 dh=0 dv=0
PairPos2: "'kern' Horizontal Kerning lookup 0 per glyph data 1" Uacute dx=0 dy=0 dh=-31 dv=0 dx=0 dy=0 dh=0 dv=0
PairPos2: "'kern' Horizontal Kerning lookup 0 per glyph data 1" Ugrave dx=0 dy=0 dh=-31 dv=0 dx=0 dy=0 dh=0 dv=0
PairPos2: "'kern' Horizontal Kerning lookup 0 per glyph data 1" Oslash dx=0 dy=0 dh=61 dv=0 dx=0 dy=0 dh=0 dv=0
PairPos2: "'kern' Horizontal Kerning lookup 0 per glyph data 1" Odieresis dx=0 dy=0 dh=61 dv=0 dx=0 dy=0 dh=0 dv=0
PairPos2: "'kern' Horizontal Kerning lookup 0 per glyph data 1" Otilde dx=0 dy=0 dh=61 dv=0 dx=0 dy=0 dh=0 dv=0
PairPos2: "'kern' Horizontal Kerning lookup 0 per glyph data 1" Ocircumflex dx=0 dy=0 dh=61 dv=0 dx=0 dy=0 dh=0 dv=0
PairPos2: "'kern' Horizontal Kerning lookup 0 per glyph data 1" Oacute dx=0 dy=0 dh=61 dv=0 dx=0 dy=0 dh=0 dv=0
PairPos2: "'kern' Horizontal Kerning lookup 0 per glyph data 1" Ograve dx=0 dy=0 dh=61 dv=0 dx=0 dy=0 dh=0 dv=0
PairPos2: "'kern' Horizontal Kerning lookup 0 per glyph data 1" Ccedilla dx=0 dy=0 dh=41 dv=0 dx=0 dy=0 dh=0 dv=0
PairPos2: "'kern' Horizontal Kerning lookup 0 per glyph data 1" v dx=0 dy=0 dh=-102 dv=0 dx=0 dy=0 dh=0 dv=0
PairPos2: "'kern' Horizontal Kerning lookup 0 per glyph data 1" s dx=0 dy=0 dh=-61 dv=0 dx=0 dy=0 dh=0 dv=0
PairPos2: "'kern' Horizontal Kerning lookup 0 per glyph data 1" j dx=0 dy=0 dh=-82 dv=0 dx=0 dy=0 dh=0 dv=0
PairPos2: "'kern' Horizontal Kerning lookup 0 per glyph data 1" Y dx=0 dy=0 dh=-184 dv=0 dx=0 dy=0 dh=0 dv=0
PairPos2: "'kern' Horizontal Kerning lookup 0 per glyph data 1" X dx=0 dy=0 dh=-82 dv=0 dx=0 dy=0 dh=0 dv=0
PairPos2: "'kern' Horizontal Kerning lookup 0 per glyph data 1" W dx=0 dy=0 dh=-82 dv=0 dx=0 dy=0 dh=0 dv=0
PairPos2: "'kern' Horizontal Kerning lookup 0 per glyph data 1" V dx=0 dy=0 dh=-123 dv=0 dx=0 dy=0 dh=0 dv=0
PairPos2: "'kern' Horizontal Kerning lookup 0 per glyph data 1" U dx=0 dy=0 dh=-31 dv=0 dx=0 dy=0 dh=0 dv=0
PairPos2: "'kern' Horizontal Kerning lookup 0 per glyph data 1" T dx=0 dy=0 dh=-133 dv=0 dx=0 dy=0 dh=0 dv=0
PairPos2: "'kern' Horizontal Kerning lookup 0 per glyph data 1" Q dx=0 dy=0 dh=41 dv=0 dx=0 dy=0 dh=0 dv=0
PairPos2: "'kern' Horizontal Kerning lookup 0 per glyph data 1" O dx=0 dy=0 dh=61 dv=0 dx=0 dy=0 dh=0 dv=0
PairPos2: "'kern' Horizontal Kerning lookup 0 per glyph data 1" G dx=0 dy=0 dh=41 dv=0 dx=0 dy=0 dh=0 dv=0
PairPos2: "'kern' Horizontal Kerning lookup 0 per glyph data 1" C dx=0 dy=0 dh=41 dv=0 dx=0 dy=0 dh=0 dv=0
EndChar

StartChar: C
Encoding: 67 67 38
Width: 1520
GlyphClass: 2
Flags: W
LayerCount: 2
Back
Fore
SplineSet
1329 1731 m 0,0,1
 1343 1731 1343 1731 1346.5 1717 c 128,-1,2
 1350 1703 1350 1703 1350 1681 c 0,3,4
 1350 1669 1350 1669 1348 1633 c 128,-1,5
 1346 1597 1346 1597 1346 1544 c 0,6,7
 1346 1451 1346 1451 1353.5 1382.5 c 128,-1,8
 1361 1314 1361 1314 1371 1263.5 c 128,-1,9
 1381 1213 1381 1213 1392 1178 c 128,-1,10
 1403 1143 1403 1143 1411 1118 c 0,11,12
 1417 1098 1417 1098 1426.5 1069.5 c 128,-1,13
 1436 1041 1436 1041 1436 1022 c 0,14,15
 1436 1006 1436 1006 1423 1006 c 0,16,17
 1412 1007 1412 1007 1397 1020.5 c 128,-1,18
 1382 1034 1382 1034 1365.5 1053 c 128,-1,19
 1349 1072 1349 1072 1333.5 1093 c 128,-1,20
 1318 1114 1318 1114 1307 1130 c 0,21,22
 1262 1190 1262 1190 1214 1237 c 128,-1,23
 1166 1284 1166 1284 1107.5 1317 c 128,-1,24
 1049 1350 1049 1350 977.5 1367 c 128,-1,25
 906 1384 906 1384 815 1384 c 0,26,27
 711 1384 711 1384 620 1343.5 c 128,-1,28
 529 1303 529 1303 461.5 1220 c 128,-1,29
 394 1137 394 1137 354.5 1011.5 c 128,-1,30
 315 886 315 886 315 717 c 0,31,32
 315 561 315 561 342.5 439.5 c 128,-1,33
 370 318 370 318 416 227.5 c 128,-1,34
 462 137 462 137 522.5 74.5 c 128,-1,35
 583 12 583 12 649.5 -27 c 128,-1,36
 716 -66 716 -66 784 -83 c 128,-1,37
 852 -100 852 -100 913 -100 c 0,38,39
 1007 -100 1007 -100 1080 -77 c 128,-1,40
 1153 -54 1153 -54 1209 -15.5 c 128,-1,41
 1265 23 1265 23 1305 73 c 128,-1,42
 1345 123 1345 123 1372 177.5 c 128,-1,43
 1399 232 1399 232 1415 286.5 c 128,-1,44
 1431 341 1431 341 1438 389 c 0,45,46
 1442 419 1442 419 1444.5 449.5 c 128,-1,47
 1447 480 1447 480 1449.5 505 c 128,-1,48
 1452 530 1452 530 1456.5 545.5 c 128,-1,49
 1461 561 1461 561 1470 561 c 0,50,51
 1499 561 1499 561 1499 459 c 0,52,53
 1499 433 1499 433 1495.5 391 c 128,-1,54
 1492 349 1492 349 1480.5 297 c 128,-1,55
 1469 245 1469 245 1448 187.5 c 128,-1,56
 1427 130 1427 130 1392.5 73.5 c 128,-1,57
 1358 17 1358 17 1308.5 -34 c 128,-1,58
 1259 -85 1259 -85 1190 -124 c 128,-1,59
 1121 -163 1121 -163 1030.5 -186 c 128,-1,60
 940 -209 940 -209 825 -209 c 0,61,62
 728 -209 728 -209 629.5 -189 c 128,-1,63
 531 -169 531 -169 440.5 -127.5 c 128,-1,64
 350 -86 350 -86 271.5 -21.5 c 128,-1,65
 193 43 193 43 135 132.5 c 128,-1,66
 77 222 77 222 43.5 337.5 c 128,-1,67
 10 453 10 453 10 596 c 0,68,69
 10 767 10 767 46 896 c 128,-1,70
 82 1025 82 1025 143 1119 c 128,-1,71
 204 1213 204 1213 283.5 1274.5 c 128,-1,72
 363 1336 363 1336 450.5 1373 c 128,-1,73
 538 1410 538 1410 627.5 1425 c 128,-1,74
 717 1440 717 1440 797 1440 c 0,75,76
 857 1440 857 1440 906.5 1435 c 128,-1,77
 956 1430 956 1430 997.5 1424.5 c 128,-1,78
 1039 1419 1039 1419 1073.5 1414 c 128,-1,79
 1108 1409 1108 1409 1137 1409 c 0,80,81
 1188 1409 1188 1409 1222 1430.5 c 128,-1,82
 1256 1452 1256 1452 1272 1513 c 0,83,84
 1282 1555 1282 1555 1286.5 1594 c 128,-1,85
 1291 1633 1291 1633 1295.5 1663.5 c 128,-1,86
 1300 1694 1300 1694 1307 1712.5 c 128,-1,87
 1314 1731 1314 1731 1329 1731 c 0,0,1
EndSplineSet
EndChar

StartChar: D
Encoding: 68 68 39
Width: 1487
GlyphClass: 2
Flags: W
LayerCount: 2
Back
Fore
SplineSet
883 1368 m 0,0,1
 987 1368 987 1368 1070 1344 c 128,-1,2
 1153 1320 1153 1320 1217 1278 c 128,-1,3
 1281 1236 1281 1236 1326 1178.5 c 128,-1,4
 1371 1121 1371 1121 1400 1053.5 c 128,-1,5
 1429 986 1429 986 1442.5 911 c 128,-1,6
 1456 836 1456 836 1456 760 c 0,7,8
 1456 665 1456 665 1437 574 c 128,-1,9
 1418 483 1418 483 1376 403.5 c 128,-1,10
 1334 324 1334 324 1266.5 260 c 128,-1,11
 1199 196 1199 196 1102 154 c 0,12,13
 1048 130 1048 130 997 114 c 128,-1,14
 946 98 946 98 895.5 85.5 c 128,-1,15
 845 73 845 73 793 61 c 128,-1,16
 741 49 741 49 685.5 33.5 c 128,-1,17
 630 18 630 18 570 -4 c 128,-1,18
 510 -26 510 -26 442 -59 c 0,19,20
 334 -112 334 -112 262 -162.5 c 128,-1,21
 190 -213 190 -213 142.5 -253 c 128,-1,22
 95 -293 95 -293 67 -317.5 c 128,-1,23
 39 -342 39 -342 20 -342 c 0,24,25
 0 -342 0 -342 0 -322 c 0,26,27
 0 -309 0 -309 16.5 -293.5 c 128,-1,28
 33 -278 33 -278 60 -255.5 c 128,-1,29
 87 -233 87 -233 120 -201 c 128,-1,30
 153 -169 153 -169 186 -123 c 0,31,32
 230 -63 230 -63 259 11 c 128,-1,33
 288 85 288 85 297 170 c 0,34,35
 299 192 299 192 301.5 228.5 c 128,-1,36
 304 265 304 265 305.5 311.5 c 128,-1,37
 307 358 307 358 308 412.5 c 128,-1,38
 309 467 309 467 309 526 c 0,39,40
 309 618 309 618 306 714.5 c 128,-1,41
 303 811 303 811 296.5 897 c 128,-1,42
 290 983 290 983 279 1051.5 c 128,-1,43
 268 1120 268 1120 252 1157 c 0,44,45
 238 1189 238 1189 217.5 1210 c 128,-1,46
 197 1231 197 1231 175.5 1245 c 128,-1,47
 154 1259 154 1259 132.5 1267.5 c 128,-1,48
 111 1276 111 1276 93.5 1282.5 c 128,-1,49
 76 1289 76 1289 65.5 1295.5 c 128,-1,50
 55 1302 55 1302 55 1311 c 0,51,52
 55 1327 55 1327 82 1327 c 0,53,54
 100 1327 100 1327 121.5 1324.5 c 128,-1,55
 143 1322 143 1322 171 1319 c 128,-1,56
 199 1316 199 1316 234 1313.5 c 128,-1,57
 269 1311 269 1311 315 1311 c 0,58,59
 389 1311 389 1311 464 1320 c 128,-1,60
 539 1329 539 1329 611.5 1339.5 c 128,-1,61
 684 1350 684 1350 752.5 1359 c 128,-1,62
 821 1368 821 1368 883 1368 c 0,0,1
737 1300 m 0,63,64
 632 1300 632 1300 571 1277 c 128,-1,65
 510 1254 510 1254 498 1217 c 0,66,67
 490 1192 490 1192 485.5 1142 c 128,-1,68
 481 1092 481 1092 481 1026 c 0,69,70
 481 951 481 951 484.5 862.5 c 128,-1,71
 488 774 488 774 493.5 689.5 c 128,-1,72
 499 605 499 605 505.5 531.5 c 128,-1,73
 512 458 512 458 518 412 c 0,74,75
 524 365 524 365 532.5 329 c 128,-1,76
 541 293 541 293 550.5 265 c 128,-1,77
 560 237 560 237 572 216 c 128,-1,78
 584 195 584 195 598 178 c 0,79,80
 613 160 613 160 634 147 c 128,-1,81
 655 134 655 134 678.5 126 c 128,-1,82
 702 118 702 118 726.5 114.5 c 128,-1,83
 751 111 751 111 774 111 c 0,84,85
 851 111 851 111 910.5 139.5 c 128,-1,86
 970 168 970 168 1014.5 215.5 c 128,-1,87
 1059 263 1059 263 1090 325.5 c 128,-1,88
 1121 388 1121 388 1140 457 c 128,-1,89
 1159 526 1159 526 1167.5 596.5 c 128,-1,90
 1176 667 1176 667 1176 731 c 0,91,92
 1176 840 1176 840 1155.5 924.5 c 128,-1,93
 1135 1009 1135 1009 1101 1072.5 c 128,-1,94
 1067 1136 1067 1136 1022.5 1179 c 128,-1,95
 978 1222 978 1222 929 1249 c 128,-1,96
 880 1276 880 1276 830.5 1288 c 128,-1,97
 781 1300 781 1300 737 1300 c 0,63,64
EndSplineSet
EndChar

StartChar: E
Encoding: 69 69 40
Width: 1141
GlyphClass: 2
Flags: W
LayerCount: 2
Back
Fore
SplineSet
1004 1642 m 0,0,1
 1019 1642 1019 1642 1024.5 1635 c 128,-1,2
 1030 1628 1030 1628 1030 1614 c 0,3,4
 1030 1596 1030 1596 1027.5 1573 c 128,-1,5
 1025 1550 1025 1550 1022 1515.5 c 128,-1,6
 1019 1481 1019 1481 1016.5 1432.5 c 128,-1,7
 1014 1384 1014 1384 1014 1315 c 0,8,9
 1014 1302 1014 1302 1010 1292 c 128,-1,10
 1006 1282 1006 1282 995 1282 c 0,11,12
 979 1282 979 1282 973 1315 c 0,13,14
 968 1336 968 1336 964.5 1368.5 c 128,-1,15
 961 1401 961 1401 954 1448 c 0,16,17
 949 1486 949 1486 937.5 1507 c 128,-1,18
 926 1528 926 1528 909.5 1538 c 128,-1,19
 893 1548 893 1548 874 1550 c 128,-1,20
 855 1552 855 1552 836 1552 c 0,21,22
 797 1552 797 1552 746.5 1548.5 c 128,-1,23
 696 1545 696 1545 648 1540.5 c 128,-1,24
 600 1536 600 1536 561.5 1531 c 128,-1,25
 523 1526 523 1526 508 1522 c 0,26,27
 476 1514 476 1514 468.5 1495.5 c 128,-1,28
 461 1477 461 1477 461 1452 c 0,29,30
 461 1430 461 1430 462 1388.5 c 128,-1,31
 463 1347 463 1347 465 1293.5 c 128,-1,32
 467 1240 467 1240 470 1178.5 c 128,-1,33
 473 1117 473 1117 475.5 1055 c 128,-1,34
 478 993 478 993 480.5 935 c 128,-1,35
 483 877 483 877 485 831 c 1,36,37
 507 828 507 828 535.5 825.5 c 128,-1,38
 564 823 564 823 592 823 c 0,39,40
 625 823 625 823 647.5 827.5 c 128,-1,41
 670 832 670 832 685.5 840 c 128,-1,42
 701 848 701 848 710 859.5 c 128,-1,43
 719 871 719 871 725 885 c 0,44,45
 731 900 731 900 733.5 914 c 128,-1,46
 736 928 736 928 739 946 c 0,47,48
 742 965 742 965 748 971 c 128,-1,49
 754 977 754 977 760 977 c 0,50,51
 774 977 774 977 774 952 c 0,52,53
 774 930 774 930 771.5 898 c 128,-1,54
 769 866 769 866 766 831 c 128,-1,55
 763 796 763 796 760.5 760 c 128,-1,56
 758 724 758 724 758 694 c 0,57,58
 758 667 758 667 758.5 640 c 128,-1,59
 759 613 759 613 760 590 c 128,-1,60
 761 567 761 567 761.5 549 c 128,-1,61
 762 531 762 531 762 522 c 0,62,63
 762 508 762 508 756.5 495.5 c 128,-1,64
 751 483 751 483 737 483 c 0,65,66
 714 483 714 483 711 524 c 0,67,68
 710 534 710 534 709.5 552 c 128,-1,69
 709 570 709 570 708 590 c 128,-1,70
 707 610 707 610 704.5 630 c 128,-1,71
 702 650 702 650 698 664 c 0,72,73
 693 681 693 681 680 697.5 c 128,-1,74
 667 714 667 714 639 723 c 0,75,76
 627 727 627 727 609.5 730 c 128,-1,77
 592 733 592 733 571.5 735 c 128,-1,78
 551 737 551 737 529.5 738.5 c 128,-1,79
 508 740 508 740 489 741 c 1,80,81
 492 691 492 691 496.5 617.5 c 128,-1,82
 501 544 501 544 506.5 462.5 c 128,-1,83
 512 381 512 381 518 298 c 128,-1,84
 524 215 524 215 529 146 c 128,-1,85
 534 77 534 77 537.5 29.5 c 128,-1,86
 541 -18 541 -18 543 -29 c 0,87,88
 547 -70 547 -70 564 -89 c 128,-1,89
 581 -108 581 -108 618 -113 c 0,90,91
 658 -119 658 -119 715 -119 c 0,92,93
 791 -119 791 -119 849 -111 c 128,-1,94
 907 -103 907 -103 950 -83 c 128,-1,95
 993 -63 993 -63 1023 -29.5 c 128,-1,96
 1053 4 1053 4 1073 55 c 0,97,98
 1084 82 1084 82 1091.5 108.5 c 128,-1,99
 1099 135 1099 135 1104.5 156 c 128,-1,100
 1110 177 1110 177 1115 190 c 128,-1,101
 1120 203 1120 203 1126 203 c 0,102,103
 1134 203 1134 203 1137.5 184.5 c 128,-1,104
 1141 166 1141 166 1141 141 c 0,105,106
 1141 105 1141 105 1137.5 61.5 c 128,-1,107
 1134 18 1134 18 1128 -24 c 128,-1,108
 1122 -66 1122 -66 1114.5 -102 c 128,-1,109
 1107 -138 1107 -138 1100 -158 c 0,110,111
 1087 -190 1087 -190 1065 -202.5 c 128,-1,112
 1043 -215 1043 -215 1006 -215 c 0,113,114
 974 -215 974 -215 919 -209.5 c 128,-1,115
 864 -204 864 -204 792.5 -196.5 c 128,-1,116
 721 -189 721 -189 638.5 -181 c 128,-1,117
 556 -173 556 -173 469 -168 c 0,118,119
 402 -164 402 -164 341.5 -162 c 128,-1,120
 281 -160 281 -160 231 -159 c 128,-1,121
 181 -158 181 -158 144 -158 c 128,-1,122
 107 -158 107 -158 86 -158 c 0,123,124
 58 -158 58 -158 49.5 -150.5 c 128,-1,125
 41 -143 41 -143 41 -131 c 0,126,127
 41 -116 41 -116 52 -110 c 128,-1,128
 63 -104 63 -104 80 -104 c 0,129,130
 91 -104 91 -104 117.5 -106.5 c 128,-1,131
 144 -109 144 -109 182 -109 c 0,132,133
 195 -109 195 -109 208.5 -108.5 c 128,-1,134
 222 -108 222 -108 238 -106 c 0,135,136
 274 -105 274 -105 293.5 -93.5 c 128,-1,137
 313 -82 313 -82 322 -66.5 c 128,-1,138
 331 -51 331 -51 332.5 -34 c 128,-1,139
 334 -17 334 -17 334 -4 c 0,140,141
 332 93 332 93 323.5 203.5 c 128,-1,142
 315 314 315 314 305.5 419 c 128,-1,143
 296 524 296 524 286.5 612 c 128,-1,144
 277 700 277 700 272 752 c 0,145,146
 269 786 269 786 264 833.5 c 128,-1,147
 259 881 259 881 252.5 935 c 128,-1,148
 246 989 246 989 238.5 1045.5 c 128,-1,149
 231 1102 231 1102 223.5 1155.5 c 128,-1,150
 216 1209 216 1209 208.5 1255 c 128,-1,151
 201 1301 201 1301 195 1333 c 0,152,153
 187 1372 187 1372 177.5 1400 c 128,-1,154
 168 1428 168 1428 157 1449 c 128,-1,155
 146 1470 146 1470 133.5 1485 c 128,-1,156
 121 1500 121 1500 106 1511 c 0,157,158
 95 1520 95 1520 80 1528.5 c 128,-1,159
 65 1537 65 1537 51.5 1545 c 128,-1,160
 38 1553 38 1553 29 1560.5 c 128,-1,161
 20 1568 20 1568 20 1577 c 0,162,163
 20 1593 20 1593 47 1593 c 0,164,165
 61 1593 61 1593 86 1589.5 c 128,-1,166
 111 1586 111 1586 148.5 1582 c 128,-1,167
 186 1578 186 1578 237.5 1574.5 c 128,-1,168
 289 1571 289 1571 356 1571 c 0,169,170
 408 1571 408 1571 473 1576.5 c 128,-1,171
 538 1582 538 1582 606.5 1589.5 c 128,-1,172
 675 1597 675 1597 742 1606.5 c 128,-1,173
 809 1616 809 1616 864 1623.5 c 128,-1,174
 919 1631 919 1631 956.5 1636.5 c 128,-1,175
 994 1642 994 1642 1004 1642 c 0,0,1
EndSplineSet
EndChar

StartChar: F
Encoding: 70 70 41
Width: 1092
GlyphClass: 2
Flags: W
LayerCount: 2
Back
Fore
SplineSet
1079 1724 m 0,0,1
 1102 1724 1102 1724 1117.5 1710.5 c 128,-1,2
 1133 1697 1133 1697 1133 1659 c 0,3,4
 1133 1632 1133 1632 1126 1588.5 c 128,-1,5
 1119 1545 1119 1545 1110 1501 c 128,-1,6
 1101 1457 1101 1457 1092.5 1420.5 c 128,-1,7
 1084 1384 1084 1384 1081 1370 c 0,8,9
 1079 1361 1079 1361 1073.5 1339 c 128,-1,10
 1068 1317 1068 1317 1059.5 1290 c 128,-1,11
 1051 1263 1051 1263 1041.5 1234 c 128,-1,12
 1032 1205 1032 1205 1022 1181 c 128,-1,13
 1012 1157 1012 1157 1002.5 1141.5 c 128,-1,14
 993 1126 993 1126 985 1126 c 0,15,16
 980 1126 980 1126 976.5 1131 c 128,-1,17
 973 1136 973 1136 973 1153 c 256,18,19
 973 1170 973 1170 976 1200.5 c 128,-1,20
 979 1231 979 1231 982 1268.5 c 128,-1,21
 985 1306 985 1306 988 1346.5 c 128,-1,22
 991 1387 991 1387 991 1423 c 0,23,24
 991 1478 991 1478 979.5 1509.5 c 128,-1,25
 968 1541 968 1541 946.5 1557.5 c 128,-1,26
 925 1574 925 1574 894.5 1578.5 c 128,-1,27
 864 1583 864 1583 827 1583 c 0,28,29
 778 1583 778 1583 718.5 1576.5 c 128,-1,30
 659 1570 659 1570 606 1556 c 0,31,32
 562 1545 562 1545 548.5 1518 c 128,-1,33
 535 1491 535 1491 535 1448 c 0,34,35
 535 1441 535 1441 536 1392 c 128,-1,36
 537 1343 537 1343 539 1266 c 128,-1,37
 541 1189 541 1189 543.5 1089.5 c 128,-1,38
 546 990 546 990 549 883 c 1,39,40
 577 885 577 885 606 888.5 c 128,-1,41
 635 892 635 892 655 901 c 0,42,43
 676 910 676 910 690.5 924.5 c 128,-1,44
 705 939 705 939 714 955.5 c 128,-1,45
 723 972 723 972 728.5 989 c 128,-1,46
 734 1006 734 1006 737 1020 c 0,47,48
 753 1084 753 1084 762 1110.5 c 128,-1,49
 771 1137 771 1137 786 1137 c 0,50,51
 805 1137 805 1137 805 1100 c 0,52,53
 805 1082 805 1082 801 1057 c 128,-1,54
 797 1032 797 1032 791.5 1000.5 c 128,-1,55
 786 969 786 969 782 931 c 128,-1,56
 778 893 778 893 778 850 c 0,57,58
 778 811 778 811 779.5 770 c 128,-1,59
 781 729 781 729 783 694 c 128,-1,60
 785 659 785 659 786.5 631.5 c 128,-1,61
 788 604 788 604 788 592 c 0,62,63
 788 558 788 558 781.5 541 c 128,-1,64
 775 524 775 524 764 524 c 0,65,66
 752 524 752 524 744 542.5 c 128,-1,67
 736 561 736 561 735 614 c 0,68,69
 734 653 734 653 730.5 685.5 c 128,-1,70
 727 718 727 718 717.5 742.5 c 128,-1,71
 708 767 708 767 691 783.5 c 128,-1,72
 674 800 674 800 647 809 c 0,73,74
 630 814 630 814 603.5 815.5 c 128,-1,75
 577 817 577 817 551 817 c 1,76,77
 554 710 554 710 557.5 604 c 128,-1,78
 561 498 561 498 564 407.5 c 128,-1,79
 567 317 567 317 570 249 c 128,-1,80
 573 181 573 181 575 150 c 0,81,82
 578 102 578 102 587 72.5 c 128,-1,83
 596 43 596 43 611 25 c 128,-1,84
 626 7 626 7 646 -2 c 128,-1,85
 666 -11 666 -11 692 -18 c 0,86,87
 701 -21 701 -21 712 -23 c 128,-1,88
 723 -25 723 -25 733.5 -29 c 128,-1,89
 744 -33 744 -33 751 -38.5 c 128,-1,90
 758 -44 758 -44 758 -53 c 256,91,92
 758 -62 758 -62 752.5 -67 c 128,-1,93
 747 -72 747 -72 738.5 -74.5 c 128,-1,94
 730 -77 730 -77 720.5 -77.5 c 128,-1,95
 711 -78 711 -78 702 -78 c 0,96,97
 687 -78 687 -78 660 -74.5 c 128,-1,98
 633 -71 633 -71 598 -67.5 c 128,-1,99
 563 -64 563 -64 523 -60.5 c 128,-1,100
 483 -57 483 -57 442 -57 c 0,101,102
 405 -57 405 -57 371 -59.5 c 128,-1,103
 337 -62 337 -62 301 -65.5 c 128,-1,104
 265 -69 265 -69 226 -71.5 c 128,-1,105
 187 -74 187 -74 141 -74 c 0,106,107
 113 -74 113 -74 96 -71 c 128,-1,108
 79 -68 79 -68 70 -63.5 c 128,-1,109
 61 -59 61 -59 58 -53 c 128,-1,110
 55 -47 55 -47 55 -41 c 0,111,112
 55 -18 55 -18 92 -12 c 0,113,114
 101 -11 101 -11 121 -9.5 c 128,-1,115
 141 -8 141 -8 165.5 -6 c 128,-1,116
 190 -4 190 -4 216 -0.5 c 128,-1,117
 242 3 242 3 262 8 c 0,118,119
 283 14 283 14 304 24.5 c 128,-1,120
 325 35 325 35 341 53.5 c 128,-1,121
 357 72 357 72 367 102.5 c 128,-1,122
 377 133 377 133 377 180 c 0,123,124
 377 260 377 260 370.5 364 c 128,-1,125
 364 468 364 468 353.5 580.5 c 128,-1,126
 343 693 343 693 329.5 806.5 c 128,-1,127
 316 920 316 920 301.5 1021.5 c 128,-1,128
 287 1123 287 1123 273 1203.5 c 128,-1,129
 259 1284 259 1284 248 1331 c 0,130,131
 239 1369 239 1369 222 1392.5 c 128,-1,132
 205 1416 205 1416 183.5 1429.5 c 128,-1,133
 162 1443 162 1443 136.5 1449.5 c 128,-1,134
 111 1456 111 1456 84 1460 c 0,135,136
 55 1465 55 1465 37.5 1473 c 128,-1,137
 20 1481 20 1481 20 1499 c 0,138,139
 20 1516 20 1516 33.5 1522 c 128,-1,140
 47 1528 47 1528 66 1528 c 0,141,142
 151 1528 151 1528 279 1540 c 128,-1,143
 407 1552 407 1552 569 1589 c 0,144,145
 694 1617 694 1617 778.5 1642 c 128,-1,146
 863 1667 863 1667 920 1685 c 128,-1,147
 977 1703 977 1703 1013.5 1713.5 c 128,-1,148
 1050 1724 1050 1724 1079 1724 c 0,0,1
EndSplineSet
PairPos2: "'kern' Horizontal Kerning lookup 0 per glyph data 1" f_h dx=0 dy=0 dh=133 dv=0 dx=0 dy=0 dh=0 dv=0
PairPos2: "'kern' Horizontal Kerning lookup 0 per glyph data 1" f_k dx=0 dy=0 dh=133 dv=0 dx=0 dy=0 dh=0 dv=0
PairPos2: "'kern' Horizontal Kerning lookup 0 per glyph data 1" f_b dx=0 dy=0 dh=133 dv=0 dx=0 dy=0 dh=0 dv=0
PairPos2: "'kern' Horizontal Kerning lookup 0 per glyph data 1" j_j dx=0 dy=0 dh=-154 dv=0 dx=0 dy=0 dh=0 dv=0
PairPos2: "'kern' Horizontal Kerning lookup 0 per glyph data 1" o_o dx=0 dy=0 dh=-113 dv=0 dx=0 dy=0 dh=0 dv=0
PairPos2: "'kern' Horizontal Kerning lookup 0 per glyph data 1" a_a dx=0 dy=0 dh=-143 dv=0 dx=0 dy=0 dh=0 dv=0
PairPos2: "'kern' Horizontal Kerning lookup 0 per glyph data 1" o.cmp dx=0 dy=0 dh=-61 dv=0 dx=0 dy=0 dh=0 dv=0
PairPos2: "'kern' Horizontal Kerning lookup 0 per glyph data 1" oe dx=0 dy=0 dh=-113 dv=0 dx=0 dy=0 dh=0 dv=0
PairPos2: "'kern' Horizontal Kerning lookup 0 per glyph data 1" ydieresis dx=0 dy=0 dh=-154 dv=0 dx=0 dy=0 dh=0 dv=0
PairPos2: "'kern' Horizontal Kerning lookup 0 per glyph data 1" yacute dx=0 dy=0 dh=-154 dv=0 dx=0 dy=0 dh=0 dv=0
PairPos2: "'kern' Horizontal Kerning lookup 0 per glyph data 1" udieresis dx=0 dy=0 dh=-164 dv=0 dx=0 dy=0 dh=0 dv=0
PairPos2: "'kern' Horizontal Kerning lookup 0 per glyph data 1" ucircumflex dx=0 dy=0 dh=-164 dv=0 dx=0 dy=0 dh=0 dv=0
PairPos2: "'kern' Horizontal Kerning lookup 0 per glyph data 1" uacute dx=0 dy=0 dh=-164 dv=0 dx=0 dy=0 dh=0 dv=0
PairPos2: "'kern' Horizontal Kerning lookup 0 per glyph data 1" ugrave dx=0 dy=0 dh=-164 dv=0 dx=0 dy=0 dh=0 dv=0
PairPos2: "'kern' Horizontal Kerning lookup 0 per glyph data 1" oslash dx=0 dy=0 dh=-113 dv=0 dx=0 dy=0 dh=0 dv=0
PairPos2: "'kern' Horizontal Kerning lookup 0 per glyph data 1" odieresis dx=0 dy=0 dh=-113 dv=0 dx=0 dy=0 dh=0 dv=0
PairPos2: "'kern' Horizontal Kerning lookup 0 per glyph data 1" otilde dx=0 dy=0 dh=-113 dv=0 dx=0 dy=0 dh=0 dv=0
PairPos2: "'kern' Horizontal Kerning lookup 0 per glyph data 1" ocircumflex dx=0 dy=0 dh=-113 dv=0 dx=0 dy=0 dh=0 dv=0
PairPos2: "'kern' Horizontal Kerning lookup 0 per glyph data 1" oacute dx=0 dy=0 dh=-113 dv=0 dx=0 dy=0 dh=0 dv=0
PairPos2: "'kern' Horizontal Kerning lookup 0 per glyph data 1" ograve dx=0 dy=0 dh=-113 dv=0 dx=0 dy=0 dh=0 dv=0
PairPos2: "'kern' Horizontal Kerning lookup 0 per glyph data 1" ntilde dx=0 dy=0 dh=-72 dv=0 dx=0 dy=0 dh=0 dv=0
PairPos2: "'kern' Horizontal Kerning lookup 0 per glyph data 1" edieresis dx=0 dy=0 dh=-72 dv=0 dx=0 dy=0 dh=0 dv=0
PairPos2: "'kern' Horizontal Kerning lookup 0 per glyph data 1" ecircumflex dx=0 dy=0 dh=-72 dv=0 dx=0 dy=0 dh=0 dv=0
PairPos2: "'kern' Horizontal Kerning lookup 0 per glyph data 1" eacute dx=0 dy=0 dh=-72 dv=0 dx=0 dy=0 dh=0 dv=0
PairPos2: "'kern' Horizontal Kerning lookup 0 per glyph data 1" egrave dx=0 dy=0 dh=-72 dv=0 dx=0 dy=0 dh=0 dv=0
PairPos2: "'kern' Horizontal Kerning lookup 0 per glyph data 1" ccedilla dx=0 dy=0 dh=-61 dv=0 dx=0 dy=0 dh=0 dv=0
PairPos2: "'kern' Horizontal Kerning lookup 0 per glyph data 1" ae dx=0 dy=0 dh=-143 dv=0 dx=0 dy=0 dh=0 dv=0
PairPos2: "'kern' Horizontal Kerning lookup 0 per glyph data 1" aring dx=0 dy=0 dh=-143 dv=0 dx=0 dy=0 dh=0 dv=0
PairPos2: "'kern' Horizontal Kerning lookup 0 per glyph data 1" adieresis dx=0 dy=0 dh=-143 dv=0 dx=0 dy=0 dh=0 dv=0
PairPos2: "'kern' Horizontal Kerning lookup 0 per glyph data 1" atilde dx=0 dy=0 dh=-143 dv=0 dx=0 dy=0 dh=0 dv=0
PairPos2: "'kern' Horizontal Kerning lookup 0 per glyph data 1" acircumflex dx=0 dy=0 dh=-143 dv=0 dx=0 dy=0 dh=0 dv=0
PairPos2: "'kern' Horizontal Kerning lookup 0 per glyph data 1" aacute dx=0 dy=0 dh=-143 dv=0 dx=0 dy=0 dh=0 dv=0
PairPos2: "'kern' Horizontal Kerning lookup 0 per glyph data 1" agrave dx=0 dy=0 dh=31 dv=0 dx=0 dy=0 dh=0 dv=0
PairPos2: "'kern' Horizontal Kerning lookup 0 per glyph data 1" Idieresis dx=0 dy=0 dh=102 dv=0 dx=0 dy=0 dh=0 dv=0
PairPos2: "'kern' Horizontal Kerning lookup 0 per glyph data 1" Icircumflex dx=0 dy=0 dh=102 dv=0 dx=0 dy=0 dh=0 dv=0
PairPos2: "'kern' Horizontal Kerning lookup 0 per glyph data 1" Iacute dx=0 dy=0 dh=102 dv=0 dx=0 dy=0 dh=0 dv=0
PairPos2: "'kern' Horizontal Kerning lookup 0 per glyph data 1" Igrave dx=0 dy=0 dh=102 dv=0 dx=0 dy=0 dh=0 dv=0
PairPos2: "'kern' Horizontal Kerning lookup 0 per glyph data 1" AE dx=0 dy=0 dh=-174 dv=0 dx=0 dy=0 dh=0 dv=0
PairPos2: "'kern' Horizontal Kerning lookup 0 per glyph data 1" Aring dx=0 dy=0 dh=-174 dv=0 dx=0 dy=0 dh=0 dv=0
PairPos2: "'kern' Horizontal Kerning lookup 0 per glyph data 1" Adieresis dx=0 dy=0 dh=-174 dv=0 dx=0 dy=0 dh=0 dv=0
PairPos2: "'kern' Horizontal Kerning lookup 0 per glyph data 1" Atilde dx=0 dy=0 dh=-174 dv=0 dx=0 dy=0 dh=0 dv=0
PairPos2: "'kern' Horizontal Kerning lookup 0 per glyph data 1" Acircumflex dx=0 dy=0 dh=-174 dv=0 dx=0 dy=0 dh=0 dv=0
PairPos2: "'kern' Horizontal Kerning lookup 0 per glyph data 1" Aacute dx=0 dy=0 dh=-174 dv=0 dx=0 dy=0 dh=0 dv=0
PairPos2: "'kern' Horizontal Kerning lookup 0 per glyph data 1" Agrave dx=0 dy=0 dh=-174 dv=0 dx=0 dy=0 dh=0 dv=0
PairPos2: "'kern' Horizontal Kerning lookup 0 per glyph data 1" y dx=0 dy=0 dh=-154 dv=0 dx=0 dy=0 dh=0 dv=0
PairPos2: "'kern' Horizontal Kerning lookup 0 per glyph data 1" x dx=0 dy=0 dh=-51 dv=0 dx=0 dy=0 dh=0 dv=0
PairPos2: "'kern' Horizontal Kerning lookup 0 per glyph data 1" w dx=0 dy=0 dh=-174 dv=0 dx=0 dy=0 dh=0 dv=0
PairPos2: "'kern' Horizontal Kerning lookup 0 per glyph data 1" v dx=0 dy=0 dh=-184 dv=0 dx=0 dy=0 dh=0 dv=0
PairPos2: "'kern' Horizontal Kerning lookup 0 per glyph data 1" u dx=0 dy=0 dh=-164 dv=0 dx=0 dy=0 dh=0 dv=0
PairPos2: "'kern' Horizontal Kerning lookup 0 per glyph data 1" s dx=0 dy=0 dh=-164 dv=0 dx=0 dy=0 dh=0 dv=0
PairPos2: "'kern' Horizontal Kerning lookup 0 per glyph data 1" q dx=0 dy=0 dh=-133 dv=0 dx=0 dy=0 dh=0 dv=0
PairPos2: "'kern' Horizontal Kerning lookup 0 per glyph data 1" p dx=0 dy=0 dh=-143 dv=0 dx=0 dy=0 dh=0 dv=0
PairPos2: "'kern' Horizontal Kerning lookup 0 per glyph data 1" o dx=0 dy=0 dh=-113 dv=0 dx=0 dy=0 dh=0 dv=0
PairPos2: "'kern' Horizontal Kerning lookup 0 per glyph data 1" n dx=0 dy=0 dh=-72 dv=0 dx=0 dy=0 dh=0 dv=0
PairPos2: "'kern' Horizontal Kerning lookup 0 per glyph data 1" m dx=0 dy=0 dh=-143 dv=0 dx=0 dy=0 dh=0 dv=0
PairPos2: "'kern' Horizontal Kerning lookup 0 per glyph data 1" l dx=0 dy=0 dh=154 dv=0 dx=0 dy=0 dh=0 dv=0
PairPos2: "'kern' Horizontal Kerning lookup 0 per glyph data 1" j dx=0 dy=0 dh=-154 dv=0 dx=0 dy=0 dh=0 dv=0
PairPos2: "'kern' Horizontal Kerning lookup 0 per glyph data 1" g dx=0 dy=0 dh=-154 dv=0 dx=0 dy=0 dh=0 dv=0
PairPos2: "'kern' Horizontal Kerning lookup 0 per glyph data 1" f dx=0 dy=0 dh=133 dv=0 dx=0 dy=0 dh=0 dv=0
PairPos2: "'kern' Horizontal Kerning lookup 0 per glyph data 1" e dx=0 dy=0 dh=-72 dv=0 dx=0 dy=0 dh=0 dv=0
PairPos2: "'kern' Horizontal Kerning lookup 0 per glyph data 1" d dx=0 dy=0 dh=-143 dv=0 dx=0 dy=0 dh=0 dv=0
PairPos2: "'kern' Horizontal Kerning lookup 0 per glyph data 1" c dx=0 dy=0 dh=-61 dv=0 dx=0 dy=0 dh=0 dv=0
PairPos2: "'kern' Horizontal Kerning lookup 0 per glyph data 1" a dx=0 dy=0 dh=-143 dv=0 dx=0 dy=0 dh=0 dv=0
PairPos2: "'kern' Horizontal Kerning lookup 0 per glyph data 1" S dx=0 dy=0 dh=-174 dv=0 dx=0 dy=0 dh=0 dv=0
PairPos2: "'kern' Horizontal Kerning lookup 0 per glyph data 1" K dx=0 dy=0 dh=61 dv=0 dx=0 dy=0 dh=0 dv=0
PairPos2: "'kern' Horizontal Kerning lookup 0 per glyph data 1" J dx=0 dy=0 dh=-301 dv=0 dx=0 dy=0 dh=0 dv=0
PairPos2: "'kern' Horizontal Kerning lookup 0 per glyph data 1" I dx=0 dy=0 dh=102 dv=0 dx=0 dy=0 dh=0 dv=0
PairPos2: "'kern' Horizontal Kerning lookup 0 per glyph data 1" G dx=0 dy=0 dh=-61 dv=0 dx=0 dy=0 dh=0 dv=0
PairPos2: "'kern' Horizontal Kerning lookup 0 per glyph data 1" F dx=0 dy=0 dh=41 dv=0 dx=0 dy=0 dh=0 dv=0
PairPos2: "'kern' Horizontal Kerning lookup 0 per glyph data 1" A dx=0 dy=0 dh=-174 dv=0 dx=0 dy=0 dh=0 dv=0
EndChar

StartChar: G
Encoding: 71 71 42
Width: 1536
GlyphClass: 2
Flags: W
LayerCount: 2
Back
Fore
SplineSet
788 1335 m 0,0,1
 868 1335 868 1335 928 1325 c 128,-1,2
 988 1315 988 1315 1037.5 1302.5 c 128,-1,3
 1087 1290 1087 1290 1130 1280 c 128,-1,4
 1173 1270 1173 1270 1219 1270 c 0,5,6
 1314 1270 1314 1270 1399 1358 c 0,7,8
 1423 1383 1423 1383 1440.5 1408 c 128,-1,9
 1458 1433 1458 1433 1472 1452.5 c 128,-1,10
 1486 1472 1486 1472 1498.5 1484.5 c 128,-1,11
 1511 1497 1511 1497 1524 1497 c 0,12,13
 1546 1497 1546 1497 1546 1473 c 0,14,15
 1546 1458 1546 1458 1525 1425 c 128,-1,16
 1504 1392 1504 1392 1475 1350 c 128,-1,17
 1446 1308 1446 1308 1415.5 1263 c 128,-1,18
 1385 1218 1385 1218 1366 1180 c 0,19,20
 1347 1141 1347 1141 1333.5 1110 c 128,-1,21
 1320 1079 1320 1079 1308 1048.5 c 128,-1,22
 1296 1018 1296 1018 1284 985.5 c 128,-1,23
 1272 953 1272 953 1257 911 c 0,24,25
 1245 876 1245 876 1231 855 c 128,-1,26
 1217 834 1217 834 1198 834 c 0,27,28
 1174 834 1174 834 1174 874 c 0,29,30
 1174 890 1174 890 1179 921.5 c 128,-1,31
 1184 953 1184 953 1184 991 c 0,32,33
 1184 1135 1184 1135 1084 1210.5 c 128,-1,34
 984 1286 984 1286 799 1286 c 0,35,36
 748 1286 748 1286 691.5 1272 c 128,-1,37
 635 1258 635 1258 580 1226.5 c 128,-1,38
 525 1195 525 1195 475 1144.5 c 128,-1,39
 425 1094 425 1094 387.5 1020.5 c 128,-1,40
 350 947 350 947 327.5 848.5 c 128,-1,41
 305 750 305 750 305 623 c 0,42,43
 305 548 305 548 315 480 c 128,-1,44
 325 412 325 412 343 353 c 128,-1,45
 361 294 361 294 385 246 c 128,-1,46
 409 198 409 198 438 164 c 0,47,48
 475 120 475 120 517 93 c 128,-1,49
 559 66 559 66 601.5 51 c 128,-1,50
 644 36 644 36 684 30.5 c 128,-1,51
 724 25 724 25 758 25 c 0,52,53
 820 25 820 25 869.5 36.5 c 128,-1,54
 919 48 919 48 957 66.5 c 128,-1,55
 995 85 995 85 1021.5 108.5 c 128,-1,56
 1048 132 1048 132 1065 156 c 0,57,58
 1079 175 1079 175 1089 200 c 128,-1,59
 1099 225 1099 225 1105.5 251.5 c 128,-1,60
 1112 278 1112 278 1115 304.5 c 128,-1,61
 1118 331 1118 331 1118 354 c 0,62,63
 1118 393 1118 393 1113.5 429 c 128,-1,64
 1109 465 1109 465 1094.5 492 c 128,-1,65
 1080 519 1080 519 1054 535 c 128,-1,66
 1028 551 1028 551 985 551 c 0,67,68
 928 551 928 551 881.5 543 c 128,-1,69
 835 535 835 535 784 535 c 0,70,71
 763 535 763 535 751 542 c 128,-1,72
 739 549 739 549 739 563 c 0,73,74
 739 576 739 576 749 586 c 128,-1,75
 759 596 759 596 793 596 c 0,76,77
 848 596 848 596 935.5 603.5 c 128,-1,78
 1023 611 1023 611 1145 633 c 0,79,80
 1212 645 1212 645 1260.5 658 c 128,-1,81
 1309 671 1309 671 1343.5 681.5 c 128,-1,82
 1378 692 1378 692 1402 698.5 c 128,-1,83
 1426 705 1426 705 1446 705 c 0,84,85
 1473 705 1473 705 1473 688 c 0,86,87
 1473 679 1473 679 1467 673 c 128,-1,88
 1461 667 1461 667 1450.5 661.5 c 128,-1,89
 1440 656 1440 656 1426 650 c 128,-1,90
 1412 644 1412 644 1397 635 c 0,91,92
 1366 616 1366 616 1350.5 581 c 128,-1,93
 1335 546 1335 546 1335 477 c 0,94,95
 1335 441 1335 441 1338 399 c 128,-1,96
 1341 357 1341 357 1344.5 317.5 c 128,-1,97
 1348 278 1348 278 1352.5 244 c 128,-1,98
 1357 210 1357 210 1360 190 c 0,99,100
 1365 163 1365 163 1368.5 136.5 c 128,-1,101
 1372 110 1372 110 1372 96 c 0,102,103
 1372 85 1372 85 1368 78.5 c 128,-1,104
 1364 72 1364 72 1356 72 c 0,105,106
 1344 72 1344 72 1328.5 81 c 128,-1,107
 1313 90 1313 90 1293.5 101.5 c 128,-1,108
 1274 113 1274 113 1252 122 c 128,-1,109
 1230 131 1230 131 1206 131 c 0,110,111
 1175 131 1175 131 1145.5 118 c 128,-1,112
 1116 105 1116 105 1083 85.5 c 128,-1,113
 1050 66 1050 66 1010 43 c 128,-1,114
 970 20 970 20 916.5 0.5 c 128,-1,115
 863 -19 863 -19 793.5 -32 c 128,-1,116
 724 -45 724 -45 633 -45 c 0,117,118
 503 -45 503 -45 389.5 -1.5 c 128,-1,119
 276 42 276 42 191.5 123 c 128,-1,120
 107 204 107 204 58.5 318 c 128,-1,121
 10 432 10 432 10 573 c 0,122,123
 10 705 10 705 41.5 811 c 128,-1,124
 73 917 73 917 126 998.5 c 128,-1,125
 179 1080 179 1080 247 1139 c 128,-1,126
 315 1198 315 1198 389 1237 c 0,127,128
 445 1267 445 1267 500.5 1286 c 128,-1,129
 556 1305 556 1305 608 1316 c 128,-1,130
 660 1327 660 1327 705.5 1331 c 128,-1,131
 751 1335 751 1335 788 1335 c 0,0,1
EndSplineSet
EndChar

StartChar: H
Encoding: 72 72 43
Width: 1522
GlyphClass: 2
Flags: W
LayerCount: 2
Back
Fore
SplineSet
88 1794 m 0,0,1
 106 1794 106 1794 135.5 1784 c 128,-1,2
 165 1774 165 1774 205.5 1759.5 c 128,-1,3
 246 1745 246 1745 296.5 1729.5 c 128,-1,4
 347 1714 347 1714 406 1702 c 0,5,6
 464 1690 464 1690 528.5 1682.5 c 128,-1,7
 593 1675 593 1675 650 1670.5 c 128,-1,8
 707 1666 707 1666 750.5 1663 c 128,-1,9
 794 1660 794 1660 809 1659 c 0,10,11
 823 1657 823 1657 831.5 1653.5 c 128,-1,12
 840 1650 840 1650 840 1640 c 0,13,14
 840 1629 840 1629 831 1625.5 c 128,-1,15
 822 1622 822 1622 811 1622 c 0,16,17
 789 1622 789 1622 746.5 1625 c 128,-1,18
 704 1628 704 1628 657 1628 c 0,19,20
 622 1628 622 1628 595.5 1621.5 c 128,-1,21
 569 1615 569 1615 551.5 1600 c 128,-1,22
 534 1585 534 1585 524 1560.5 c 128,-1,23
 514 1536 514 1536 512 1499 c 0,24,25
 510 1478 510 1478 509.5 1444.5 c 128,-1,26
 509 1411 509 1411 508.5 1370 c 128,-1,27
 508 1329 508 1329 508 1282.5 c 128,-1,28
 508 1236 508 1236 508 1188 c 0,29,30
 508 1130 508 1130 508 1075 c 128,-1,31
 508 1020 508 1020 508 974 c 128,-1,32
 508 928 508 928 508.5 896 c 128,-1,33
 509 864 509 864 510 852 c 0,34,35
 511 826 511 826 516 810 c 128,-1,36
 521 794 521 794 530 785 c 128,-1,37
 539 776 539 776 551 773 c 128,-1,38
 563 770 563 770 578 770 c 0,39,40
 606 770 606 770 646 772.5 c 128,-1,41
 686 775 686 775 731.5 779 c 128,-1,42
 777 783 777 783 823 788.5 c 128,-1,43
 869 794 869 794 908.5 798.5 c 128,-1,44
 948 803 948 803 978 807 c 128,-1,45
 1008 811 1008 811 1020 813 c 0,46,47
 1054 819 1054 819 1074 836 c 128,-1,48
 1094 853 1094 853 1103.5 877 c 128,-1,49
 1113 901 1113 901 1115.5 931.5 c 128,-1,50
 1118 962 1118 962 1118 995 c 0,51,52
 1118 1040 1118 1040 1114.5 1087.5 c 128,-1,53
 1111 1135 1111 1135 1106 1178 c 128,-1,54
 1101 1221 1101 1221 1095.5 1256 c 128,-1,55
 1090 1291 1090 1291 1087 1309 c 0,56,57
 1081 1348 1081 1348 1069 1369.5 c 128,-1,58
 1057 1391 1057 1391 1042.5 1401.5 c 128,-1,59
 1028 1412 1028 1412 1012.5 1414.5 c 128,-1,60
 997 1417 997 1417 985 1417 c 0,61,62
 951 1417 951 1417 915.5 1415 c 128,-1,63
 880 1413 880 1413 860 1413 c 256,64,65
 840 1413 840 1413 829.5 1421 c 128,-1,66
 819 1429 819 1429 819 1442 c 0,67,68
 819 1453 819 1453 827.5 1463 c 128,-1,69
 836 1473 836 1473 868 1475 c 0,70,71
 898 1476 898 1476 935.5 1478.5 c 128,-1,72
 973 1481 973 1481 1014.5 1485.5 c 128,-1,73
 1056 1490 1056 1490 1099 1496 c 128,-1,74
 1142 1502 1142 1502 1184 1511 c 0,75,76
 1222 1520 1222 1520 1265.5 1532.5 c 128,-1,77
 1309 1545 1309 1545 1350.5 1556.5 c 128,-1,78
 1392 1568 1392 1568 1428 1576.5 c 128,-1,79
 1464 1585 1464 1585 1487 1585 c 256,80,81
 1510 1585 1510 1585 1516 1578 c 128,-1,82
 1522 1571 1522 1571 1522 1563 c 0,83,84
 1522 1549 1522 1549 1510.5 1543.5 c 128,-1,85
 1499 1538 1499 1538 1485 1538 c 0,86,87
 1478 1538 1478 1538 1466 1537 c 128,-1,88
 1454 1536 1454 1536 1441 1533.5 c 128,-1,89
 1428 1531 1428 1531 1415 1527 c 128,-1,90
 1402 1523 1402 1523 1393 1516 c 0,91,92
 1377 1503 1377 1503 1363.5 1480.5 c 128,-1,93
 1350 1458 1350 1458 1343 1413 c 0,94,95
 1338 1377 1338 1377 1335.5 1322.5 c 128,-1,96
 1333 1268 1333 1268 1331 1208 c 128,-1,97
 1329 1148 1329 1148 1327.5 1088 c 128,-1,98
 1326 1028 1326 1028 1325 981 c 0,99,100
 1324 957 1324 957 1322.5 910.5 c 128,-1,101
 1321 864 1321 864 1320 803.5 c 128,-1,102
 1319 743 1319 743 1317.5 671.5 c 128,-1,103
 1316 600 1316 600 1315 526.5 c 128,-1,104
 1314 453 1314 453 1313.5 379.5 c 128,-1,105
 1313 306 1313 306 1313 242 c 0,106,107
 1313 188 1313 188 1313 143 c 128,-1,108
 1313 98 1313 98 1315 66 c 0,109,110
 1316 34 1316 34 1323.5 13.5 c 128,-1,111
 1331 -7 1331 -7 1341 -19.5 c 128,-1,112
 1351 -32 1351 -32 1362.5 -38.5 c 128,-1,113
 1374 -45 1374 -45 1384 -49 c 0,114,115
 1406 -57 1406 -57 1431 -61 c 128,-1,116
 1456 -65 1456 -65 1485 -72 c 0,117,118
 1499 -75 1499 -75 1503 -79.5 c 128,-1,119
 1507 -84 1507 -84 1507 -90 c 0,120,121
 1507 -92 1507 -92 1506 -95.5 c 128,-1,122
 1505 -99 1505 -99 1501.5 -102 c 128,-1,123
 1498 -105 1498 -105 1490 -107 c 128,-1,124
 1482 -109 1482 -109 1468 -109 c 0,125,126
 1456 -109 1456 -109 1425.5 -106.5 c 128,-1,127
 1395 -104 1395 -104 1357 -100.5 c 128,-1,128
 1319 -97 1319 -97 1279 -94.5 c 128,-1,129
 1239 -92 1239 -92 1208 -92 c 0,130,131
 1167 -92 1167 -92 1127 -95.5 c 128,-1,132
 1087 -99 1087 -99 1051 -103.5 c 128,-1,133
 1015 -108 1015 -108 983 -111.5 c 128,-1,134
 951 -115 951 -115 926 -115 c 0,135,136
 884 -115 884 -115 872 -104.5 c 128,-1,137
 860 -94 860 -94 860 -82 c 0,138,139
 860 -66 860 -66 872.5 -61.5 c 128,-1,140
 885 -57 885 -57 903 -57 c 0,141,142
 960 -55 960 -55 998.5 -51.5 c 128,-1,143
 1037 -48 1037 -48 1071 -33 c 0,144,145
 1096 -21 1096 -21 1111.5 -4.5 c 128,-1,146
 1127 12 1127 12 1134.5 31.5 c 128,-1,147
 1142 51 1142 51 1144.5 71.5 c 128,-1,148
 1147 92 1147 92 1147 111 c 0,149,150
 1147 126 1147 126 1145 165 c 128,-1,151
 1143 204 1143 204 1139.5 256.5 c 128,-1,152
 1136 309 1136 309 1131.5 368.5 c 128,-1,153
 1127 428 1127 428 1122 484.5 c 128,-1,154
 1117 541 1117 541 1112.5 588 c 128,-1,155
 1108 635 1108 635 1104 662 c 0,156,157
 1099 692 1099 692 1091.5 709.5 c 128,-1,158
 1084 727 1084 727 1073.5 736 c 128,-1,159
 1063 745 1063 745 1049 747.5 c 128,-1,160
 1035 750 1035 750 1018 750 c 0,161,162
 1000 750 1000 750 963.5 747 c 128,-1,163
 927 744 927 744 881.5 739.5 c 128,-1,164
 836 735 836 735 786.5 729 c 128,-1,165
 737 723 737 723 693.5 717 c 128,-1,166
 650 711 650 711 616 705 c 128,-1,167
 582 699 582 699 569 694 c 0,168,169
 550 688 550 688 539 678 c 128,-1,170
 528 668 528 668 523 656.5 c 128,-1,171
 518 645 518 645 516.5 632.5 c 128,-1,172
 515 620 515 620 514 608 c 0,173,174
 514 579 514 579 514.5 529 c 128,-1,175
 515 479 515 479 515.5 418.5 c 128,-1,176
 516 358 516 358 517 291.5 c 128,-1,177
 518 225 518 225 518.5 163 c 128,-1,178
 519 101 519 101 519.5 48.5 c 128,-1,179
 520 -4 520 -4 520 -37 c 0,180,181
 520 -84 520 -84 526 -113 c 128,-1,182
 532 -142 532 -142 542 -159.5 c 128,-1,183
 552 -177 552 -177 566 -187.5 c 128,-1,184
 580 -198 580 -198 596 -207 c 0,185,186
 613 -216 613 -216 628 -223.5 c 128,-1,187
 643 -231 643 -231 643 -244 c 0,188,189
 643 -252 643 -252 636.5 -255 c 128,-1,190
 630 -258 630 -258 621 -258 c 0,191,192
 600 -258 600 -258 577.5 -252 c 128,-1,193
 555 -246 555 -246 525 -239.5 c 128,-1,194
 495 -233 495 -233 453.5 -227 c 128,-1,195
 412 -221 412 -221 354 -221 c 0,196,197
 294 -221 294 -221 243.5 -228 c 128,-1,198
 193 -235 193 -235 153 -243.5 c 128,-1,199
 113 -252 113 -252 84 -259 c 128,-1,200
 55 -266 55 -266 37 -266 c 0,201,202
 0 -266 0 -266 0 -240 c 0,203,204
 0 -224 0 -224 8.5 -217 c 128,-1,205
 17 -210 17 -210 31 -205 c 0,206,207
 37 -203 37 -203 51 -200 c 128,-1,208
 65 -197 65 -197 84.5 -193.5 c 128,-1,209
 104 -190 104 -190 127 -185 c 128,-1,210
 150 -180 150 -180 174 -174 c 0,211,212
 206 -166 206 -166 224 -152 c 128,-1,213
 242 -138 242 -138 250.5 -120.5 c 128,-1,214
 259 -103 259 -103 261 -83 c 128,-1,215
 263 -63 263 -63 264 -43 c 0,216,217
 264 -37 264 -37 265 -2.5 c 128,-1,218
 266 32 266 32 268 84.5 c 128,-1,219
 270 137 270 137 272 204.5 c 128,-1,220
 274 272 274 272 276 344.5 c 128,-1,221
 278 417 278 417 279 489.5 c 128,-1,222
 280 562 280 562 281 627 c 0,223,224
 281 642 281 642 281.5 676.5 c 128,-1,225
 282 711 282 711 282 759 c 128,-1,226
 282 807 282 807 282.5 866 c 128,-1,227
 283 925 283 925 283 989 c 0,228,229
 283 1074 283 1074 282.5 1162 c 128,-1,230
 282 1250 282 1250 280.5 1326.5 c 128,-1,231
 279 1403 279 1403 276.5 1461 c 128,-1,232
 274 1519 274 1519 270 1544 c 0,233,234
 266 1573 266 1573 259 1595.5 c 128,-1,235
 252 1618 252 1618 240 1636 c 128,-1,236
 228 1654 228 1654 211.5 1669 c 128,-1,237
 195 1684 195 1684 172 1698 c 0,238,239
 150 1711 150 1711 130 1721 c 128,-1,240
 110 1731 110 1731 94.5 1739 c 128,-1,241
 79 1747 79 1747 70 1755.5 c 128,-1,242
 61 1764 61 1764 61 1774 c 0,243,244
 61 1783 61 1783 67 1788.5 c 128,-1,245
 73 1794 73 1794 88 1794 c 0,0,1
EndSplineSet
EndChar

StartChar: I
Encoding: 73 73 44
Width: 899
GlyphClass: 2
Flags: W
LayerCount: 2
Back
Fore
SplineSet
918 1733 m 0,0,1
 952 1733 952 1733 971.5 1729.5 c 128,-1,2
 991 1726 991 1726 1001.5 1721 c 128,-1,3
 1012 1716 1012 1716 1015 1709.5 c 128,-1,4
 1018 1703 1018 1703 1018 1696 c 0,5,6
 1018 1679 1018 1679 996.5 1669 c 128,-1,7
 975 1659 975 1659 926 1659 c 0,8,9
 876 1659 876 1659 833 1656 c 128,-1,10
 790 1653 790 1653 752 1642 c 0,11,12
 718 1633 718 1633 690 1615.5 c 128,-1,13
 662 1598 662 1598 639.5 1569 c 128,-1,14
 617 1540 617 1540 600 1498 c 128,-1,15
 583 1456 583 1456 571 1397 c 0,16,17
 558 1333 558 1333 544.5 1232 c 128,-1,18
 531 1131 531 1131 517.5 1008.5 c 128,-1,19
 504 886 504 886 492 750 c 128,-1,20
 480 614 480 614 471 480 c 128,-1,21
 462 346 462 346 456.5 222 c 128,-1,22
 451 98 451 98 451 0 c 0,23,24
 451 -56 451 -56 460.5 -88.5 c 128,-1,25
 470 -121 470 -121 484.5 -138 c 128,-1,26
 499 -155 499 -155 515 -161 c 128,-1,27
 531 -167 531 -167 543 -170 c 0,28,29
 571 -178 571 -178 607 -179 c 128,-1,30
 643 -180 643 -180 668 -180 c 0,31,32
 717 -180 717 -180 717 -207 c 0,33,34
 717 -219 717 -219 705.5 -229.5 c 128,-1,35
 694 -240 694 -240 655 -240 c 0,36,37
 635 -240 635 -240 609.5 -239 c 128,-1,38
 584 -238 584 -238 553 -238 c 0,39,40
 510 -238 510 -238 456 -241.5 c 128,-1,41
 402 -245 402 -245 336 -254 c 0,42,43
 271 -263 271 -263 208 -283 c 128,-1,44
 145 -303 145 -303 90 -323 c 128,-1,45
 35 -343 35 -343 -8 -358 c 128,-1,46
 -51 -373 -51 -373 -76 -373 c 0,47,48
 -102 -373 -102 -373 -102 -350 c 0,49,50
 -102 -333 -102 -333 -78 -324 c 0,51,52
 -70 -321 -70 -321 -37 -309.5 c 128,-1,53
 -4 -298 -4 -298 37 -283 c 128,-1,54
 78 -268 78 -268 117 -252.5 c 128,-1,55
 156 -237 156 -237 176 -225 c 0,56,57
 206 -208 206 -208 225.5 -187 c 128,-1,58
 245 -166 245 -166 257 -140.5 c 128,-1,59
 269 -115 269 -115 274.5 -85 c 128,-1,60
 280 -55 280 -55 283 -20 c 0,61,62
 285 20 285 20 287 94 c 128,-1,63
 289 168 289 168 290.5 264 c 128,-1,64
 292 360 292 360 292.5 472 c 128,-1,65
 293 584 293 584 293 700 c 0,66,67
 293 794 293 794 292.5 886.5 c 128,-1,68
 292 979 292 979 291.5 1062.5 c 128,-1,69
 291 1146 291 1146 289.5 1216 c 128,-1,70
 288 1286 288 1286 287 1337 c 0,71,72
 285 1412 285 1412 276.5 1459.5 c 128,-1,73
 268 1507 268 1507 255 1536.5 c 128,-1,74
 242 1566 242 1566 225.5 1582 c 128,-1,75
 209 1598 209 1598 190 1610 c 0,76,77
 160 1630 160 1630 109.5 1639.5 c 128,-1,78
 59 1649 59 1649 8 1649 c 0,79,80
 -15 1649 -15 1649 -25 1657.5 c 128,-1,81
 -35 1666 -35 1666 -35 1677 c 0,82,83
 -35 1683 -35 1683 -33 1688.5 c 128,-1,84
 -31 1694 -31 1694 -25 1699 c 128,-1,85
 -19 1704 -19 1704 -6.5 1707 c 128,-1,86
 6 1710 6 1710 27 1710 c 0,87,88
 54 1710 54 1710 97.5 1707 c 128,-1,89
 141 1704 141 1704 193 1701 c 128,-1,90
 245 1698 245 1698 303 1695 c 128,-1,91
 361 1692 361 1692 418 1692 c 0,92,93
 479 1692 479 1692 544 1698.5 c 128,-1,94
 609 1705 609 1705 674 1712.5 c 128,-1,95
 739 1720 739 1720 801 1726.5 c 128,-1,96
 863 1733 863 1733 918 1733 c 0,0,1
EndSplineSet
EndChar

StartChar: J
Encoding: 74 74 45
Width: 1288
GlyphClass: 2
Flags: W
LayerCount: 2
Back
Fore
SplineSet
1364 1878 m 0,0,1
 1378 1878 1378 1878 1384.5 1873 c 128,-1,2
 1391 1868 1391 1868 1391 1860 c 0,3,4
 1391 1846 1391 1846 1376.5 1837 c 128,-1,5
 1362 1828 1362 1828 1337 1819 c 0,6,7
 1314 1809 1314 1809 1272.5 1796 c 128,-1,8
 1231 1783 1231 1783 1180 1755 c 0,9,10
 1157 1742 1157 1742 1135.5 1725 c 128,-1,11
 1114 1708 1114 1708 1096.5 1682.5 c 128,-1,12
 1079 1657 1079 1657 1066.5 1621 c 128,-1,13
 1054 1585 1054 1585 1049 1534 c 0,14,15
 1042 1481 1042 1481 1041 1414 c 128,-1,16
 1040 1347 1040 1347 1040 1264 c 0,17,18
 1040 1193 1040 1193 1039 1107.5 c 128,-1,19
 1038 1022 1038 1022 1032.5 917.5 c 128,-1,20
 1027 813 1027 813 1016.5 687.5 c 128,-1,21
 1006 562 1006 562 987 412 c 0,22,23
 974 309 974 309 948.5 199.5 c 128,-1,24
 923 90 923 90 884 -14 c 128,-1,25
 845 -118 845 -118 791 -210.5 c 128,-1,26
 737 -303 737 -303 666.5 -373 c 128,-1,27
 596 -443 596 -443 508 -483.5 c 128,-1,28
 420 -524 420 -524 313 -524 c 0,29,30
 237 -524 237 -524 180.5 -498.5 c 128,-1,31
 124 -473 124 -473 86 -431 c 128,-1,32
 48 -389 48 -389 29 -335 c 128,-1,33
 10 -281 10 -281 10 -223 c 0,34,35
 10 -146 10 -146 34.5 -93.5 c 128,-1,36
 59 -41 59 -41 96.5 -8.5 c 128,-1,37
 134 24 134 24 179.5 38.5 c 128,-1,38
 225 53 225 53 266 53 c 0,39,40
 360 53 360 53 417.5 7 c 128,-1,41
 475 -39 475 -39 475 -123 c 0,42,43
 475 -200 475 -200 437 -242.5 c 128,-1,44
 399 -285 399 -285 336 -285 c 0,45,46
 298 -285 298 -285 266.5 -274.5 c 128,-1,47
 235 -264 235 -264 203 -264 c 0,48,49
 165 -264 165 -264 145 -284.5 c 128,-1,50
 125 -305 125 -305 125 -342 c 0,51,52
 125 -375 125 -375 139 -401.5 c 128,-1,53
 153 -428 153 -428 178 -446.5 c 128,-1,54
 203 -465 203 -465 236.5 -475 c 128,-1,55
 270 -485 270 -485 309 -485 c 0,56,57
 411 -485 411 -485 488.5 -431 c 128,-1,58
 566 -377 566 -377 623 -285 c 128,-1,59
 680 -193 680 -193 718 -71 c 128,-1,60
 756 51 756 51 779 186 c 128,-1,61
 802 321 802 321 811.5 462 c 128,-1,62
 821 603 821 603 821 733 c 0,63,64
 821 893 821 893 814 1031.5 c 128,-1,65
 807 1170 807 1170 794 1278.5 c 128,-1,66
 781 1387 781 1387 763 1461.5 c 128,-1,67
 745 1536 745 1536 723 1569 c 0,68,69
 704 1598 704 1598 678.5 1614.5 c 128,-1,70
 653 1631 653 1631 625 1639 c 128,-1,71
 597 1647 597 1647 567.5 1649 c 128,-1,72
 538 1651 538 1651 510 1651 c 0,73,74
 487 1651 487 1651 473 1656.5 c 128,-1,75
 459 1662 459 1662 459 1679 c 0,76,77
 459 1692 459 1692 469 1700 c 128,-1,78
 479 1708 479 1708 502 1710 c 0,79,80
 524 1711 524 1711 565.5 1712.5 c 128,-1,81
 607 1714 607 1714 662 1718 c 128,-1,82
 717 1722 717 1722 783.5 1730 c 128,-1,83
 850 1738 850 1738 922 1753 c 0,84,85
 1010 1771 1010 1771 1080.5 1792.5 c 128,-1,86
 1151 1814 1151 1814 1205.5 1833 c 128,-1,87
 1260 1852 1260 1852 1299 1865 c 128,-1,88
 1338 1878 1338 1878 1364 1878 c 0,0,1
EndSplineSet
EndChar

StartChar: K
Encoding: 75 75 46
Width: 1774
GlyphClass: 2
Flags: W
LayerCount: 2
Back
Fore
SplineSet
897 1657 m 0,0,1
 914 1657 914 1657 931.5 1649 c 128,-1,2
 949 1641 949 1641 975.5 1628.5 c 128,-1,3
 1002 1616 1002 1616 1041 1601 c 128,-1,4
 1080 1586 1080 1586 1139 1573 c 0,5,6
 1172 1566 1172 1566 1207 1562 c 128,-1,7
 1242 1558 1242 1558 1276 1556.5 c 128,-1,8
 1310 1555 1310 1555 1342 1554.5 c 128,-1,9
 1374 1554 1374 1554 1401 1554 c 0,10,11
 1416 1554 1416 1554 1430 1553 c 128,-1,12
 1444 1552 1444 1552 1455.5 1549 c 128,-1,13
 1467 1546 1467 1546 1474 1540 c 128,-1,14
 1481 1534 1481 1534 1481 1524 c 0,15,16
 1481 1513 1481 1513 1476 1506.5 c 128,-1,17
 1471 1500 1471 1500 1463.5 1496.5 c 128,-1,18
 1456 1493 1456 1493 1447 1492 c 128,-1,19
 1438 1491 1438 1491 1430 1491 c 0,20,21
 1408 1491 1408 1491 1383 1493 c 128,-1,22
 1358 1495 1358 1495 1329 1495 c 0,23,24
 1238 1495 1238 1495 1173.5 1464.5 c 128,-1,25
 1109 1434 1109 1434 1063 1386 c 0,26,27
 1051 1374 1051 1374 1027.5 1348.5 c 128,-1,28
 1004 1323 1004 1323 976.5 1292 c 128,-1,29
 949 1261 949 1261 920 1226.5 c 128,-1,30
 891 1192 891 1192 867 1162 c 128,-1,31
 843 1132 843 1132 828 1109.5 c 128,-1,32
 813 1087 813 1087 813 1079 c 0,33,34
 813 1064 813 1064 827.5 1020.5 c 128,-1,35
 842 977 842 977 868.5 915 c 128,-1,36
 895 853 895 853 934 778.5 c 128,-1,37
 973 704 973 704 1022 629 c 128,-1,38
 1071 554 1071 554 1129 483.5 c 128,-1,39
 1187 413 1187 413 1253.5 358.5 c 128,-1,40
 1320 304 1320 304 1393 271 c 128,-1,41
 1466 238 1466 238 1544 238 c 0,42,43
 1589 238 1589 238 1624 252 c 128,-1,44
 1659 266 1659 266 1682 290.5 c 128,-1,45
 1705 315 1705 315 1717 349 c 128,-1,46
 1729 383 1729 383 1729 422 c 0,47,48
 1729 460 1729 460 1717.5 497.5 c 128,-1,49
 1706 535 1706 535 1683 569 c 0,50,51
 1666 594 1666 594 1651.5 609.5 c 128,-1,52
 1637 625 1637 625 1626 635.5 c 128,-1,53
 1615 646 1615 646 1608.5 654.5 c 128,-1,54
 1602 663 1602 663 1602 674 c 0,55,56
 1602 682 1602 682 1607 690 c 128,-1,57
 1612 698 1612 698 1626 698 c 0,58,59
 1651 698 1651 698 1684.5 676.5 c 128,-1,60
 1718 655 1718 655 1747 615.5 c 128,-1,61
 1776 576 1776 576 1796.5 519.5 c 128,-1,62
 1817 463 1817 463 1817 393 c 0,63,64
 1817 362 1817 362 1811 325 c 128,-1,65
 1805 288 1805 288 1789.5 251 c 128,-1,66
 1774 214 1774 214 1747.5 180 c 128,-1,67
 1721 146 1721 146 1681 119.5 c 128,-1,68
 1641 93 1641 93 1586 77 c 128,-1,69
 1531 61 1531 61 1458 61 c 0,70,71
 1353 61 1353 61 1261 96.5 c 128,-1,72
 1169 132 1169 132 1089.5 190.5 c 128,-1,73
 1010 249 1010 249 943.5 324 c 128,-1,74
 877 399 877 399 823 477 c 0,75,76
 697 660 697 660 608 893 c 1,77,-1
 498 756 l 1,78,79
 499 681 499 681 499.5 599.5 c 128,-1,80
 500 518 500 518 501.5 439 c 128,-1,81
 503 360 503 360 506.5 287 c 128,-1,82
 510 214 510 214 516 154 c 0,83,84
 522 92 522 92 541 51.5 c 128,-1,85
 560 11 560 11 584 -14.5 c 128,-1,86
 608 -40 608 -40 632 -53.5 c 128,-1,87
 656 -67 656 -67 672 -74 c 0,88,89
 706 -89 706 -89 725.5 -98.5 c 128,-1,90
 745 -108 745 -108 745 -119 c 0,91,92
 745 -124 745 -124 741 -127.5 c 128,-1,93
 737 -131 737 -131 723 -131 c 0,94,95
 691 -131 691 -131 650.5 -118 c 128,-1,96
 610 -105 610 -105 562.5 -89 c 128,-1,97
 515 -73 515 -73 462.5 -60 c 128,-1,98
 410 -47 410 -47 354 -47 c 0,99,100
 314 -47 314 -47 284 -50 c 128,-1,101
 254 -53 254 -53 225 -53 c 256,102,103
 196 -53 196 -53 183 -47.5 c 128,-1,104
 170 -42 170 -42 170 -31 c 0,105,106
 170 -21 170 -21 180 -16 c 128,-1,107
 190 -11 190 -11 205.5 -5.5 c 128,-1,108
 221 0 221 0 239.5 8.5 c 128,-1,109
 258 17 258 17 276 35 c 0,110,111
 299 58 299 58 303 96.5 c 128,-1,112
 307 135 307 135 307 180 c 0,113,114
 307 215 307 215 304.5 281.5 c 128,-1,115
 302 348 302 348 297.5 433 c 128,-1,116
 293 518 293 518 287 616.5 c 128,-1,117
 281 715 281 715 274.5 814 c 128,-1,118
 268 913 268 913 262 1007 c 128,-1,119
 256 1101 256 1101 250.5 1177.5 c 128,-1,120
 245 1254 245 1254 241 1307 c 128,-1,121
 237 1360 237 1360 236 1378 c 0,122,123
 229 1442 229 1442 216.5 1478 c 128,-1,124
 204 1514 204 1514 172 1534 c 0,125,126
 163 1540 163 1540 149 1544 c 128,-1,127
 135 1548 135 1548 120 1551 c 128,-1,128
 105 1554 105 1554 89.5 1555 c 128,-1,129
 74 1556 74 1556 61 1556 c 0,130,131
 55 1556 55 1556 47.5 1557 c 128,-1,132
 40 1558 40 1558 33.5 1560.5 c 128,-1,133
 27 1563 27 1563 22.5 1568 c 128,-1,134
 18 1573 18 1573 18 1581 c 0,135,136
 18 1595 18 1595 28 1601.5 c 128,-1,137
 38 1608 38 1608 53 1610 c 0,138,139
 95 1614 95 1614 131 1614.5 c 128,-1,140
 167 1615 167 1615 203.5 1616 c 128,-1,141
 240 1617 240 1617 279 1619 c 128,-1,142
 318 1621 318 1621 365 1628 c 0,143,144
 438 1639 438 1639 486 1653 c 128,-1,145
 534 1667 534 1667 565.5 1680 c 128,-1,146
 597 1693 597 1693 616.5 1701.5 c 128,-1,147
 636 1710 636 1710 653 1710 c 0,148,149
 674 1710 674 1710 674 1692 c 0,150,151
 674 1681 674 1681 663 1673.5 c 128,-1,152
 652 1666 652 1666 641 1661 c 0,153,154
 626 1653 626 1653 607.5 1644.5 c 128,-1,155
 589 1636 589 1636 567 1622 c 0,156,157
 524 1594 524 1594 508.5 1551.5 c 128,-1,158
 493 1509 493 1509 489 1444 c 0,159,160
 488 1435 488 1435 487.5 1422 c 128,-1,161
 487 1409 487 1409 487 1395 c 128,-1,162
 487 1381 487 1381 487 1367 c 128,-1,163
 487 1353 487 1353 487 1341 c 0,164,165
 487 1245 487 1245 491.5 1128.5 c 128,-1,166
 496 1012 496 1012 498 881 c 2,167,-1
 498 844 l 1,168,169
 515 862 515 862 547 898 c 128,-1,170
 579 934 579 934 619.5 979.5 c 128,-1,171
 660 1025 660 1025 705 1075 c 128,-1,172
 750 1125 750 1125 791 1172.5 c 128,-1,173
 832 1220 832 1220 866 1260.5 c 128,-1,174
 900 1301 900 1301 920 1327 c 0,175,176
 954 1372 954 1372 969.5 1405.5 c 128,-1,177
 985 1439 985 1439 985 1466 c 0,178,179
 985 1489 985 1489 976.5 1508 c 128,-1,180
 968 1527 968 1527 958 1538 c 0,181,182
 945 1554 945 1554 930.5 1567.5 c 128,-1,183
 916 1581 916 1581 903.5 1593 c 128,-1,184
 891 1605 891 1605 882.5 1615 c 128,-1,185
 874 1625 874 1625 874 1634 c 0,186,187
 874 1644 874 1644 879.5 1650.5 c 128,-1,188
 885 1657 885 1657 897 1657 c 0,0,1
EndSplineSet
EndChar

StartChar: L
Encoding: 76 76 47
Width: 1352
GlyphClass: 2
Flags: W
LayerCount: 2
Back
Fore
SplineSet
80 1544 m 0,0,1
 117 1543 117 1543 158 1535 c 128,-1,2
 199 1527 199 1527 250 1516 c 128,-1,3
 301 1505 301 1505 363.5 1494 c 128,-1,4
 426 1483 426 1483 506 1477 c 0,5,6
 548 1474 548 1474 579.5 1472 c 128,-1,7
 611 1470 611 1470 637 1470 c 0,8,9
 667 1470 667 1470 692 1471.5 c 128,-1,10
 717 1473 717 1473 741.5 1475.5 c 128,-1,11
 766 1478 766 1478 793 1479.5 c 128,-1,12
 820 1481 820 1481 854 1481 c 0,13,14
 902 1481 902 1481 916 1472 c 128,-1,15
 930 1463 930 1463 930 1448 c 0,16,17
 930 1432 930 1432 916.5 1425.5 c 128,-1,18
 903 1419 903 1419 879 1417 c 0,19,20
 860 1415 860 1415 835.5 1413.5 c 128,-1,21
 811 1412 811 1412 788 1409 c 0,22,23
 769 1406 769 1406 750.5 1400.5 c 128,-1,24
 732 1395 732 1395 716 1383.5 c 128,-1,25
 700 1372 700 1372 688 1351.5 c 128,-1,26
 676 1331 676 1331 670 1298 c 0,27,28
 661 1248 661 1248 651 1166 c 128,-1,29
 641 1084 641 1084 632 988 c 128,-1,30
 623 892 623 892 615 789 c 128,-1,31
 607 686 607 686 601 593 c 128,-1,32
 595 500 595 500 591.5 424 c 128,-1,33
 588 348 588 348 588 307 c 0,34,35
 588 242 588 242 605.5 213.5 c 128,-1,36
 623 185 623 185 657 174 c 0,37,38
 667 171 667 171 686 168 c 128,-1,39
 705 165 705 165 729.5 163 c 128,-1,40
 754 161 754 161 782.5 159.5 c 128,-1,41
 811 158 811 158 840 158 c 0,42,43
 925 158 925 158 982 172 c 128,-1,44
 1039 186 1039 186 1073.5 215 c 128,-1,45
 1108 244 1108 244 1122.5 287 c 128,-1,46
 1137 330 1137 330 1137 389 c 0,47,48
 1137 441 1137 441 1129 491.5 c 128,-1,49
 1121 542 1121 542 1111 585 c 128,-1,50
 1101 628 1101 628 1093 662 c 128,-1,51
 1085 696 1085 696 1085 715 c 0,52,53
 1085 726 1085 726 1089 733.5 c 128,-1,54
 1093 741 1093 741 1102 741 c 0,55,56
 1114 741 1114 741 1122 730.5 c 128,-1,57
 1130 720 1130 720 1137 705 c 0,58,59
 1149 670 1149 670 1158.5 638.5 c 128,-1,60
 1168 607 1168 607 1178 573 c 128,-1,61
 1188 539 1188 539 1200 500 c 128,-1,62
 1212 461 1212 461 1229 412 c 0,63,64
 1266 305 1266 305 1292.5 236.5 c 128,-1,65
 1319 168 1319 168 1319 137 c 0,66,67
 1319 122 1319 122 1299 113 c 128,-1,68
 1279 104 1279 104 1223 104 c 0,69,70
 1173 104 1173 104 1089 104 c 128,-1,71
 1005 104 1005 104 907 102.5 c 128,-1,72
 809 101 809 101 706.5 98 c 128,-1,73
 604 95 604 95 518 90 c 0,74,75
 448 85 448 85 397 78.5 c 128,-1,76
 346 72 346 72 303.5 66 c 128,-1,77
 261 60 261 60 222.5 55.5 c 128,-1,78
 184 51 184 51 139 51 c 0,79,80
 108 51 108 51 97 57.5 c 128,-1,81
 86 64 86 64 86 78 c 0,82,83
 86 90 86 90 97.5 95.5 c 128,-1,84
 109 101 109 101 125 104 c 0,85,86
 130 105 130 105 147 107 c 128,-1,87
 164 109 164 109 185.5 113 c 128,-1,88
 207 117 207 117 231 123 c 128,-1,89
 255 129 255 129 274 137 c 0,90,91
 321 157 321 157 339 202 c 128,-1,92
 357 247 357 247 362 315 c 0,93,94
 366 363 366 363 367.5 433 c 128,-1,95
 369 503 369 503 369 584 c 0,96,97
 369 674 369 674 368 769 c 128,-1,98
 367 864 367 864 364.5 950.5 c 128,-1,99
 362 1037 362 1037 359.5 1108.5 c 128,-1,100
 357 1180 357 1180 354 1225 c 256,101,102
 351 1270 351 1270 344.5 1303.5 c 128,-1,103
 338 1337 338 1337 328.5 1361 c 128,-1,104
 319 1385 319 1385 306.5 1400.5 c 128,-1,105
 294 1416 294 1416 279 1427 c 0,106,107
 265 1437 265 1437 246 1445 c 128,-1,108
 227 1453 227 1453 206.5 1458.5 c 128,-1,109
 186 1464 186 1464 165.5 1468 c 128,-1,110
 145 1472 145 1472 127 1475 c 0,111,112
 101 1479 101 1479 84 1483 c 128,-1,113
 67 1487 67 1487 57.5 1492 c 128,-1,114
 48 1497 48 1497 44.5 1503 c 128,-1,115
 41 1509 41 1509 41 1516 c 0,116,117
 41 1534 41 1534 52.5 1539 c 128,-1,118
 64 1544 64 1544 80 1544 c 0,0,1
EndSplineSet
EndChar

StartChar: M
Encoding: 77 77 48
Width: 2232
GlyphClass: 2
Flags: W
LayerCount: 2
Back
Fore
SplineSet
569 1014 m 0,0,1
 558 1080 558 1080 528 1118.5 c 128,-1,2
 498 1157 498 1157 467 1174 c 0,3,4
 442 1188 442 1188 417.5 1195 c 128,-1,5
 393 1202 393 1202 375 1208 c 0,6,7
 356 1215 356 1215 347 1223 c 128,-1,8
 338 1231 338 1231 338 1245 c 0,9,10
 338 1274 338 1274 377 1274 c 0,11,12
 395 1274 395 1274 412 1270 c 128,-1,13
 429 1266 429 1266 453 1261 c 128,-1,14
 477 1256 477 1256 510 1249.5 c 128,-1,15
 543 1243 543 1243 592 1239 c 0,16,17
 637 1235 637 1235 668 1234.5 c 128,-1,18
 699 1234 699 1234 720.5 1233.5 c 128,-1,19
 742 1233 742 1233 757 1231.5 c 128,-1,20
 772 1230 772 1230 784 1225 c 0,21,22
 802 1217 802 1217 831.5 1186 c 128,-1,23
 861 1155 861 1155 897.5 1110 c 128,-1,24
 934 1065 934 1065 975 1010 c 128,-1,25
 1016 955 1016 955 1056.5 898.5 c 128,-1,26
 1097 842 1097 842 1135.5 789 c 128,-1,27
 1174 736 1174 736 1205.5 695 c 128,-1,28
 1237 654 1237 654 1259.5 629 c 128,-1,29
 1282 604 1282 604 1290 604 c 0,30,31
 1307 604 1307 604 1356.5 696.5 c 128,-1,32
 1406 789 1406 789 1497 973 c 0,33,34
 1522 1024 1522 1024 1548.5 1081.5 c 128,-1,35
 1575 1139 1575 1139 1600.5 1195.5 c 128,-1,36
 1626 1252 1626 1252 1649 1304 c 128,-1,37
 1672 1356 1672 1356 1691.5 1396 c 128,-1,38
 1711 1436 1711 1436 1726 1460.5 c 128,-1,39
 1741 1485 1741 1485 1749 1487 c 0,40,41
 1754 1489 1754 1489 1759.5 1489 c 128,-1,42
 1765 1489 1765 1489 1772 1489 c 0,43,44
 1790 1489 1790 1489 1822 1488 c 128,-1,45
 1854 1487 1854 1487 1905 1487 c 0,46,47
 1936 1487 1936 1487 1961 1489.5 c 128,-1,48
 1986 1492 1986 1492 2005.5 1495 c 128,-1,49
 2025 1498 2025 1498 2041 1500.5 c 128,-1,50
 2057 1503 2057 1503 2071 1503 c 0,51,52
 2092 1503 2092 1503 2098.5 1497 c 128,-1,53
 2105 1491 2105 1491 2105 1483 c 0,54,55
 2105 1465 2105 1465 2075 1456 c 0,56,57
 2046 1447 2046 1447 1993.5 1437.5 c 128,-1,58
 1941 1428 1941 1428 1876 1405 c 0,59,60
 1836 1391 1836 1391 1820 1354.5 c 128,-1,61
 1804 1318 1804 1318 1804 1264 c 0,62,63
 1804 1225 1804 1225 1810.5 1164.5 c 128,-1,64
 1817 1104 1817 1104 1828.5 1030.5 c 128,-1,65
 1840 957 1840 957 1856 874.5 c 128,-1,66
 1872 792 1872 792 1890.5 708.5 c 128,-1,67
 1909 625 1909 625 1929.5 546 c 128,-1,68
 1950 467 1950 467 1971 400 c 128,-1,69
 1992 333 1992 333 2012.5 282.5 c 128,-1,70
 2033 232 2033 232 2052 207 c 0,71,72
 2070 183 2070 183 2088.5 166 c 128,-1,73
 2107 149 2107 149 2129.5 137 c 128,-1,74
 2152 125 2152 125 2178.5 116 c 128,-1,75
 2205 107 2205 107 2238 98 c 0,76,77
 2270 90 2270 90 2282 81 c 128,-1,78
 2294 72 2294 72 2294 59 c 0,79,80
 2294 45 2294 45 2277.5 36 c 128,-1,81
 2261 27 2261 27 2226 27 c 0,82,83
 2184 27 2184 27 2138.5 30 c 128,-1,84
 2093 33 2093 33 2038 33 c 0,85,86
 1949 33 1949 33 1875.5 20 c 128,-1,87
 1802 7 1802 7 1741.5 -9 c 128,-1,88
 1681 -25 1681 -25 1632 -38 c 128,-1,89
 1583 -51 1583 -51 1542 -51 c 0,90,91
 1531 -51 1531 -51 1520 -47 c 128,-1,92
 1509 -43 1509 -43 1509 -29 c 0,93,94
 1509 -14 1509 -14 1527 -4.5 c 128,-1,95
 1545 5 1545 5 1573.5 13.5 c 128,-1,96
 1602 22 1602 22 1637 31 c 128,-1,97
 1672 40 1672 40 1706 55 c 0,98,99
 1741 71 1741 71 1756.5 96.5 c 128,-1,100
 1772 122 1772 122 1772 162 c 0,101,102
 1772 185 1772 185 1764.5 234 c 128,-1,103
 1757 283 1757 283 1745 348 c 128,-1,104
 1733 413 1733 413 1717.5 488 c 128,-1,105
 1702 563 1702 563 1685.5 638 c 128,-1,106
 1669 713 1669 713 1652.5 782.5 c 128,-1,107
 1636 852 1636 852 1623 905 c 128,-1,108
 1610 958 1610 958 1600.5 990 c 128,-1,109
 1591 1022 1591 1022 1589 1022 c 0,110,111
 1586 1022 1586 1022 1570.5 995 c 128,-1,112
 1555 968 1555 968 1532 923 c 128,-1,113
 1509 878 1509 878 1480 820 c 128,-1,114
 1451 762 1451 762 1421.5 701 c 128,-1,115
 1392 640 1392 640 1363 580 c 128,-1,116
 1334 520 1334 520 1310 470.5 c 128,-1,117
 1286 421 1286 421 1270 387.5 c 128,-1,118
 1254 354 1254 354 1249 346 c 0,119,120
 1239 327 1239 327 1228 306 c 128,-1,121
 1217 285 1217 285 1205.5 267.5 c 128,-1,122
 1194 250 1194 250 1184 238.5 c 128,-1,123
 1174 227 1174 227 1167 227 c 0,124,125
 1161 227 1161 227 1151.5 236.5 c 128,-1,126
 1142 246 1142 246 1132 260 c 128,-1,127
 1122 274 1122 274 1111.5 290 c 128,-1,128
 1101 306 1101 306 1094 319 c 0,129,130
 1068 364 1068 364 1033 425.5 c 128,-1,131
 998 487 998 487 959.5 554.5 c 128,-1,132
 921 622 921 622 883.5 690 c 128,-1,133
 846 758 846 758 813.5 815.5 c 128,-1,134
 781 873 781 873 758 914.5 c 128,-1,135
 735 956 735 956 727 971 c 0,136,137
 710 1001 710 1001 698 1021.5 c 128,-1,138
 686 1042 686 1042 677.5 1054 c 128,-1,139
 669 1066 669 1066 663 1071.5 c 128,-1,140
 657 1077 657 1077 651 1077 c 0,141,142
 643 1077 643 1077 643 1061 c 256,143,144
 643 1045 643 1045 646 1017.5 c 128,-1,145
 649 990 649 990 651 969 c 0,146,147
 661 872 661 872 664.5 787.5 c 128,-1,148
 668 703 668 703 668 625 c 0,149,150
 668 555 668 555 660 473.5 c 128,-1,151
 652 392 652 392 633 310.5 c 128,-1,152
 614 229 614 229 581.5 154 c 128,-1,153
 549 79 549 79 499 21 c 128,-1,154
 449 -37 449 -37 380.5 -71.5 c 128,-1,155
 312 -106 312 -106 221 -106 c 0,156,157
 168 -106 168 -106 127 -89 c 128,-1,158
 86 -72 86 -72 57.5 -43.5 c 128,-1,159
 29 -15 29 -15 14.5 21.5 c 128,-1,160
 0 58 0 58 0 98 c 0,161,162
 0 126 0 126 7.5 154 c 128,-1,163
 15 182 15 182 32 203.5 c 128,-1,164
 49 225 49 225 75 238.5 c 128,-1,165
 101 252 101 252 139 252 c 0,166,167
 169 252 169 252 192.5 241.5 c 128,-1,168
 216 231 216 231 234.5 215.5 c 128,-1,169
 253 200 253 200 268 181 c 128,-1,170
 283 162 283 162 295 145 c 0,171,172
 337 88 337 88 387 88 c 0,173,174
 431 88 431 88 463 115 c 128,-1,175
 495 142 495 142 518.5 187.5 c 128,-1,176
 542 233 542 233 557 292 c 128,-1,177
 572 351 572 351 580.5 415 c 128,-1,178
 589 479 589 479 592.5 543.5 c 128,-1,179
 596 608 596 608 596 664 c 0,180,181
 596 763 596 763 588 853 c 128,-1,182
 580 943 580 943 569 1014 c 0,0,1
EndSplineSet
PairPos2: "'kern' Horizontal Kerning lookup 0 per glyph data 1" j_j dx=0 dy=0 dh=-205 dv=0 dx=0 dy=0 dh=0 dv=0
PairPos2: "'kern' Horizontal Kerning lookup 0 per glyph data 1" l_l dx=0 dy=0 dh=174 dv=0 dx=0 dy=0 dh=0 dv=0
PairPos2: "'kern' Horizontal Kerning lookup 0 per glyph data 1" o_o dx=0 dy=0 dh=-41 dv=0 dx=0 dy=0 dh=0 dv=0
PairPos2: "'kern' Horizontal Kerning lookup 0 per glyph data 1" a_a dx=0 dy=0 dh=41 dv=0 dx=0 dy=0 dh=0 dv=0
PairPos2: "'kern' Horizontal Kerning lookup 0 per glyph data 1" o.cmp dx=0 dy=0 dh=-92 dv=0 dx=0 dy=0 dh=0 dv=0
PairPos2: "'kern' Horizontal Kerning lookup 0 per glyph data 1" oe dx=0 dy=0 dh=-41 dv=0 dx=0 dy=0 dh=0 dv=0
PairPos2: "'kern' Horizontal Kerning lookup 0 per glyph data 1" ydieresis dx=0 dy=0 dh=-113 dv=0 dx=0 dy=0 dh=0 dv=0
PairPos2: "'kern' Horizontal Kerning lookup 0 per glyph data 1" yacute dx=0 dy=0 dh=-113 dv=0 dx=0 dy=0 dh=0 dv=0
PairPos2: "'kern' Horizontal Kerning lookup 0 per glyph data 1" udieresis dx=0 dy=0 dh=-143 dv=0 dx=0 dy=0 dh=0 dv=0
PairPos2: "'kern' Horizontal Kerning lookup 0 per glyph data 1" ucircumflex dx=0 dy=0 dh=-143 dv=0 dx=0 dy=0 dh=0 dv=0
PairPos2: "'kern' Horizontal Kerning lookup 0 per glyph data 1" uacute dx=0 dy=0 dh=-143 dv=0 dx=0 dy=0 dh=0 dv=0
PairPos2: "'kern' Horizontal Kerning lookup 0 per glyph data 1" ugrave dx=0 dy=0 dh=-143 dv=0 dx=0 dy=0 dh=0 dv=0
PairPos2: "'kern' Horizontal Kerning lookup 0 per glyph data 1" oslash dx=0 dy=0 dh=-41 dv=0 dx=0 dy=0 dh=0 dv=0
PairPos2: "'kern' Horizontal Kerning lookup 0 per glyph data 1" odieresis dx=0 dy=0 dh=-41 dv=0 dx=0 dy=0 dh=0 dv=0
PairPos2: "'kern' Horizontal Kerning lookup 0 per glyph data 1" otilde dx=0 dy=0 dh=-41 dv=0 dx=0 dy=0 dh=0 dv=0
PairPos2: "'kern' Horizontal Kerning lookup 0 per glyph data 1" ocircumflex dx=0 dy=0 dh=-41 dv=0 dx=0 dy=0 dh=0 dv=0
PairPos2: "'kern' Horizontal Kerning lookup 0 per glyph data 1" oacute dx=0 dy=0 dh=-41 dv=0 dx=0 dy=0 dh=0 dv=0
PairPos2: "'kern' Horizontal Kerning lookup 0 per glyph data 1" ograve dx=0 dy=0 dh=-41 dv=0 dx=0 dy=0 dh=0 dv=0
PairPos2: "'kern' Horizontal Kerning lookup 0 per glyph data 1" ccedilla dx=0 dy=0 dh=-51 dv=0 dx=0 dy=0 dh=0 dv=0
PairPos2: "'kern' Horizontal Kerning lookup 0 per glyph data 1" ae dx=0 dy=0 dh=41 dv=0 dx=0 dy=0 dh=0 dv=0
PairPos2: "'kern' Horizontal Kerning lookup 0 per glyph data 1" aring dx=0 dy=0 dh=41 dv=0 dx=0 dy=0 dh=0 dv=0
PairPos2: "'kern' Horizontal Kerning lookup 0 per glyph data 1" adieresis dx=0 dy=0 dh=41 dv=0 dx=0 dy=0 dh=0 dv=0
PairPos2: "'kern' Horizontal Kerning lookup 0 per glyph data 1" atilde dx=0 dy=0 dh=41 dv=0 dx=0 dy=0 dh=0 dv=0
PairPos2: "'kern' Horizontal Kerning lookup 0 per glyph data 1" acircumflex dx=0 dy=0 dh=41 dv=0 dx=0 dy=0 dh=0 dv=0
PairPos2: "'kern' Horizontal Kerning lookup 0 per glyph data 1" aacute dx=0 dy=0 dh=41 dv=0 dx=0 dy=0 dh=0 dv=0
PairPos2: "'kern' Horizontal Kerning lookup 0 per glyph data 1" agrave dx=0 dy=0 dh=41 dv=0 dx=0 dy=0 dh=0 dv=0
PairPos2: "'kern' Horizontal Kerning lookup 0 per glyph data 1" Yacute dx=0 dy=0 dh=-317 dv=0 dx=0 dy=0 dh=0 dv=0
PairPos2: "'kern' Horizontal Kerning lookup 0 per glyph data 1" Udieresis dx=0 dy=0 dh=-219 dv=0 dx=0 dy=0 dh=0 dv=0
PairPos2: "'kern' Horizontal Kerning lookup 0 per glyph data 1" Ucircumflex dx=0 dy=0 dh=-219 dv=0 dx=0 dy=0 dh=0 dv=0
PairPos2: "'kern' Horizontal Kerning lookup 0 per glyph data 1" Uacute dx=0 dy=0 dh=-219 dv=0 dx=0 dy=0 dh=0 dv=0
PairPos2: "'kern' Horizontal Kerning lookup 0 per glyph data 1" Ugrave dx=0 dy=0 dh=-219 dv=0 dx=0 dy=0 dh=0 dv=0
PairPos2: "'kern' Horizontal Kerning lookup 0 per glyph data 1" Ntilde dx=0 dy=0 dh=-63 dv=0 dx=0 dy=0 dh=0 dv=0
PairPos2: "'kern' Horizontal Kerning lookup 0 per glyph data 1" AE dx=0 dy=0 dh=-51 dv=0 dx=0 dy=0 dh=0 dv=0
PairPos2: "'kern' Horizontal Kerning lookup 0 per glyph data 1" Aring dx=0 dy=0 dh=-51 dv=0 dx=0 dy=0 dh=0 dv=0
PairPos2: "'kern' Horizontal Kerning lookup 0 per glyph data 1" Adieresis dx=0 dy=0 dh=-51 dv=0 dx=0 dy=0 dh=0 dv=0
PairPos2: "'kern' Horizontal Kerning lookup 0 per glyph data 1" Atilde dx=0 dy=0 dh=-51 dv=0 dx=0 dy=0 dh=0 dv=0
PairPos2: "'kern' Horizontal Kerning lookup 0 per glyph data 1" Acircumflex dx=0 dy=0 dh=-51 dv=0 dx=0 dy=0 dh=0 dv=0
PairPos2: "'kern' Horizontal Kerning lookup 0 per glyph data 1" Aacute dx=0 dy=0 dh=-51 dv=0 dx=0 dy=0 dh=0 dv=0
PairPos2: "'kern' Horizontal Kerning lookup 0 per glyph data 1" Agrave dx=0 dy=0 dh=-51 dv=0 dx=0 dy=0 dh=0 dv=0
PairPos2: "'kern' Horizontal Kerning lookup 0 per glyph data 1" z dx=0 dy=0 dh=102 dv=0 dx=0 dy=0 dh=0 dv=0
PairPos2: "'kern' Horizontal Kerning lookup 0 per glyph data 1" y dx=0 dy=0 dh=-113 dv=0 dx=0 dy=0 dh=0 dv=0
PairPos2: "'kern' Horizontal Kerning lookup 0 per glyph data 1" w dx=0 dy=0 dh=-102 dv=0 dx=0 dy=0 dh=0 dv=0
PairPos2: "'kern' Horizontal Kerning lookup 0 per glyph data 1" v dx=0 dy=0 dh=-154 dv=0 dx=0 dy=0 dh=0 dv=0
PairPos2: "'kern' Horizontal Kerning lookup 0 per glyph data 1" u dx=0 dy=0 dh=-143 dv=0 dx=0 dy=0 dh=0 dv=0
PairPos2: "'kern' Horizontal Kerning lookup 0 per glyph data 1" s dx=0 dy=0 dh=82 dv=0 dx=0 dy=0 dh=0 dv=0
PairPos2: "'kern' Horizontal Kerning lookup 0 per glyph data 1" q dx=0 dy=0 dh=-72 dv=0 dx=0 dy=0 dh=0 dv=0
PairPos2: "'kern' Horizontal Kerning lookup 0 per glyph data 1" p dx=0 dy=0 dh=-20 dv=0 dx=0 dy=0 dh=0 dv=0
PairPos2: "'kern' Horizontal Kerning lookup 0 per glyph data 1" o dx=0 dy=0 dh=-41 dv=0 dx=0 dy=0 dh=0 dv=0
PairPos2: "'kern' Horizontal Kerning lookup 0 per glyph data 1" l dx=0 dy=0 dh=92 dv=0 dx=0 dy=0 dh=0 dv=0
PairPos2: "'kern' Horizontal Kerning lookup 0 per glyph data 1" k dx=0 dy=0 dh=10 dv=0 dx=0 dy=0 dh=0 dv=0
PairPos2: "'kern' Horizontal Kerning lookup 0 per glyph data 1" j dx=0 dy=0 dh=-205 dv=0 dx=0 dy=0 dh=0 dv=0
PairPos2: "'kern' Horizontal Kerning lookup 0 per glyph data 1" h dx=0 dy=0 dh=174 dv=0 dx=0 dy=0 dh=0 dv=0
PairPos2: "'kern' Horizontal Kerning lookup 0 per glyph data 1" g dx=0 dy=0 dh=-41 dv=0 dx=0 dy=0 dh=0 dv=0
PairPos2: "'kern' Horizontal Kerning lookup 0 per glyph data 1" c dx=0 dy=0 dh=-51 dv=0 dx=0 dy=0 dh=0 dv=0
PairPos2: "'kern' Horizontal Kerning lookup 0 per glyph data 1" b dx=0 dy=0 dh=61 dv=0 dx=0 dy=0 dh=0 dv=0
PairPos2: "'kern' Horizontal Kerning lookup 0 per glyph data 1" a dx=0 dy=0 dh=41 dv=0 dx=0 dy=0 dh=0 dv=0
PairPos2: "'kern' Horizontal Kerning lookup 0 per glyph data 1" Y dx=0 dy=0 dh=-317 dv=0 dx=0 dy=0 dh=0 dv=0
PairPos2: "'kern' Horizontal Kerning lookup 0 per glyph data 1" W dx=0 dy=0 dh=-195 dv=0 dx=0 dy=0 dh=0 dv=0
PairPos2: "'kern' Horizontal Kerning lookup 0 per glyph data 1" V dx=0 dy=0 dh=-117 dv=0 dx=0 dy=0 dh=0 dv=0
PairPos2: "'kern' Horizontal Kerning lookup 0 per glyph data 1" U dx=0 dy=0 dh=-219 dv=0 dx=0 dy=0 dh=0 dv=0
PairPos2: "'kern' Horizontal Kerning lookup 0 per glyph data 1" T dx=0 dy=0 dh=-174 dv=0 dx=0 dy=0 dh=0 dv=0
PairPos2: "'kern' Horizontal Kerning lookup 0 per glyph data 1" S dx=0 dy=0 dh=51 dv=0 dx=0 dy=0 dh=0 dv=0
PairPos2: "'kern' Horizontal Kerning lookup 0 per glyph data 1" P dx=0 dy=0 dh=-102 dv=0 dx=0 dy=0 dh=0 dv=0
PairPos2: "'kern' Horizontal Kerning lookup 0 per glyph data 1" N dx=0 dy=0 dh=-63 dv=0 dx=0 dy=0 dh=0 dv=0
PairPos2: "'kern' Horizontal Kerning lookup 0 per glyph data 1" M dx=0 dy=0 dh=102 dv=0 dx=0 dy=0 dh=0 dv=0
PairPos2: "'kern' Horizontal Kerning lookup 0 per glyph data 1" B dx=0 dy=0 dh=-61 dv=0 dx=0 dy=0 dh=0 dv=0
PairPos2: "'kern' Horizontal Kerning lookup 0 per glyph data 1" A dx=0 dy=0 dh=-51 dv=0 dx=0 dy=0 dh=0 dv=0
EndChar

StartChar: N
Encoding: 78 78 49
Width: 1638
GlyphClass: 2
Flags: W
LayerCount: 2
Back
Fore
SplineSet
475 1468 m 0,0,1
 496 1460 496 1460 531.5 1427.5 c 128,-1,2
 567 1395 567 1395 612.5 1345 c 128,-1,3
 658 1295 658 1295 713.5 1232 c 128,-1,4
 769 1169 769 1169 831 1102 c 0,5,6
 877 1052 877 1052 922.5 1000.5 c 128,-1,7
 968 949 968 949 1010 901 c 128,-1,8
 1052 853 1052 853 1089.5 811 c 128,-1,9
 1127 769 1127 769 1157.5 737.5 c 128,-1,10
 1188 706 1188 706 1211 688 c 128,-1,11
 1234 670 1234 670 1247 670 c 0,12,13
 1255 670 1255 670 1261 687 c 128,-1,14
 1267 704 1267 704 1271.5 732 c 128,-1,15
 1276 760 1276 760 1279 795 c 128,-1,16
 1282 830 1282 830 1284 866 c 128,-1,17
 1286 902 1286 902 1287 936 c 128,-1,18
 1288 970 1288 970 1288 995 c 0,19,20
 1288 1029 1288 1029 1286.5 1071 c 128,-1,21
 1285 1113 1285 1113 1282 1152.5 c 128,-1,22
 1279 1192 1279 1192 1273.5 1224.5 c 128,-1,23
 1268 1257 1268 1257 1260 1274 c 0,24,25
 1248 1298 1248 1298 1233 1314 c 128,-1,26
 1218 1330 1218 1330 1196 1340.5 c 128,-1,27
 1174 1351 1174 1351 1143 1357 c 128,-1,28
 1112 1363 1112 1363 1067 1368 c 0,29,30
 1038 1371 1038 1371 1027 1378 c 128,-1,31
 1016 1385 1016 1385 1016 1399 c 256,32,33
 1016 1413 1016 1413 1027 1417 c 128,-1,34
 1038 1421 1038 1421 1051 1421 c 0,35,36
 1061 1421 1061 1421 1081.5 1419.5 c 128,-1,37
 1102 1418 1102 1418 1130 1416.5 c 128,-1,38
 1158 1415 1158 1415 1190.5 1414 c 128,-1,39
 1223 1413 1223 1413 1257 1413 c 0,40,41
 1312 1413 1312 1413 1366 1421 c 128,-1,42
 1420 1429 1420 1429 1467 1438.5 c 128,-1,43
 1514 1448 1514 1448 1551 1456 c 128,-1,44
 1588 1464 1588 1464 1608 1464 c 0,45,46
 1638 1464 1638 1464 1638 1440 c 0,47,48
 1638 1424 1638 1424 1625.5 1417 c 128,-1,49
 1613 1410 1613 1410 1599 1407 c 0,50,51
 1581 1403 1581 1403 1566 1400.5 c 128,-1,52
 1551 1398 1551 1398 1537 1395 c 128,-1,53
 1523 1392 1523 1392 1508 1387.5 c 128,-1,54
 1493 1383 1493 1383 1475 1376 c 0,55,56
 1460 1371 1460 1371 1445.5 1361 c 128,-1,57
 1431 1351 1431 1351 1418 1334.5 c 128,-1,58
 1405 1318 1405 1318 1394.5 1293.5 c 128,-1,59
 1384 1269 1384 1269 1378 1235 c 0,60,61
 1372 1199 1372 1199 1367.5 1134.5 c 128,-1,62
 1363 1070 1363 1070 1359 990.5 c 128,-1,63
 1355 911 1355 911 1352.5 823.5 c 128,-1,64
 1350 736 1350 736 1347.5 654.5 c 128,-1,65
 1345 573 1345 573 1343.5 503.5 c 128,-1,66
 1342 434 1342 434 1341 391 c 0,67,68
 1338 232 1338 232 1331.5 156 c 128,-1,69
 1325 80 1325 80 1311 80 c 0,70,71
 1303 80 1303 80 1280.5 100.5 c 128,-1,72
 1258 121 1258 121 1227 155.5 c 128,-1,73
 1196 190 1196 190 1158 235.5 c 128,-1,74
 1120 281 1120 281 1080 330.5 c 128,-1,75
 1040 380 1040 380 1000 431.5 c 128,-1,76
 960 483 960 483 925 528.5 c 128,-1,77
 890 574 890 574 861.5 611.5 c 128,-1,78
 833 649 833 649 817 672 c 0,79,80
 621 942 621 942 516.5 1080.5 c 128,-1,81
 412 1219 412 1219 387 1219 c 0,82,83
 382 1219 382 1219 379.5 1189 c 128,-1,84
 377 1159 377 1159 375.5 1108 c 128,-1,85
 374 1057 374 1057 373.5 989 c 128,-1,86
 373 921 373 921 373 844 c 0,87,88
 373 745 373 745 373.5 639.5 c 128,-1,89
 374 534 374 534 374 440 c 128,-1,90
 374 346 374 346 374.5 273.5 c 128,-1,91
 375 201 375 201 375 168 c 0,92,93
 375 109 375 109 376.5 47 c 128,-1,94
 378 -15 378 -15 382.5 -70.5 c 128,-1,95
 387 -126 387 -126 395 -171.5 c 128,-1,96
 403 -217 403 -217 416 -242 c 0,97,98
 434 -277 434 -277 455 -301 c 128,-1,99
 476 -325 476 -325 499.5 -342 c 128,-1,100
 523 -359 523 -359 549 -370 c 128,-1,101
 575 -381 575 -381 602 -389 c 0,102,103
 625 -397 625 -397 636 -403 c 128,-1,104
 647 -409 647 -409 647 -420 c 0,105,106
 647 -438 647 -438 616 -438 c 0,107,108
 598 -438 598 -438 572 -432 c 128,-1,109
 546 -426 546 -426 515.5 -417.5 c 128,-1,110
 485 -409 485 -409 451 -399 c 128,-1,111
 417 -389 417 -389 383 -381 c 0,112,113
 345 -372 345 -372 307 -367 c 128,-1,114
 269 -362 269 -362 233 -362 c 0,115,116
 209 -362 209 -362 183.5 -363.5 c 128,-1,117
 158 -365 158 -365 136 -366.5 c 128,-1,118
 114 -368 114 -368 98 -369.5 c 128,-1,119
 82 -371 82 -371 76 -371 c 0,120,121
 57 -371 57 -371 38.5 -368 c 128,-1,122
 20 -365 20 -365 20 -348 c 0,123,124
 20 -336 20 -336 33 -332 c 128,-1,125
 46 -328 46 -328 68 -328 c 0,126,127
 97 -328 97 -328 133.5 -320.5 c 128,-1,128
 170 -313 170 -313 201 -293 c 0,129,130
 243 -265 243 -265 265 -218.5 c 128,-1,131
 287 -172 287 -172 295 -100 c 0,132,133
 299 -66 299 -66 301.5 -29.5 c 128,-1,134
 304 7 304 7 305.5 51.5 c 128,-1,135
 307 96 307 96 308 153 c 128,-1,136
 309 210 309 210 309 285 c 0,137,138
 309 317 309 317 308 353.5 c 128,-1,139
 307 390 307 390 307 430 c 0,140,141
 307 457 307 457 306.5 505.5 c 128,-1,142
 306 554 306 554 306 616 c 128,-1,143
 306 678 306 678 305 749.5 c 128,-1,144
 304 821 304 821 302 893 c 128,-1,145
 300 965 300 965 297 1034.5 c 128,-1,146
 294 1104 294 1104 289 1162.5 c 128,-1,147
 284 1221 284 1221 277 1264 c 128,-1,148
 270 1307 270 1307 260 1327 c 0,149,150
 249 1349 249 1349 230 1361 c 128,-1,151
 211 1373 211 1373 185 1379 c 128,-1,152
 159 1385 159 1385 126.5 1386.5 c 128,-1,153
 94 1388 94 1388 57 1389 c 0,154,155
 33 1389 33 1389 16.5 1395.5 c 128,-1,156
 0 1402 0 1402 0 1423 c 0,157,158
 0 1439 0 1439 11 1446.5 c 128,-1,159
 22 1454 22 1454 39 1454 c 2,160,-1
 125 1454 l 2,161,162
 186 1454 186 1454 279 1460 c 0,163,164
 322 1463 322 1463 364.5 1469 c 128,-1,165
 407 1475 407 1475 438 1475 c 0,166,167
 449 1475 449 1475 459 1473.5 c 128,-1,168
 469 1472 469 1472 475 1468 c 0,0,1
EndSplineSet
EndChar

StartChar: O
Encoding: 79 79 50
Width: 1530
GlyphClass: 2
Flags: W
LayerCount: 2
Back
Fore
SplineSet
731 1561 m 0,0,1
 908 1561 908 1561 1053 1505 c 128,-1,2
 1198 1449 1198 1449 1301.5 1348.5 c 128,-1,3
 1405 1248 1405 1248 1461.5 1109.5 c 128,-1,4
 1518 971 1518 971 1518 805 c 0,5,6
 1518 711 1518 711 1498 618 c 128,-1,7
 1478 525 1478 525 1438 441 c 128,-1,8
 1398 357 1398 357 1336.5 285 c 128,-1,9
 1275 213 1275 213 1192.5 160 c 128,-1,10
 1110 107 1110 107 1005.5 77 c 128,-1,11
 901 47 901 47 774 47 c 0,12,13
 585 47 585 47 442 104.5 c 128,-1,14
 299 162 299 162 203 264.5 c 128,-1,15
 107 367 107 367 58.5 508.5 c 128,-1,16
 10 650 10 650 10 817 c 0,17,18
 10 980 10 980 63 1116.5 c 128,-1,19
 116 1253 116 1253 211.5 1352 c 128,-1,20
 307 1451 307 1451 439.5 1506 c 128,-1,21
 572 1561 572 1561 731 1561 c 0,0,1
690 1509 m 0,22,23
 592 1509 592 1509 513.5 1465 c 128,-1,24
 435 1421 435 1421 379.5 1339.5 c 128,-1,25
 324 1258 324 1258 294 1142.5 c 128,-1,26
 264 1027 264 1027 264 883 c 0,27,28
 264 800 264 800 275.5 710 c 128,-1,29
 287 620 287 620 312 533 c 128,-1,30
 337 446 337 446 378 368 c 128,-1,31
 419 290 419 290 478 231 c 128,-1,32
 537 172 537 172 615.5 137 c 128,-1,33
 694 102 694 102 795 102 c 0,34,35
 915 102 915 102 997 150.5 c 128,-1,36
 1079 199 1079 199 1129.5 278 c 128,-1,37
 1180 357 1180 357 1202.5 457.5 c 128,-1,38
 1225 558 1225 558 1225 662 c 0,39,40
 1225 749 1225 749 1215.5 846 c 128,-1,41
 1206 943 1206 943 1182.5 1037 c 128,-1,42
 1159 1131 1159 1131 1119.5 1216.5 c 128,-1,43
 1080 1302 1080 1302 1020.5 1367 c 128,-1,44
 961 1432 961 1432 879.5 1470.5 c 128,-1,45
 798 1509 798 1509 690 1509 c 0,22,23
EndSplineSet
EndChar

StartChar: P
Encoding: 80 80 51
Width: 1276
GlyphClass: 2
Flags: W
LayerCount: 2
Back
Fore
SplineSet
895 1532 m 0,0,1
 957 1532 957 1532 1024.5 1517.5 c 128,-1,2
 1092 1503 1092 1503 1148 1463.5 c 128,-1,3
 1204 1424 1204 1424 1240 1354 c 128,-1,4
 1276 1284 1276 1284 1276 1174 c 0,5,6
 1276 1072 1276 1072 1252.5 995.5 c 128,-1,7
 1229 919 1229 919 1190 863.5 c 128,-1,8
 1151 808 1151 808 1100.5 772 c 128,-1,9
 1050 736 1050 736 996 714.5 c 128,-1,10
 942 693 942 693 888 684.5 c 128,-1,11
 834 676 834 676 788 676 c 0,12,13
 722 676 722 676 675 682.5 c 128,-1,14
 628 689 628 689 596 698 c 1,15,16
 597 647 597 647 597.5 592.5 c 128,-1,17
 598 538 598 538 598.5 489.5 c 128,-1,18
 599 441 599 441 599.5 403.5 c 128,-1,19
 600 366 600 366 600 350 c 0,20,21
 601 315 601 315 604 262.5 c 128,-1,22
 607 210 607 210 613.5 154 c 128,-1,23
 620 98 620 98 630.5 44.5 c 128,-1,24
 641 -9 641 -9 657 -45 c 0,25,26
 674 -83 674 -83 701 -110 c 128,-1,27
 728 -137 728 -137 759.5 -155 c 128,-1,28
 791 -173 791 -173 825 -184 c 128,-1,29
 859 -195 859 -195 891 -201 c 0,30,31
 907 -204 907 -204 923.5 -206.5 c 128,-1,32
 940 -209 940 -209 953 -212.5 c 128,-1,33
 966 -216 966 -216 974.5 -221.5 c 128,-1,34
 983 -227 983 -227 983 -236 c 0,35,36
 983 -248 983 -248 973 -255 c 128,-1,37
 963 -262 963 -262 932 -262 c 0,38,39
 900 -262 900 -262 851 -252.5 c 128,-1,40
 802 -243 802 -243 741.5 -231.5 c 128,-1,41
 681 -220 681 -220 613 -210.5 c 128,-1,42
 545 -201 545 -201 477 -201 c 0,43,44
 403 -201 403 -201 337.5 -209 c 128,-1,45
 272 -217 272 -217 220.5 -226.5 c 128,-1,46
 169 -236 169 -236 133 -244 c 128,-1,47
 97 -252 97 -252 82 -252 c 0,48,49
 78 -252 78 -252 72.5 -251.5 c 128,-1,50
 67 -251 67 -251 61.5 -249 c 128,-1,51
 56 -247 56 -247 52.5 -243 c 128,-1,52
 49 -239 49 -239 49 -231 c 0,53,54
 49 -220 49 -220 62.5 -213 c 128,-1,55
 76 -206 76 -206 98.5 -199 c 128,-1,56
 121 -192 121 -192 149.5 -182.5 c 128,-1,57
 178 -173 178 -173 207 -158 c 0,58,59
 264 -127 264 -127 293 -77 c 128,-1,60
 322 -27 322 -27 336 39 c 0,61,62
 342 69 342 69 348.5 126 c 128,-1,63
 355 183 355 183 361 256.5 c 128,-1,64
 367 330 367 330 372.5 414.5 c 128,-1,65
 378 499 378 499 382 583.5 c 128,-1,66
 386 668 386 668 388.5 746.5 c 128,-1,67
 391 825 391 825 391 887 c 0,68,69
 391 1009 391 1009 384 1102 c 128,-1,70
 377 1195 377 1195 354 1247 c 0,71,72
 336 1288 336 1288 305.5 1312.5 c 128,-1,73
 275 1337 275 1337 238.5 1350 c 128,-1,74
 202 1363 202 1363 162 1367.5 c 128,-1,75
 122 1372 122 1372 84 1374 c 0,76,77
 34 1375 34 1375 17 1381.5 c 128,-1,78
 0 1388 0 1388 0 1407 c 0,79,80
 0 1436 0 1436 51 1436 c 0,81,82
 73 1436 73 1436 121 1433 c 128,-1,83
 169 1430 169 1430 236 1430 c 0,84,85
 285 1430 285 1430 343 1433 c 128,-1,86
 401 1436 401 1436 463 1444 c 0,87,88
 515 1450 515 1450 555.5 1459.5 c 128,-1,89
 596 1469 596 1469 630.5 1478.5 c 128,-1,90
 665 1488 665 1488 695 1497.5 c 128,-1,91
 725 1507 725 1507 756 1515 c 128,-1,92
 787 1523 787 1523 820.5 1527.5 c 128,-1,93
 854 1532 854 1532 895 1532 c 0,0,1
608 1227 m 0,94,95
 604 1185 604 1185 602 1130.5 c 128,-1,96
 600 1076 600 1076 598.5 1014 c 128,-1,97
 597 952 597 952 596.5 885 c 128,-1,98
 596 818 596 818 596 752 c 1,99,100
 628 742 628 742 668 737.5 c 128,-1,101
 708 733 708 733 764 733 c 0,102,103
 839 733 839 733 891.5 769 c 128,-1,104
 944 805 944 805 976.5 864.5 c 128,-1,105
 1009 924 1009 924 1023.5 999.5 c 128,-1,106
 1038 1075 1038 1075 1038 1153 c 0,107,108
 1038 1217 1038 1217 1026.5 1277 c 128,-1,109
 1015 1337 1015 1337 989 1382.5 c 128,-1,110
 963 1428 963 1428 919 1455.5 c 128,-1,111
 875 1483 875 1483 811 1483 c 0,112,113
 761 1483 761 1483 725 1465 c 128,-1,114
 689 1447 689 1447 665 1413.5 c 128,-1,115
 641 1380 641 1380 627.5 1332.5 c 128,-1,116
 614 1285 614 1285 608 1227 c 0,94,95
EndSplineSet
PairPos2: "'kern' Horizontal Kerning lookup 0 per glyph data 1" f_h dx=0 dy=0 dh=113 dv=0 dx=0 dy=0 dh=0 dv=0
PairPos2: "'kern' Horizontal Kerning lookup 0 per glyph data 1" f_k dx=0 dy=0 dh=113 dv=0 dx=0 dy=0 dh=0 dv=0
PairPos2: "'kern' Horizontal Kerning lookup 0 per glyph data 1" f_b dx=0 dy=0 dh=113 dv=0 dx=0 dy=0 dh=0 dv=0
PairPos2: "'kern' Horizontal Kerning lookup 0 per glyph data 1" j_j dx=0 dy=0 dh=-82 dv=0 dx=0 dy=0 dh=0 dv=0
PairPos2: "'kern' Horizontal Kerning lookup 0 per glyph data 1" l_l dx=0 dy=0 dh=-61 dv=0 dx=0 dy=0 dh=0 dv=0
PairPos2: "'kern' Horizontal Kerning lookup 0 per glyph data 1" a_a dx=0 dy=0 dh=-102 dv=0 dx=0 dy=0 dh=0 dv=0
PairPos2: "'kern' Horizontal Kerning lookup 0 per glyph data 1" emdash dx=0 dy=0 dh=-225 dv=0 dx=0 dy=0 dh=0 dv=0
PairPos2: "'kern' Horizontal Kerning lookup 0 per glyph data 1" endash dx=0 dy=0 dh=-225 dv=0 dx=0 dy=0 dh=0 dv=0
PairPos2: "'kern' Horizontal Kerning lookup 0 per glyph data 1" ydieresis dx=0 dy=0 dh=-68 dv=0 dx=0 dy=0 dh=0 dv=0
PairPos2: "'kern' Horizontal Kerning lookup 0 per glyph data 1" yacute dx=0 dy=0 dh=-68 dv=0 dx=0 dy=0 dh=0 dv=0
PairPos2: "'kern' Horizontal Kerning lookup 0 per glyph data 1" udieresis dx=0 dy=0 dh=-92 dv=0 dx=0 dy=0 dh=0 dv=0
PairPos2: "'kern' Horizontal Kerning lookup 0 per glyph data 1" ucircumflex dx=0 dy=0 dh=-92 dv=0 dx=0 dy=0 dh=0 dv=0
PairPos2: "'kern' Horizontal Kerning lookup 0 per glyph data 1" uacute dx=0 dy=0 dh=-92 dv=0 dx=0 dy=0 dh=0 dv=0
PairPos2: "'kern' Horizontal Kerning lookup 0 per glyph data 1" ugrave dx=0 dy=0 dh=-92 dv=0 dx=0 dy=0 dh=0 dv=0
PairPos2: "'kern' Horizontal Kerning lookup 0 per glyph data 1" edieresis dx=0 dy=0 dh=-41 dv=0 dx=0 dy=0 dh=0 dv=0
PairPos2: "'kern' Horizontal Kerning lookup 0 per glyph data 1" ecircumflex dx=0 dy=0 dh=-41 dv=0 dx=0 dy=0 dh=0 dv=0
PairPos2: "'kern' Horizontal Kerning lookup 0 per glyph data 1" eacute dx=0 dy=0 dh=-41 dv=0 dx=0 dy=0 dh=0 dv=0
PairPos2: "'kern' Horizontal Kerning lookup 0 per glyph data 1" egrave dx=0 dy=0 dh=-41 dv=0 dx=0 dy=0 dh=0 dv=0
PairPos2: "'kern' Horizontal Kerning lookup 0 per glyph data 1" ae dx=0 dy=0 dh=-102 dv=0 dx=0 dy=0 dh=0 dv=0
PairPos2: "'kern' Horizontal Kerning lookup 0 per glyph data 1" aring dx=0 dy=0 dh=-102 dv=0 dx=0 dy=0 dh=0 dv=0
PairPos2: "'kern' Horizontal Kerning lookup 0 per glyph data 1" adieresis dx=0 dy=0 dh=-20 dv=0 dx=0 dy=0 dh=0 dv=0
PairPos2: "'kern' Horizontal Kerning lookup 0 per glyph data 1" atilde dx=0 dy=0 dh=-102 dv=0 dx=0 dy=0 dh=0 dv=0
PairPos2: "'kern' Horizontal Kerning lookup 0 per glyph data 1" acircumflex dx=0 dy=0 dh=31 dv=0 dx=0 dy=0 dh=0 dv=0
PairPos2: "'kern' Horizontal Kerning lookup 0 per glyph data 1" aacute dx=0 dy=0 dh=-102 dv=0 dx=0 dy=0 dh=0 dv=0
PairPos2: "'kern' Horizontal Kerning lookup 0 per glyph data 1" agrave dx=0 dy=0 dh=-102 dv=0 dx=0 dy=0 dh=0 dv=0
PairPos2: "'kern' Horizontal Kerning lookup 0 per glyph data 1" Yacute dx=0 dy=0 dh=-266 dv=0 dx=0 dy=0 dh=0 dv=0
PairPos2: "'kern' Horizontal Kerning lookup 0 per glyph data 1" Udieresis dx=0 dy=0 dh=51 dv=0 dx=0 dy=0 dh=0 dv=0
PairPos2: "'kern' Horizontal Kerning lookup 0 per glyph data 1" Ucircumflex dx=0 dy=0 dh=51 dv=0 dx=0 dy=0 dh=0 dv=0
PairPos2: "'kern' Horizontal Kerning lookup 0 per glyph data 1" Uacute dx=0 dy=0 dh=51 dv=0 dx=0 dy=0 dh=0 dv=0
PairPos2: "'kern' Horizontal Kerning lookup 0 per glyph data 1" Ugrave dx=0 dy=0 dh=51 dv=0 dx=0 dy=0 dh=0 dv=0
PairPos2: "'kern' Horizontal Kerning lookup 0 per glyph data 1" AE dx=0 dy=0 dh=-240 dv=0 dx=0 dy=0 dh=0 dv=0
PairPos2: "'kern' Horizontal Kerning lookup 0 per glyph data 1" Aring dx=0 dy=0 dh=-240 dv=0 dx=0 dy=0 dh=0 dv=0
PairPos2: "'kern' Horizontal Kerning lookup 0 per glyph data 1" Adieresis dx=0 dy=0 dh=-240 dv=0 dx=0 dy=0 dh=0 dv=0
PairPos2: "'kern' Horizontal Kerning lookup 0 per glyph data 1" Atilde dx=0 dy=0 dh=-240 dv=0 dx=0 dy=0 dh=0 dv=0
PairPos2: "'kern' Horizontal Kerning lookup 0 per glyph data 1" Acircumflex dx=0 dy=0 dh=-240 dv=0 dx=0 dy=0 dh=0 dv=0
PairPos2: "'kern' Horizontal Kerning lookup 0 per glyph data 1" Aacute dx=0 dy=0 dh=-240 dv=0 dx=0 dy=0 dh=0 dv=0
PairPos2: "'kern' Horizontal Kerning lookup 0 per glyph data 1" Agrave dx=0 dy=0 dh=-240 dv=0 dx=0 dy=0 dh=0 dv=0
PairPos2: "'kern' Horizontal Kerning lookup 0 per glyph data 1" uni00AD dx=0 dy=0 dh=-225 dv=0 dx=0 dy=0 dh=0 dv=0
PairPos2: "'kern' Horizontal Kerning lookup 0 per glyph data 1" y dx=0 dy=0 dh=-68 dv=0 dx=0 dy=0 dh=0 dv=0
PairPos2: "'kern' Horizontal Kerning lookup 0 per glyph data 1" x dx=0 dy=0 dh=41 dv=0 dx=0 dy=0 dh=0 dv=0
PairPos2: "'kern' Horizontal Kerning lookup 0 per glyph data 1" w dx=0 dy=0 dh=-86 dv=0 dx=0 dy=0 dh=0 dv=0
PairPos2: "'kern' Horizontal Kerning lookup 0 per glyph data 1" u dx=0 dy=0 dh=-92 dv=0 dx=0 dy=0 dh=0 dv=0
PairPos2: "'kern' Horizontal Kerning lookup 0 per glyph data 1" s dx=0 dy=0 dh=-184 dv=0 dx=0 dy=0 dh=0 dv=0
PairPos2: "'kern' Horizontal Kerning lookup 0 per glyph data 1" q dx=0 dy=0 dh=-92 dv=0 dx=0 dy=0 dh=0 dv=0
PairPos2: "'kern' Horizontal Kerning lookup 0 per glyph data 1" p dx=0 dy=0 dh=-123 dv=0 dx=0 dy=0 dh=0 dv=0
PairPos2: "'kern' Horizontal Kerning lookup 0 per glyph data 1" l dx=0 dy=0 dh=51 dv=0 dx=0 dy=0 dh=0 dv=0
PairPos2: "'kern' Horizontal Kerning lookup 0 per glyph data 1" k dx=0 dy=0 dh=-61 dv=0 dx=0 dy=0 dh=0 dv=0
PairPos2: "'kern' Horizontal Kerning lookup 0 per glyph data 1" j dx=0 dy=0 dh=-82 dv=0 dx=0 dy=0 dh=0 dv=0
PairPos2: "'kern' Horizontal Kerning lookup 0 per glyph data 1" h dx=0 dy=0 dh=-61 dv=0 dx=0 dy=0 dh=0 dv=0
PairPos2: "'kern' Horizontal Kerning lookup 0 per glyph data 1" g dx=0 dy=0 dh=-92 dv=0 dx=0 dy=0 dh=0 dv=0
PairPos2: "'kern' Horizontal Kerning lookup 0 per glyph data 1" f dx=0 dy=0 dh=113 dv=0 dx=0 dy=0 dh=0 dv=0
PairPos2: "'kern' Horizontal Kerning lookup 0 per glyph data 1" e dx=0 dy=0 dh=-41 dv=0 dx=0 dy=0 dh=0 dv=0
PairPos2: "'kern' Horizontal Kerning lookup 0 per glyph data 1" d dx=0 dy=0 dh=-133 dv=0 dx=0 dy=0 dh=0 dv=0
PairPos2: "'kern' Horizontal Kerning lookup 0 per glyph data 1" b dx=0 dy=0 dh=-61 dv=0 dx=0 dy=0 dh=0 dv=0
PairPos2: "'kern' Horizontal Kerning lookup 0 per glyph data 1" a dx=0 dy=0 dh=-102 dv=0 dx=0 dy=0 dh=0 dv=0
PairPos2: "'kern' Horizontal Kerning lookup 0 per glyph data 1" Y dx=0 dy=0 dh=-266 dv=0 dx=0 dy=0 dh=0 dv=0
PairPos2: "'kern' Horizontal Kerning lookup 0 per glyph data 1" X dx=0 dy=0 dh=-51 dv=0 dx=0 dy=0 dh=0 dv=0
PairPos2: "'kern' Horizontal Kerning lookup 0 per glyph data 1" W dx=0 dy=0 dh=61 dv=0 dx=0 dy=0 dh=0 dv=0
PairPos2: "'kern' Horizontal Kerning lookup 0 per glyph data 1" V dx=0 dy=0 dh=61 dv=0 dx=0 dy=0 dh=0 dv=0
PairPos2: "'kern' Horizontal Kerning lookup 0 per glyph data 1" U dx=0 dy=0 dh=51 dv=0 dx=0 dy=0 dh=0 dv=0
PairPos2: "'kern' Horizontal Kerning lookup 0 per glyph data 1" T dx=0 dy=0 dh=-66 dv=0 dx=0 dy=0 dh=0 dv=0
PairPos2: "'kern' Horizontal Kerning lookup 0 per glyph data 1" S dx=0 dy=0 dh=-123 dv=0 dx=0 dy=0 dh=0 dv=0
PairPos2: "'kern' Horizontal Kerning lookup 0 per glyph data 1" R dx=0 dy=0 dh=31 dv=0 dx=0 dy=0 dh=0 dv=0
PairPos2: "'kern' Horizontal Kerning lookup 0 per glyph data 1" M dx=0 dy=0 dh=-276 dv=0 dx=0 dy=0 dh=0 dv=0
PairPos2: "'kern' Horizontal Kerning lookup 0 per glyph data 1" L dx=0 dy=0 dh=-63 dv=0 dx=0 dy=0 dh=0 dv=0
PairPos2: "'kern' Horizontal Kerning lookup 0 per glyph data 1" J dx=0 dy=0 dh=-256 dv=0 dx=0 dy=0 dh=0 dv=0
PairPos2: "'kern' Horizontal Kerning lookup 0 per glyph data 1" A dx=0 dy=0 dh=-240 dv=0 dx=0 dy=0 dh=0 dv=0
PairPos2: "'kern' Horizontal Kerning lookup 0 per glyph data 1" period dx=0 dy=0 dh=-61 dv=0 dx=0 dy=0 dh=0 dv=0
PairPos2: "'kern' Horizontal Kerning lookup 0 per glyph data 1" hyphen dx=0 dy=0 dh=-225 dv=0 dx=0 dy=0 dh=0 dv=0
PairPos2: "'kern' Horizontal Kerning lookup 0 per glyph data 1" comma dx=0 dy=0 dh=-61 dv=0 dx=0 dy=0 dh=0 dv=0
EndChar

StartChar: Q
Encoding: 81 81 52
Width: 1647
GlyphClass: 2
Flags: W
LayerCount: 2
Back
Fore
SplineSet
817 1583 m 0,0,1
 912 1583 912 1583 1008.5 1562 c 128,-1,2
 1105 1541 1105 1541 1194 1498.5 c 128,-1,3
 1283 1456 1283 1456 1360.5 1391.5 c 128,-1,4
 1438 1327 1438 1327 1495 1240 c 128,-1,5
 1552 1153 1552 1153 1585 1043.5 c 128,-1,6
 1618 934 1618 934 1618 801 c 0,7,8
 1618 605 1618 605 1571 457 c 128,-1,9
 1524 309 1524 309 1444 203 c 1,10,11
 1490 112 1490 112 1527.5 9.5 c 128,-1,12
 1565 -93 1565 -93 1597 -197 c 0,13,14
 1638 -326 1638 -326 1681 -422 c 128,-1,15
 1724 -518 1724 -518 1774 -582 c 128,-1,16
 1824 -646 1824 -646 1884.5 -677.5 c 128,-1,17
 1945 -709 1945 -709 2021 -709 c 256,18,19
 2097 -709 2097 -709 2164 -658 c 128,-1,20
 2231 -607 2231 -607 2273 -496 c 0,21,22
 2288 -454 2288 -454 2295.5 -422 c 128,-1,23
 2303 -390 2303 -390 2308 -368.5 c 128,-1,24
 2313 -347 2313 -347 2317.5 -335.5 c 128,-1,25
 2322 -324 2322 -324 2331 -324 c 0,26,27
 2339 -324 2339 -324 2342 -336 c 128,-1,28
 2345 -348 2345 -348 2345 -367 c 0,29,30
 2345 -394 2345 -394 2339.5 -444 c 128,-1,31
 2334 -494 2334 -494 2316.5 -553 c 128,-1,32
 2299 -612 2299 -612 2268 -673 c 128,-1,33
 2237 -734 2237 -734 2185.5 -784 c 128,-1,34
 2134 -834 2134 -834 2059.5 -865.5 c 128,-1,35
 1985 -897 1985 -897 1882 -897 c 0,36,37
 1759 -897 1759 -897 1672.5 -854.5 c 128,-1,38
 1586 -812 1586 -812 1526 -739.5 c 128,-1,39
 1466 -667 1466 -667 1428 -572 c 128,-1,40
 1390 -477 1390 -477 1364 -372.5 c 128,-1,41
 1338 -268 1338 -268 1320 -159.5 c 128,-1,42
 1302 -51 1302 -51 1282 47 c 1,43,44
 1176 -27 1176 -27 1050 -61.5 c 128,-1,45
 924 -96 924 -96 791 -96 c 0,46,47
 690 -96 690 -96 592.5 -72 c 128,-1,48
 495 -48 495 -48 408 -0.5 c 128,-1,49
 321 47 321 47 248 117.5 c 128,-1,50
 175 188 175 188 122 281.5 c 128,-1,51
 69 375 69 375 39.5 491 c 128,-1,52
 10 607 10 607 10 745 c 0,53,54
 10 929 10 929 69.5 1083 c 128,-1,55
 129 1237 129 1237 236 1348 c 128,-1,56
 343 1459 343 1459 491.5 1521 c 128,-1,57
 640 1583 640 1583 817 1583 c 0,0,1
1049 528 m 0,58,59
 1135 528 1135 528 1205.5 488 c 128,-1,60
 1276 448 1276 448 1333 379 c 1,61,62
 1349 445 1349 445 1357.5 519.5 c 128,-1,63
 1366 594 1366 594 1366 678 c 0,64,65
 1366 781 1366 781 1348 883 c 128,-1,66
 1330 985 1330 985 1294 1077.5 c 128,-1,67
 1258 1170 1258 1170 1204.5 1249 c 128,-1,68
 1151 1328 1151 1328 1079 1386.5 c 128,-1,69
 1007 1445 1007 1445 917 1478 c 128,-1,70
 827 1511 827 1511 719 1511 c 0,71,72
 621 1511 621 1511 534.5 1465 c 128,-1,73
 448 1419 448 1419 384 1334.5 c 128,-1,74
 320 1250 320 1250 283 1130.5 c 128,-1,75
 246 1011 246 1011 246 864 c 0,76,77
 246 767 246 767 261 672 c 128,-1,78
 276 577 276 577 305 489.5 c 128,-1,79
 334 402 334 402 377.5 324 c 128,-1,80
 421 246 421 246 478.5 184 c 128,-1,81
 536 122 536 122 607.5 78 c 128,-1,82
 679 34 679 34 764 14 c 1,83,84
 761 34 761 34 758.5 63.5 c 128,-1,85
 756 93 756 93 756 133 c 0,86,87
 756 199 756 199 769 269 c 128,-1,88
 782 339 782 339 815.5 396.5 c 128,-1,89
 849 454 849 454 905.5 491 c 128,-1,90
 962 528 962 528 1049 528 c 0,58,59
895 0 m 0,91,92
 1017 0 1017 0 1104.5 46 c 128,-1,93
 1192 92 1192 92 1249 180 c 1,94,95
 1233 238 1233 238 1211.5 285.5 c 128,-1,96
 1190 333 1190 333 1161.5 367.5 c 128,-1,97
 1133 402 1133 402 1095 421 c 128,-1,98
 1057 440 1057 440 1008 440 c 0,99,100
 947 440 947 440 909.5 407 c 128,-1,101
 872 374 872 374 851.5 324.5 c 128,-1,102
 831 275 831 275 824 217 c 128,-1,103
 817 159 817 159 817 109 c 0,104,105
 817 78 817 78 818 49 c 128,-1,106
 819 20 819 20 821 4 c 1,107,108
 840 1 840 1 858 0.5 c 128,-1,109
 876 0 876 0 895 0 c 0,91,92
EndSplineSet
PairPos2: "'kern' Horizontal Kerning lookup 0 per glyph data 1" j_j dx=0 dy=0 dh=696 dv=0 dx=0 dy=0 dh=0 dv=0
PairPos2: "'kern' Horizontal Kerning lookup 0 per glyph data 1" OE dx=0 dy=0 dh=41 dv=0 dx=0 dy=0 dh=0 dv=0
PairPos2: "'kern' Horizontal Kerning lookup 0 per glyph data 1" ydieresis dx=0 dy=0 dh=82 dv=0 dx=0 dy=0 dh=0 dv=0
PairPos2: "'kern' Horizontal Kerning lookup 0 per glyph data 1" yacute dx=0 dy=0 dh=82 dv=0 dx=0 dy=0 dh=0 dv=0
PairPos2: "'kern' Horizontal Kerning lookup 0 per glyph data 1" Yacute dx=0 dy=0 dh=-352 dv=0 dx=0 dy=0 dh=0 dv=0
PairPos2: "'kern' Horizontal Kerning lookup 0 per glyph data 1" Udieresis dx=0 dy=0 dh=-61 dv=0 dx=0 dy=0 dh=0 dv=0
PairPos2: "'kern' Horizontal Kerning lookup 0 per glyph data 1" Ucircumflex dx=0 dy=0 dh=-61 dv=0 dx=0 dy=0 dh=0 dv=0
PairPos2: "'kern' Horizontal Kerning lookup 0 per glyph data 1" Uacute dx=0 dy=0 dh=-61 dv=0 dx=0 dy=0 dh=0 dv=0
PairPos2: "'kern' Horizontal Kerning lookup 0 per glyph data 1" Ugrave dx=0 dy=0 dh=-61 dv=0 dx=0 dy=0 dh=0 dv=0
PairPos2: "'kern' Horizontal Kerning lookup 0 per glyph data 1" Oslash dx=0 dy=0 dh=41 dv=0 dx=0 dy=0 dh=0 dv=0
PairPos2: "'kern' Horizontal Kerning lookup 0 per glyph data 1" Odieresis dx=0 dy=0 dh=41 dv=0 dx=0 dy=0 dh=0 dv=0
PairPos2: "'kern' Horizontal Kerning lookup 0 per glyph data 1" Otilde dx=0 dy=0 dh=41 dv=0 dx=0 dy=0 dh=0 dv=0
PairPos2: "'kern' Horizontal Kerning lookup 0 per glyph data 1" Ocircumflex dx=0 dy=0 dh=41 dv=0 dx=0 dy=0 dh=0 dv=0
PairPos2: "'kern' Horizontal Kerning lookup 0 per glyph data 1" Oacute dx=0 dy=0 dh=41 dv=0 dx=0 dy=0 dh=0 dv=0
PairPos2: "'kern' Horizontal Kerning lookup 0 per glyph data 1" Ograve dx=0 dy=0 dh=41 dv=0 dx=0 dy=0 dh=0 dv=0
PairPos2: "'kern' Horizontal Kerning lookup 0 per glyph data 1" Ccedilla dx=0 dy=0 dh=41 dv=0 dx=0 dy=0 dh=0 dv=0
PairPos2: "'kern' Horizontal Kerning lookup 0 per glyph data 1" z dx=0 dy=0 dh=41 dv=0 dx=0 dy=0 dh=0 dv=0
PairPos2: "'kern' Horizontal Kerning lookup 0 per glyph data 1" y dx=0 dy=0 dh=82 dv=0 dx=0 dy=0 dh=0 dv=0
PairPos2: "'kern' Horizontal Kerning lookup 0 per glyph data 1" s dx=0 dy=0 dh=-20 dv=0 dx=0 dy=0 dh=0 dv=0
PairPos2: "'kern' Horizontal Kerning lookup 0 per glyph data 1" q dx=0 dy=0 dh=250 dv=0 dx=0 dy=0 dh=0 dv=0
PairPos2: "'kern' Horizontal Kerning lookup 0 per glyph data 1" k dx=0 dy=0 dh=55 dv=0 dx=0 dy=0 dh=0 dv=0
PairPos2: "'kern' Horizontal Kerning lookup 0 per glyph data 1" j dx=0 dy=0 dh=696 dv=0 dx=0 dy=0 dh=0 dv=0
PairPos2: "'kern' Horizontal Kerning lookup 0 per glyph data 1" g dx=0 dy=0 dh=236 dv=0 dx=0 dy=0 dh=0 dv=0
PairPos2: "'kern' Horizontal Kerning lookup 0 per glyph data 1" Y dx=0 dy=0 dh=-352 dv=0 dx=0 dy=0 dh=0 dv=0
PairPos2: "'kern' Horizontal Kerning lookup 0 per glyph data 1" X dx=0 dy=0 dh=-133 dv=0 dx=0 dy=0 dh=0 dv=0
PairPos2: "'kern' Horizontal Kerning lookup 0 per glyph data 1" W dx=0 dy=0 dh=82 dv=0 dx=0 dy=0 dh=0 dv=0
PairPos2: "'kern' Horizontal Kerning lookup 0 per glyph data 1" V dx=0 dy=0 dh=-195 dv=0 dx=0 dy=0 dh=0 dv=0
PairPos2: "'kern' Horizontal Kerning lookup 0 per glyph data 1" U dx=0 dy=0 dh=-61 dv=0 dx=0 dy=0 dh=0 dv=0
PairPos2: "'kern' Horizontal Kerning lookup 0 per glyph data 1" T dx=0 dy=0 dh=-143 dv=0 dx=0 dy=0 dh=0 dv=0
PairPos2: "'kern' Horizontal Kerning lookup 0 per glyph data 1" Q dx=0 dy=0 dh=41 dv=0 dx=0 dy=0 dh=0 dv=0
PairPos2: "'kern' Horizontal Kerning lookup 0 per glyph data 1" O dx=0 dy=0 dh=41 dv=0 dx=0 dy=0 dh=0 dv=0
PairPos2: "'kern' Horizontal Kerning lookup 0 per glyph data 1" J dx=0 dy=0 dh=72 dv=0 dx=0 dy=0 dh=0 dv=0
PairPos2: "'kern' Horizontal Kerning lookup 0 per glyph data 1" C dx=0 dy=0 dh=41 dv=0 dx=0 dy=0 dh=0 dv=0
EndChar

StartChar: R
Encoding: 82 82 53
Width: 1780
GlyphClass: 2
Flags: W
LayerCount: 2
Back
Fore
SplineSet
834 1407 m 0,0,1
 954 1407 954 1407 1031 1372.5 c 128,-1,2
 1108 1338 1108 1338 1153 1284.5 c 128,-1,3
 1198 1231 1198 1231 1215.5 1166.5 c 128,-1,4
 1233 1102 1233 1102 1233 1042 c 0,5,6
 1233 983 1233 983 1218 922.5 c 128,-1,7
 1203 862 1203 862 1173.5 809 c 128,-1,8
 1144 756 1144 756 1101.5 713.5 c 128,-1,9
 1059 671 1059 671 1004 649 c 2,10,-1
 963 633 l 1,11,12
 1012 486 1012 486 1080 381 c 128,-1,13
 1148 276 1148 276 1226.5 208 c 128,-1,14
 1305 140 1305 140 1390.5 108 c 128,-1,15
 1476 76 1476 76 1561 76 c 0,16,17
 1610 76 1610 76 1650.5 89 c 128,-1,18
 1691 102 1691 102 1720.5 127.5 c 128,-1,19
 1750 153 1750 153 1766 189.5 c 128,-1,20
 1782 226 1782 226 1782 274 c 0,21,22
 1782 310 1782 310 1778 334 c 128,-1,23
 1774 358 1774 358 1769.5 373.5 c 128,-1,24
 1765 389 1765 389 1761 398 c 128,-1,25
 1757 407 1757 407 1757 414 c 0,26,27
 1757 419 1757 419 1759 422.5 c 128,-1,28
 1761 426 1761 426 1767 426 c 0,29,30
 1776 426 1776 426 1789 411.5 c 128,-1,31
 1802 397 1802 397 1813.5 373 c 128,-1,32
 1825 349 1825 349 1833 318.5 c 128,-1,33
 1841 288 1841 288 1841 256 c 0,34,35
 1841 180 1841 180 1819 115 c 128,-1,36
 1797 50 1797 50 1751.5 2 c 128,-1,37
 1706 -46 1706 -46 1637 -73 c 128,-1,38
 1568 -100 1568 -100 1475 -100 c 0,39,40
 1345 -100 1345 -100 1242.5 -61.5 c 128,-1,41
 1140 -23 1140 -23 1061 38 c 128,-1,42
 982 99 982 99 925 174.5 c 128,-1,43
 868 250 868 250 828 325.5 c 128,-1,44
 788 401 788 401 764 468 c 128,-1,45
 740 535 740 535 727 578 c 1,46,47
 698 574 698 574 672 572.5 c 128,-1,48
 646 571 646 571 623 571 c 0,49,50
 595 571 595 571 575.5 572 c 128,-1,51
 556 573 556 573 545 575 c 1,52,53
 547 510 547 510 550.5 437.5 c 128,-1,54
 554 365 554 365 560 298 c 128,-1,55
 566 231 566 231 575 177.5 c 128,-1,56
 584 124 584 124 596 96 c 0,57,58
 617 49 617 49 650 22.5 c 128,-1,59
 683 -4 683 -4 715 -19.5 c 128,-1,60
 747 -35 747 -35 770 -44 c 128,-1,61
 793 -53 793 -53 793 -63 c 0,62,63
 793 -76 793 -76 764 -76 c 0,64,65
 732 -76 732 -76 692 -66.5 c 128,-1,66
 652 -57 652 -57 605.5 -46 c 128,-1,67
 559 -35 559 -35 507 -25.5 c 128,-1,68
 455 -16 455 -16 399 -16 c 0,69,70
 345 -16 345 -16 288 -20.5 c 128,-1,71
 231 -25 231 -25 184 -25 c 0,72,73
 119 -25 119 -25 91 -16 c 128,-1,74
 63 -7 63 -7 63 14 c 0,75,76
 63 27 63 27 71 35 c 128,-1,77
 79 43 79 43 102 43 c 0,78,79
 128 43 128 43 148.5 42 c 128,-1,80
 169 41 169 41 190 41 c 0,81,82
 239 41 239 41 274.5 48 c 128,-1,83
 310 55 310 55 332 76.5 c 128,-1,84
 354 98 354 98 364.5 137 c 128,-1,85
 375 176 375 176 375 240 c 0,86,87
 375 266 375 266 373 326 c 128,-1,88
 371 386 371 386 366 465 c 128,-1,89
 361 544 361 544 353.5 634 c 128,-1,90
 346 724 346 724 336 810.5 c 128,-1,91
 326 897 326 897 312 972 c 128,-1,92
 298 1047 298 1047 281 1096 c 0,93,94
 263 1145 263 1145 238 1173 c 128,-1,95
 213 1201 213 1201 181.5 1216 c 128,-1,96
 150 1231 150 1231 113.5 1236 c 128,-1,97
 77 1241 77 1241 37 1245 c 0,98,99
 20 1247 20 1247 10 1252.5 c 128,-1,100
 0 1258 0 1258 0 1272 c 0,101,102
 0 1284 0 1284 8 1292.5 c 128,-1,103
 16 1301 16 1301 41 1303 c 0,104,105
 69 1305 69 1305 91 1305 c 128,-1,106
 113 1305 113 1305 135 1305 c 0,107,108
 165 1305 165 1305 193 1305 c 128,-1,109
 221 1305 221 1305 252.5 1306.5 c 128,-1,110
 284 1308 284 1308 322.5 1311.5 c 128,-1,111
 361 1315 361 1315 412 1321 c 0,112,113
 478 1328 478 1328 532.5 1342.5 c 128,-1,114
 587 1357 587 1357 636.5 1371.5 c 128,-1,115
 686 1386 686 1386 733.5 1396.5 c 128,-1,116
 781 1407 781 1407 834 1407 c 0,0,1
543 627 m 1,117,118
 659 628 659 628 742.5 660 c 128,-1,119
 826 692 826 692 880 747.5 c 128,-1,120
 934 803 934 803 959.5 878 c 128,-1,121
 985 953 985 953 985 1040 c 0,122,123
 985 1195 985 1195 928 1273.5 c 128,-1,124
 871 1352 871 1352 766 1352 c 0,125,126
 722 1352 722 1352 688 1336.5 c 128,-1,127
 654 1321 654 1321 628.5 1293.5 c 128,-1,128
 603 1266 603 1266 587 1227.5 c 128,-1,129
 571 1189 571 1189 563 1143 c 0,130,131
 548 1047 548 1047 544.5 952.5 c 128,-1,132
 541 858 541 858 541 770 c 2,133,-1
 543 627 l 1,117,118
EndSplineSet
EndChar

